<?xml version="1.0" standalone="no"?>
<!DOCTYPE svg PUBLIC "-//W3C//DTD SVG 1.1//EN" "http://www.w3.org/Graphics/SVG/1.1/DTD/svg11.dtd" >
<svg>
<metadata>
Created by FontForge 20090622 at Sat Jan  5 12:16:36 2019
 By deploy user
SIL Open Font License
</metadata>
<defs>
<font id="Amsdam" horiz-adv-x="574" >
  <font-face 
    font-family="Amsdam"
    font-weight="400"
    font-stretch="normal"
    units-per-em="1024"
    panose-1="0 0 0 0 0 0 0 0 0 0"
    ascent="819"
    descent="-205"
    x-height="573"
    cap-height="1003"
    bbox="-2232 -522 1316 1580"
    underline-thickness="1"
    underline-position="-2"
    unicode-range="U+000D-U+E01EF"
  />
<missing-glyph horiz-adv-x="543" 
d="M51 102h307v902h-307v-151v-751zM0 1055h410v-1004h-410v503v501z" />
    <glyph glyph-name=".notdef" horiz-adv-x="543" 
d="M51 102h307v902h-307v-151v-751zM0 1055h410v-1004h-410v503v501z" />
    <glyph glyph-name="f_l.clig" horiz-adv-x="647" 
d="M605 985v-967q0 -8 -4 -13q-5 -5 -14 -5h-29q-7 0 -11 5t-5 12v1v0v850l-12 12q-8 8 -21 19q-25 19 -64 38q-40 20 -94 20q-65 0 -121 -43q-55 -43 -55 -142v-198h212q9 0 14 -5t5 -13v-21q0 -8 -4 -12q-5 -5 -15 -5h-212v-500q0 -7 -6 -13q-5 -5 -13 -5h-25q-8 0 -13 5
q-5 6 -5 13v500h-94q-10 0 -15 6q-4 6 -4 12v19q0 8 6 13q5 6 13 6h94v198q0 127 71 186q71 60 163 60q78 0 128 -28q50 -29 67 -45v65q-4 -3 -9 -5q-5 -1 -11 -1q-28 0 -43 17q-14 17 -15 40q0 26 17 41t44 15q30 0 54 -30t26 -98v-2v-2z" />
    <glyph glyph-name="f_i.clig" horiz-adv-x="547" 
d="M519 850q-14 -24 -35 -30q-22 -7 -44 6q-19 11 -27 33q-8 21 6 45q3 6 8 9q4 4 9 7q-18 14 -49 28q-31 13 -66 13q-68 0 -110 -46q-43 -46 -43 -145v-196h311q9 0 14 -5t5 -13v-537q0 -9 -5 -14q-4 -5 -14 -5h-28q-8 0 -12 6q-4 5 -4 13v499h-267v-499q0 -8 -6 -13
q-5 -6 -13 -6h-26q-7 0 -13 6q-5 5 -5 13v499h-86q-10 0 -15 6q-4 6 -4 12v19q0 8 6 13q5 6 13 6h86v196q0 127 61 188q62 60 155 60q45 0 84 -14q39 -15 61 -32q46 -33 56 -66q5 -14 5 -26q0 -17 -8 -30z" />
    <glyph glyph-name="f_f_l.clig" horiz-adv-x="985" 
d="M944 985v-967q0 -8 -4 -13q-5 -5 -14 -5h-29q-7 0 -12 5q-4 5 -4 12v1v0v850l-30 27q-23 22 -61 40q-21 9 -46 15q-25 7 -54 7q-65 0 -121 -43q-55 -43 -55 -142v-198h212q9 0 14 -5t5 -13v-21q0 -8 -5 -12q-4 -5 -14 -5h-212v-500q0 -7 -6 -13q-5 -5 -13 -5h-26
q-7 0 -12 5q-5 6 -5 13v500h-278v-500q0 -7 -6 -13q-6 -5 -13 -5h-24q-8 0 -14 5q-5 6 -5 13v500h-93q-11 0 -15 6q-4 7 -4 15v16q0 8 5 13q5 6 14 6h93v190t71 191q72 63 164 63q60 0 106 -18q47 -18 75 -37q32 28 73 42q40 13 85 13q78 0 128 -28q50 -29 67 -45v65
q-5 -3 -10 -5q-5 -1 -10 -1q-28 0 -43 17t-15 40q0 26 17 41q16 15 43 15q31 0 55 -30t26 -98v-2v-2zM452 574v198q0 44 10 80q9 36 26 64q-23 15 -59 30q-35 15 -82 15q-65 0 -119 -49t-54 -148v-95v-95h278z" />
    <glyph glyph-name="f_f_i.clig" horiz-adv-x="925" 
d="M895 850q-13 -24 -34 -30q-22 -7 -44 6q-20 11 -27 33q-8 21 6 45q3 6 8 9q4 4 9 7q-18 14 -49 28q-31 13 -66 13q-68 0 -111 -46q-42 -46 -42 -145v-196h311q7 0 13 -6q6 -5 6 -13v-536q0 -9 -5 -14q-4 -5 -14 -5h-29q-7 0 -11 6q-5 5 -5 13v499h-266v-499q0 -8 -6 -13
q-6 -6 -13 -6h-26q-7 0 -13 6q-6 5 -6 13v499h-86h-1h-1h-219v-499q0 -8 -6 -13q-6 -6 -13 -6h-24q-8 0 -14 6q-5 5 -5 13v499h-93q-11 0 -15 6q-4 7 -4 15v16q0 8 5 13q5 6 14 6h93v191q0 127 71 190q72 64 164 64q67 0 117 -23q50 -22 76 -41q29 32 70 47q40 16 88 16
q45 0 84 -14q39 -15 61 -32q46 -33 56 -66q5 -14 4 -26q0 -17 -8 -30zM507 904q-22 15 -63 36q-40 21 -97 21q-65 0 -119 -49q-54 -48 -54 -147v-191h303v0h4v196q0 40 7 74q7 33 19 60z" />
    <glyph glyph-name="f_f.clig" horiz-adv-x="766" 
d="M901 850q-14 -24 -35 -30q-22 -7 -44 6q-19 11 -27 33q-8 21 6 45q4 6 8 9q4 4 10 7q-19 14 -50 28q-31 13 -66 13q-67 0 -110 -46t-43 -145v-196h212q9 0 14 -5t5 -13v-21q0 -8 -5 -12q-4 -5 -14 -5h-212v-499q0 -8 -6 -13q-5 -6 -13 -6h-26q-7 0 -13 6q-5 5 -5 13v499
h-86h-1h-2h-204v-499q0 -8 -5 -13q-6 -6 -14 -6h-24q-8 0 -13 6q-6 5 -6 13v499h-93q-11 0 -15 6q-4 7 -4 15v16q0 8 5 13q6 6 14 6h93v191q0 127 72 190q71 64 164 64q61 0 109 -20q47 -19 75 -38q29 29 67 43q39 14 84 14t84 -14q39 -15 61 -32q46 -33 56 -66q5 -14 5 -26
q0 -17 -8 -30zM516 911q-23 16 -61 33q-37 17 -87 17q-66 0 -120 -49q-54 -48 -54 -147v-191h293v196q0 43 8 78q7 36 21 63z" />
    <glyph glyph-name=".null" horiz-adv-x="0" 
 />
    <glyph glyph-name="nonmarkingreturn" unicode="&#xd;" horiz-adv-x="0" 
 />
    <glyph glyph-name="space" unicode=" " horiz-adv-x="410" 
 />
    <glyph glyph-name="exclam" unicode="!" horiz-adv-x="319" 
d="M198 42q0 -23 -16 -40q-17 -17 -41 -17t-42 17q-17 17 -17 40q0 25 17 41q18 17 42 17t41 -17q16 -16 16 -41zM184 977h-3h-3v-166q-4 -136 -13 -409q0 -6 -6 -12q-6 -5 -13 -5h-11t-13 5q-6 6 -6 12q-4 136 -14 408v149v12v2v10v2v2q0 2 1 3q3 50 24 74q20 24 47 26h6
q23 0 38 -13q18 -14 19 -39q1 -3 1 -5q0 -20 -13 -36q-13 -19 -41 -20z" />
    <glyph glyph-name="quotedbl" unicode="&#x22;" horiz-adv-x="481" 
d="M44 699q-3 4 -3 9v3q2 6 9 11q4 3 21 18q18 15 35 43q8 15 15 34t9 42q1 16 -1 29q-2 14 -6 25q-5 -3 -11 -5q-5 -2 -12 -2q-28 0 -42 17q-15 18 -15 40q0 26 17 41q16 15 43 15q31 0 56 -32q24 -32 24 -103q0 -55 -19 -97q-20 -41 -43 -66q-12 -14 -23 -23t-18 -13
t-14 -5h-1q-5 0 -9 5t-12 14zM301 699q-3 4 -3 9v3q1 6 9 11q3 3 21 18t34 43q9 15 16 34t9 42q1 16 -1 29q-2 14 -6 25q-5 -3 -11 -5t-12 -2q-28 0 -43 17q-14 18 -14 40q0 26 16 41q17 15 44 15q31 0 56 -32q24 -32 24 -103q0 -30 -6 -56q-7 -26 -16 -47q-19 -40 -43 -64
q-25 -24 -38 -32q-8 -4 -14 -5h-1q-6 0 -10 5q-3 5 -11 14z" />
    <glyph glyph-name="numbersign" unicode="#" horiz-adv-x="735" 
d="M179 295h-121q-7 0 -12 6t-5 13v7q0 8 5 13q5 6 12 6h126l45 261h-129q-8 0 -13 5q-6 6 -6 14v8q0 8 6 13q5 6 13 6h136l57 341q1 9 7 12q6 4 12 4h9q8 0 12 -7q4 -6 3 -15l-56 -335h234l58 341q1 9 6 12q6 4 12 4h10q9 0 12 -7q4 -6 3 -15l-56 -335h119q7 0 12 -6
q5 -5 5 -13v-8q0 -8 -4 -14q-4 -5 -12 -5h-126l-45 -261h128q8 0 13 -6q6 -5 6 -13v-7q0 -7 -5 -13t-12 -6h-137l-47 -279q-1 -7 -7 -11q-5 -5 -12 -5h-8q-10 0 -15 5t-2 17l47 273h-235l-46 -279q-1 -7 -7 -11q-5 -5 -12 -5h-8q-10 0 -15 5t-3 17zM464 340l43 261h-232
l-45 -261h234z" />
    <glyph glyph-name="dollar" unicode="$" horiz-adv-x="750" 
d="M709 240q0 -67 -39 -122q-40 -56 -102 -89q-34 -19 -72 -30q-39 -11 -80 -13v-155q0 -8 -6 -13q-6 -4 -14 -4t-16 4q-7 4 -7 13v155q-41 2 -78 12q-36 9 -66 21q-57 24 -93 50q-35 27 -44 35q-6 5 -10 12v4q0 5 6 14q5 7 16 20q8 11 17 7t18 -11l18 -15q12 -10 29 -21
q32 -21 79 -41q48 -21 108 -25v430q-46 15 -86 31t-73 36q-61 35 -96 87q-34 52 -34 133q0 27 7 56q8 30 24 58q30 53 93 93t165 45v53q0 10 7 15q6 4 13 4h6q8 0 13 -5q6 -5 6 -14v-54q85 -5 144 -33q60 -27 74 -36q40 -23 53 -51q12 -27 4 -51q-9 -25 -29 -36
q-20 -10 -44 -2q-21 8 -33 28q-11 19 -2 46q2 4 4 7l4 6q-18 11 -66 33t-109 27q0 -105 -1 -211q-1 -105 -1 -210q136 -48 214 -111q79 -64 79 -182zM373 550v27v379q-80 -4 -128 -34t-71 -69q-13 -21 -19 -44q-5 -22 -5 -43q0 -88 60 -135q61 -47 163 -81v0zM639 239
q0 85 -60 134q-59 49 -163 86v-46v-365q92 5 157 60q66 55 66 131z" />
    <glyph glyph-name="percent" unicode="%" horiz-adv-x="845" 
d="M198 623q-82 0 -140 58q-58 57 -58 140t58 140q58 58 140 58t140 -58q58 -57 58 -140t-58 -140q-58 -58 -140 -58zM198 676q59 0 101 42q42 43 42 103q0 59 -42 101t-101 42q-60 0 -102 -42t-42 -101q0 -60 42 -103q42 -42 102 -42zM845 183q0 -82 -58 -140
q-59 -58 -140 -58q-83 0 -141 58q-57 58 -57 140q0 83 57 141q58 58 141 58q82 0 140 -58t58 -141zM790 183q0 59 -42 101t-101 42q-60 0 -103 -42q-42 -42 -42 -101q0 -60 42 -102q43 -42 103 -42q59 0 101 42t42 102zM691 939l-525 -928q-2 -5 -7 -8q-6 -2 -10 -2h-26
q-9 0 -12 8q-1 2 -1 5q0 5 3 11l545 972v0v0q-6 0 -12 2q-6 1 -11 5q-23 16 -25 38q-3 23 10 42q15 21 37 24h8q18 0 36 -12q26 -18 28 -58v-4q1 -39 -38 -95v0v0z" />
    <glyph glyph-name="ampersand" unicode="&#x26;" horiz-adv-x="877" 
d="M840 18q-8 -7 -23 -22q-9 -8 -16 -5q-8 3 -13 8l-143 145q-62 -72 -146 -115q-83 -43 -186 -43q-129 0 -200 79q-72 78 -72 184q0 39 9 73q10 34 26 62q31 54 79 91q49 38 98 65q-7 7 -21 23q-47 50 -86 106q-40 56 -38 127q0 49 25 100q24 50 76 84q28 18 64 28
q36 11 81 11q115 0 173 -67q59 -66 59 -150q0 -31 -11 -60q-10 -29 -29 -55q-34 -49 -88 -89q-53 -40 -109 -68l293 -290q41 66 63 141q23 76 23 152q0 4 -1 11v13q-5 -2 -10 -3q-5 -2 -11 -1q-28 1 -42 19t-12 41q1 26 18 40q18 14 45 13q30 -2 52 -33q23 -32 21 -99v-1v0
q0 -85 -27 -173q-28 -87 -76 -162l149 -147q9 -8 11 -17q1 -2 1 -4q0 -7 -6 -12zM266 613l21 -20l21 -22q51 26 100 59q49 32 79 73q17 22 26 46q10 25 10 52q0 60 -43 111q-44 51 -131 51q-92 0 -136 -54t-44 -114v-3q-1 -49 28 -93q30 -46 69 -86zM605 185l-312 316
q-70 -38 -129 -98q-60 -61 -60 -154q0 -86 59 -146q59 -59 152 -59q89 0 162 38q74 39 128 103z" />
    <glyph glyph-name="quotesingle" unicode="'" horiz-adv-x="224" 
d="M44 698q-3 4 -3 8v3q2 6 9 12q4 2 21 17q18 15 35 43q8 15 15 34t9 42q1 16 -1 30t-6 24q-5 -3 -11 -5q-5 -2 -12 -2q-28 0 -42 18q-15 17 -15 40q0 25 17 40q16 15 43 15q31 0 56 -31q24 -32 24 -103q0 -56 -19 -97q-20 -41 -43 -67q-12 -14 -23 -23t-18 -13t-14 -5h-1
q-5 0 -9 5z" />
    <glyph glyph-name="parenleft" unicode="(" horiz-adv-x="568" 
d="M533 902q-21 -9 -43 -2q-22 8 -32 34q-2 6 -3 11q0 6 1 13q-1 0 -1 -1h-2q-110 -30 -178 -149q-69 -120 -69 -356q0 -257 81 -376q80 -120 206 -137q6 0 9 -5q4 -5 3 -12q-1 -8 -2 -22q0 -6 -5 -9q-3 -3 -8 -3q-2 0 -4 1q-80 3 -158 53q-78 49 -127 166q-27 63 -42 149
q-16 85 -16 195q0 94 11 169t31 134q37 110 97 169q60 58 127 80q45 17 78 17q14 0 25 -3q38 -11 50 -39q6 -15 6 -27q0 -10 -4 -20q-7 -21 -31 -30z" />
    <glyph glyph-name="parenright" unicode=")" horiz-adv-x="591" 
d="M155 -106q-41 -13 -71 -13q-18 0 -33 6q-37 13 -47 42q-4 13 -4 24q0 12 5 23q9 20 34 28q21 7 42 -1q21 -9 30 -36q2 -6 2 -12t-2 -12h8q5 1 9 1q114 27 185 147q71 119 71 361q0 257 -80 376q-80 120 -205 137q-7 0 -11 5q-3 5 -2 12q0 8 1 22q1 6 6 10q4 3 13 3
q80 -4 158 -54q77 -50 126 -167q27 -63 42 -149q15 -85 15 -195q0 -185 -41 -300q-40 -116 -102 -177q-34 -34 -72 -53t-77 -28z" />
    <glyph glyph-name="asterisk" unicode="*" horiz-adv-x="430" 
d="M180 608q1 49 2 147l-127 -79q-6 -4 -13 -2t-11 8q-2 4 -7 12q-4 6 -2 13q2 8 8 11l130 79l-132 79q-5 3 -7 10q-1 3 -1 5q0 5 2 9q3 5 9 14q3 6 9 7q7 1 14 -4l128 -79q-1 50 -2 148q0 8 6 13q5 6 13 6h11q8 0 13 -6q6 -5 6 -13q0 -49 -1 -148l126 81q7 4 14 2
q6 -3 10 -8q3 -4 7 -11t2 -14q-1 -7 -7 -11l-132 -80l133 -80q5 -4 7 -11q1 -3 1 -5q0 -4 -2 -7q-3 -5 -7 -13q-5 -7 -12 -9q-8 -1 -14 3l-126 80q0 -49 1 -147q0 -8 -6 -14q-5 -5 -13 -5h-11t-13 5q-6 6 -6 14z" />
    <glyph glyph-name="plus" unicode="+" horiz-adv-x="631" 
d="M286 468h-247q-7 0 -13 6t-6 13v22q0 7 6 13q6 5 13 5h247v248q0 8 5 13q6 5 13 5h23q8 0 13 -5q6 -5 6 -13v-248h245q8 0 13 -5q6 -6 6 -13v-22q0 -7 -6 -13q-5 -6 -13 -6h-245v-245q0 -7 -6 -13q-5 -5 -13 -5h-23q-7 0 -13 5q-5 6 -5 13v245z" />
    <glyph glyph-name="comma" unicode="," horiz-adv-x="307" 
d="M144 101q31 0 56 -32q24 -32 24 -103q0 -56 -19 -97q-20 -41 -43 -67q-12 -13 -23 -22t-18 -14q-7 -4 -14 -4h-1q-5 0 -9 4l-12 15q-3 4 -3 8v3q1 6 9 12q4 3 21 17q18 15 35 43q8 15 15 34t9 42q1 16 -1 30t-6 24q-5 -3 -11 -5q-5 -2 -12 -2q-28 0 -42 18q-15 17 -15 40
q0 25 17 41q16 15 43 15z" />
    <glyph glyph-name="hyphen" unicode="-" horiz-adv-x="442" 
d="M41 351v16q0 8 5 13t12 5h324q8 0 13 -5q6 -5 6 -13v-16q0 -8 -6 -13q-5 -6 -13 -6h-324q-7 0 -12 6q-5 5 -5 13z" />
    <glyph glyph-name="period" unicode="." horiz-adv-x="280" 
d="M141 101q24 0 41 -17q16 -16 16 -41q0 -23 -16 -40q-17 -17 -41 -17t-42 17q-17 17 -17 40q0 25 17 41q18 17 42 17z" />
    <glyph glyph-name="slash" unicode="/" horiz-adv-x="375" 
d="M318 993q2 6 7 9t12 3h20q9 0 15 -6q3 -4 3 -8q0 -3 -1 -6l-317 -971q-2 -7 -8 -10q-5 -3 -11 -3h-21q-9 0 -14 5q-3 3 -3 8q0 3 1 7z" />
    <glyph glyph-name="zero" unicode="0" horiz-adv-x="785" 
d="M41 488q0 235 92 369t259 134q168 0 260 -134t92 -369q0 -236 -92 -370t-260 -134q-167 0 -259 134t-92 370zM679 488q0 209 -74 326q-75 117 -213 117t-213 -117t-75 -326q0 -212 75 -329q75 -116 213 -116t213 116q74 117 74 329z" />
    <glyph glyph-name="one" unicode="1" horiz-adv-x="454" 
d="M331 960v-614v-327q0 -8 -6 -13q-5 -6 -13 -6h-29q-7 0 -13 6q-5 5 -5 13v862l-134 -110q-1 -2 -2 -3l-2 -2q6 -2 11 -6q5 -3 9 -8q16 -23 10 -45t-24 -35q-21 -15 -43 -10t-38 27q-10 15 -10 35q0 13 4 27q11 38 66 78l176 148h21q9 0 15 -4q7 -5 7 -13z" />
    <glyph glyph-name="two" unicode="2" horiz-adv-x="689" 
d="M641 40v-21q0 -8 -6 -13q-5 -6 -13 -6h-562q-9 0 -14 5q-5 6 -5 12v26l380 382q75 75 117 144q42 70 42 140q0 53 -24 103q-25 50 -76 81q-27 17 -62 27t-79 10q-78 0 -127 -35q-50 -35 -73 -62q4 -2 9 -4q4 -3 7 -7q18 -22 14 -44q-5 -23 -22 -37q-20 -16 -42 -13
q-23 4 -40 24q-16 21 -13 52q4 31 38 68q8 11 22 24q13 13 31 28q33 25 82 46t114 21q53 0 97 -11q45 -12 80 -32q65 -38 98 -102q34 -63 34 -136q0 -95 -52 -171q-51 -77 -129 -154l-327 -326h482q8 0 13 -6q6 -5 6 -13z" />
    <glyph glyph-name="three" unicode="3" horiz-adv-x="709" 
d="M667 262v-7q0 -113 -83 -190q-86 -80 -235 -80q-47 0 -85 8t-68 20q-57 22 -91 52q-33 30 -49 48q-5 6 -5 13t5 11q7 7 22 19q8 6 14 4t12 -8l43 -41q27 -26 73 -45q25 -10 57 -17q33 -6 73 -6q111 0 182 58q70 59 68 157q-1 36 -13 66q-12 31 -32 55q-37 44 -97 66
q-59 22 -120 22h-134q-11 0 -15 4t-4 15v26q-1 8 4 13q5 4 15 4h132q28 0 57 5q28 5 55 17q49 20 84 64q34 43 33 113q-2 91 -66 147q-65 56 -156 56t-144 -38t-72 -60q5 -2 9 -5q4 -2 8 -7q18 -21 14 -44q-3 -22 -21 -36q-19 -17 -42 -13q-22 3 -39 24q-14 17 -14 41
q0 10 2 21q8 39 60 83q31 28 91 61q61 33 146 33q124 0 207 -71q82 -70 84 -184q2 -84 -48 -147q-50 -62 -109 -84v-2v-1q70 -22 130 -88q61 -66 62 -152z" />
    <glyph glyph-name="four" unicode="4" horiz-adv-x="870" 
d="M744 226h-3h-2h-5q-8 -1 -16 -1h-19v0v1h-69v-207q0 -8 -6 -13q-5 -6 -13 -6q-13 0 -29 1q-17 1 -17 18v205h-541q-10 0 -17 5t-7 17v24l587 723h26q7 0 11 -3t4 -13q0 -174 1 -348q1 -175 1 -349h84q4 1 9 2l8 2q-3 6 -4 11q-2 6 -2 12q2 28 20 42t41 12q26 -1 40 -18
q13 -16 13 -40q0 -2 -1 -5q-1 -25 -24 -46q-23 -20 -70 -26zM568 878l-488 -596h488v596z" />
    <glyph glyph-name="five" unicode="5" horiz-adv-x="707" 
d="M666 314q0 -47 -13 -91q-12 -44 -35 -82q-43 -70 -118 -113q-76 -44 -171 -44q-42 0 -77 7t-64 17q-53 20 -87 48q-33 28 -51 49q-8 11 -9 17v1q0 5 8 14q5 4 10 9t10 9q6 6 13 5q6 0 11 -8q7 -8 18 -19q11 -12 26 -25q30 -23 77 -44q48 -21 116 -21q78 0 138 37t94 95
q18 31 28 67q10 35 10 72q0 108 -68 173q-67 66 -202 66h-238q-13 0 -20 9q-7 10 -7 21v374q0 8 5 13q5 6 13 6h341h16q58 0 87 -20q33 -23 35 -55q1 -26 -14 -44q-14 -17 -40 -18q-22 -1 -40 13t-20 42q0 6 2 11q1 5 4 11h-329v-303h205q165 0 250 -78q86 -79 86 -221z" />
    <glyph glyph-name="six" unicode="6" horiz-adv-x="738" 
d="M697 315q0 -89 -43 -163q-42 -74 -110 -118q-37 -23 -79 -36q-43 -13 -88 -13q-59 0 -108 16q-48 16 -86 44q-71 54 -107 146q-35 91 -35 203q0 166 71 283q70 117 160 192q48 40 96 69t87 47q53 32 91 32h9q40 -5 56 -31q14 -23 9 -45q-4 -22 -26 -36q-19 -11 -42 -8
q-22 4 -37 28q-2 4 -4 9q-1 5 -1 10q-48 -19 -132 -72q-84 -52 -155 -137q-38 -46 -66 -102q-29 -55 -40 -120q6 8 19 20t32 26q35 25 91 47q55 23 126 23q80 0 150 -37t113 -104q23 -35 36 -79t13 -94zM633 312q0 74 -33 131q-34 58 -88 91q-29 17 -63 27q-34 9 -69 9
q-46 0 -84 -11t-69 -28q-57 -31 -88 -66q-31 -36 -33 -38q-2 -11 -2 -21q-1 -11 -1 -23q0 -85 28 -162q29 -77 87 -125q31 -25 71 -40q40 -14 88 -14q37 0 71 11t63 30q55 36 89 97q33 60 33 132z" />
    <glyph glyph-name="seven" unicode="7" horiz-adv-x="664" 
d="M633 960v-7l-422 -930q-7 -14 -11 -19q-5 -4 -16 -4h-35q-11 0 -12 8t2 15l202 440q-16 17 -45 35q-30 19 -73 24q-17 1 -30 -1q-14 -2 -25 -7q3 -5 5 -11q2 -5 2 -12q0 -27 -17 -42q-18 -15 -40 -15q-26 0 -41 17q-15 16 -15 43q0 32 32 56q32 25 103 25q57 0 98 -21
q42 -20 67 -43l186 406h-529q-12 0 -16 6q-3 5 -3 14v21q0 10 6 15q5 4 13 4h594q9 0 14 -5q6 -6 6 -12z" />
    <glyph glyph-name="eight" unicode="8" horiz-adv-x="725" 
d="M256 498v2v1q-75 22 -132 81q-57 60 -57 146q0 106 75 183q74 76 217 76q145 0 222 -76q77 -77 77 -183q0 -86 -57 -146q-57 -59 -132 -81v-1v-2q85 -20 150 -83q65 -62 65 -159q0 -128 -90 -200q-90 -71 -235 -71q-140 0 -229 71q-89 72 -89 200q0 93 65 157
q65 65 150 85zM359 39q109 0 184 53q75 52 75 158q0 81 -69 142q-68 61 -187 70q-119 -9 -187 -69q-68 -59 -68 -143q0 -104 74 -158q74 -53 178 -53zM593 726q0 83 -60 145q-61 62 -175 62q-111 0 -169 -62t-58 -145t62 -134q62 -52 169 -59q107 7 169 59q62 51 62 134z
" />
    <glyph glyph-name="nine" unicode="9" horiz-adv-x="738" 
d="M247 -18q-41 -19 -72 -19q-9 0 -18 1q-35 8 -48 33q-13 24 -8 46t28 34q20 11 42 6q23 -5 36 -29q3 -5 4 -11q1 -5 0 -11h1v0q26 9 74 34q49 25 103 65q30 22 59 49q29 26 56 57q41 47 72 106q31 58 43 127q-6 -8 -19 -20q-12 -13 -31 -26q-35 -25 -90 -48
q-55 -22 -127 -22q-79 0 -150 36q-70 37 -112 104q-23 36 -36 80q-13 43 -13 94q0 48 13 92t36 82q43 70 114 113q72 43 157 43q108 0 182 -53q74 -52 112 -140q21 -46 31 -101q11 -55 11 -115q0 -97 -26 -177t-67 -144q-27 -42 -59 -77q-32 -36 -65 -65q-63 -55 -125 -90
q-63 -35 -108 -54zM631 556l2 21v22q0 85 -28 162q-28 78 -86 125q-31 26 -70 40q-40 14 -88 14q-69 0 -127 -35q-58 -36 -91 -93q-19 -31 -29 -67t-10 -74q0 -40 10 -76q10 -35 29 -65q33 -54 90 -86t124 -32q45 0 84 12q38 11 69 27q57 31 88 67q31 35 33 38z" />
    <glyph glyph-name="colon" unicode=":" horiz-adv-x="361" 
d="M123 530q0 25 17 42q18 17 42 17t41 -17q16 -17 16 -42q0 -23 -16 -40q-17 -18 -41 -18t-42 18q-17 17 -17 40zM182 101q24 0 41 -16q16 -17 16 -41t-16 -41q-17 -17 -41 -17t-42 17q-17 17 -17 41t17 41q18 16 42 16z" />
    <glyph glyph-name="semicolon" unicode=";" horiz-adv-x="388" 
d="M185 100q31 0 56 -32q24 -31 24 -102q0 -31 -6 -57t-16 -47q-19 -40 -43 -64q-25 -24 -38 -32q-7 -4 -14 -5h-1q-5 0 -9 5l-12 15q-3 4 -3 8v3q1 6 9 11q2 2 8 7q7 5 16 14q16 16 34 44q18 29 22 72q1 16 -1 30q-2 13 -6 24q-5 -3 -11 -5q-5 -2 -12 -2q-28 0 -43 17
q-14 18 -14 40q0 26 16 41q17 15 44 15zM125 531q0 24 17 41t40 17q25 0 41 -17q17 -17 17 -41q0 -23 -17 -40q-16 -18 -41 -18q-23 0 -40 18q-17 17 -17 40z" />
    <glyph glyph-name="less" unicode="&#x3c;" horiz-adv-x="602" 
d="M20 337v1q0 6 3 11q3 4 12 10l506 321q5 3 8 3t6 -2q6 -4 6 -15v-33q0 -5 -2 -11q-2 -7 -9 -11l-436 -274l436 -265q7 -5 9 -11q2 -7 2 -11v-33q0 -12 -6 -16q-3 -1 -6 -1t-8 3l-506 311q-9 5 -12 10t-3 13z" />
    <glyph glyph-name="equal" unicode="=" horiz-adv-x="550" 
d="M20 544v25q0 7 4 13q3 5 15 5h452q7 0 13 -5q5 -6 5 -13v-25q0 -7 -5 -13q-6 -5 -13 -5h-452q-12 0 -15 5q-4 6 -4 13zM20 246v25q0 7 4 13q3 5 15 5h452q7 0 13 -5q5 -6 5 -13v-25q0 -7 -5 -13q-6 -5 -13 -5h-452q-12 0 -15 5q-4 6 -4 13z" />
    <glyph glyph-name="greater" unicode="&#x3e;" horiz-adv-x="602" 
d="M41 50q0 5 2 11q2 7 9 11l437 265l-437 274q-7 5 -9 11q-2 7 -2 11v33q0 12 6 16q3 1 6 1q4 0 8 -3l506 -321q9 -6 12 -10q3 -5 3 -10v-2q0 -7 -3 -12t-12 -11l-506 -311q-4 -3 -8 -3q-3 0 -6 2q-6 4 -6 15v33z" />
    <glyph glyph-name="question" unicode="?" horiz-adv-x="609" 
d="M353 44q0 -23 -17 -40t-41 -17t-41 17t-17 40q0 25 17 41q17 17 41 17t41 -17q17 -16 17 -41zM569 817q0 -32 -9 -58q-9 -27 -23 -49q-27 -41 -67 -70l-74 -54q-29 -21 -49 -43q-19 -21 -19 -48v-82q0 -10 -5 -15q-4 -5 -14 -5h-27q-10 0 -14 6q-3 6 -3 14v83q0 37 19 64
q19 28 48 53l39 30l41 30q37 28 64 61q28 33 28 79q0 56 -46 103q-45 46 -130 46q-34 0 -61 -6q-27 -7 -49 -17q-41 -19 -64 -42q-22 -24 -31 -33l-2 -4q-1 -1 -1 -3q6 -2 11 -4q5 -3 10 -7q20 -20 19 -42q-2 -23 -18 -39q-18 -19 -40 -18q-23 1 -42 20q-19 18 -19 49
q0 4 1 8q2 36 43 83l17 19t28 25q31 25 81 47t121 22q109 0 173 -57t64 -146z" />
    <glyph glyph-name="at" unicode="@" horiz-adv-x="1367" 
d="M1316 416q0 -50 -6 -102q-7 -53 -22 -103q-27 -92 -90 -158t-176 -66q-71 0 -110 33t-51 80q-18 -29 -69 -71t-136 -42q-116 0 -190 85q-75 86 -75 219q0 88 37 154q37 67 97 103q32 20 69 31q38 10 78 10q31 0 56 -5q26 -5 45 -12q38 -15 57 -30l19 -16q1 11 4 32
q1 8 5 13q4 4 15 4h14q8 0 13 -6q6 -5 6 -13v-360q0 -81 31 -119q31 -37 88 -37q42 0 76 15q34 16 61 43q49 51 73 135q24 85 24 183q0 82 -18 157q-18 74 -52 137q-64 118 -185 187t-295 69q-96 0 -180 -22q-83 -23 -152 -66q-127 -80 -198 -224q-70 -143 -70 -331
q0 -214 112 -365t288 -226q0 -1 1 -1t1 -1h1v0q0 7 1 12q1 6 4 12q13 24 36 29q22 4 42 -6q23 -13 28 -35q5 -21 -8 -45t-45 -32q-10 -3 -20 -3q-27 0 -63 15v0v0q-124 53 -221 142t-153 209q-30 65 -46 139t-16 156q0 107 23 202t67 175q81 148 227 234t343 86
q100 0 186 -23q85 -23 154 -65q128 -78 197 -213q68 -135 68 -303zM846 179v271q-1 2 -7 9q-5 7 -16 17q-19 18 -56 37t-92 19q-91 0 -157 -66q-65 -65 -65 -175t59 -177q58 -67 149 -67q33 0 59 9q27 8 47 22q38 24 56 56q18 31 23 45v0z" />
    <glyph glyph-name="A" unicode="A" horiz-adv-x="954" 
d="M919 -1h-38q-7 0 -12 4q-6 4 -8 8l-116 264h-390q-3 0 -5 -1q-3 -1 -5 -1q3 -6 4 -12q2 -5 2 -12q-2 -28 -20 -41q-18 -14 -41 -13q-25 1 -40 19q-14 17 -12 44q1 31 33 53q33 23 102 20h348l-246 579h-3l-390 -899q-2 -4 -7 -8t-13 -4h-40q-8 0 -10 4q-2 2 -2 5t2 8
l442 998q2 5 7 7q5 3 10 3h4q6 0 11 -1q5 -2 8 -9l438 -998q1 -4 1 -7t-1 -5q-2 -5 -13 -5z" />
    <glyph glyph-name="B" unicode="B" horiz-adv-x="776" 
d="M735 271q0 -120 -88 -196t-228 -76h-92v0q-69 -2 -101 21q-32 24 -33 54q-1 27 14 44q14 18 40 19q22 0 40 -14t19 -42q0 -6 -1 -12q-2 -5 -5 -10h125q104 0 170 60q67 60 67 154q0 95 -72 149t-174 54h-268v-459q0 -8 -6 -13q-7 -5 -14 -5h-27q-8 0 -13 5q-6 6 -6 13
v363v604q0 8 5 13q6 6 14 6h305q133 0 215 -71t82 -189q0 -85 -45 -145q-46 -60 -113 -87q77 -21 133 -79q57 -58 57 -161zM416 538q101 0 158 57q56 57 56 145q0 94 -60 147q-61 53 -164 53h-257v-402h267z" />
    <glyph glyph-name="C" unicode="C" horiz-adv-x="985" 
d="M917 790q-12 -25 -33 -33t-44 3q-20 10 -29 31t3 46q2 4 5 8l6 6q-59 48 -131 75q-72 28 -154 28q-122 0 -223 -60q-100 -59 -159 -156q-31 -52 -48 -112q-18 -60 -18 -126q0 -64 18 -124q17 -60 48 -112q59 -96 159 -155t223 -59q92 0 165 33q73 34 138 87q6 6 12 6
q6 1 11 -3l24 -24q5 -4 5 -12q0 -7 -5 -12q-73 -71 -164 -106q-90 -34 -186 -34q-140 0 -257 67q-116 66 -185 175q-37 59 -57 129q-21 69 -21 144q0 76 21 145q20 69 57 129q69 110 186 177q116 67 256 67q110 0 194 -35q85 -35 154 -98l2 -2t1 -2q25 -24 31 -48
q1 -8 1 -16q0 -15 -6 -27z" />
    <glyph glyph-name="D" unicode="D" horiz-adv-x="950" 
d="M908 502q0 -73 -20 -141q-20 -67 -56 -125q-67 -107 -180 -172t-249 -65h-75v0q-68 -1 -99 22t-32 53q-1 27 13 45q15 17 41 18q22 0 40 -14t19 -42q0 -6 -1 -11l-4 -10h87q66 0 126 17q59 17 111 48q94 57 151 156t57 221q0 121 -57 219t-151 156q-51 30 -111 47
t-126 17h-243v-924q0 -8 -6 -13q-7 -5 -14 -5h-28q-8 0 -13 5q-6 6 -6 13v363v604q0 8 5 13q6 6 12 6h304q73 0 141 -20q67 -20 125 -55q108 -67 173 -179q66 -113 66 -247z" />
    <glyph glyph-name="E" unicode="E" horiz-adv-x="735" 
d="M151 943v-396h455q7 0 13 -6q5 -6 5 -13v-24q0 -8 -5 -14q-6 -5 -13 -5h-455v-425h436q-3 5 -4 11q-2 5 -2 11q2 28 20 42t41 13q26 -2 40 -19q13 -16 13 -40q0 -2 -1 -5q-1 -28 -29 -50q-27 -21 -86 -23v0h-478q-8 0 -14 6q-5 5 -5 13v362v605q0 7 5 13q6 5 14 5h575
q7 0 13 -5q6 -6 6 -13v-25q0 -7 -6 -13q-6 -5 -13 -5h-525z" />
    <glyph glyph-name="F" unicode="F" horiz-adv-x="735" 
d="M694 929q1 -2 1 -4q0 -24 -14 -40q-14 -18 -40 -19q-22 -1 -40 13t-20 42q0 6 2 11q1 5 3 10h-435v-436h455q7 0 13 -6q5 -5 5 -13q0 -12 -1 -27t-17 -15h-455q-1 -142 -2 -427q0 -8 -6 -13q-6 -6 -17 -6h-25q-8 0 -14 6q-5 5 -5 13v363v604q0 7 5 13q6 6 14 6h467v-1
q65 1 95 -22q30 -22 31 -52z" />
    <glyph glyph-name="G" unicode="G" horiz-adv-x="1008" 
d="M829 845q-59 51 -133 81q-74 29 -158 29q-65 0 -125 -18t-111 -50q-95 -60 -152 -162q-58 -101 -58 -222q0 -65 18 -125q17 -61 48 -112q59 -97 159 -156t221 -59q86 0 149 17q64 17 101 35q21 9 33 17q12 7 16 10v270h-246q-11 0 -15 4q-3 5 -3 14v29q0 9 3 13q4 4 15 4
h295q7 0 13 -5q5 -5 5 -12v-333q0 -16 -6 -23q-5 -8 -14 -14q-7 -5 -23 -14t-40 -20q-46 -20 -118 -39t-163 -19q-76 0 -145 20q-70 20 -129 56q-111 68 -178 183q-68 116 -68 256q0 76 21 145q20 69 57 128q69 111 185 178t257 67q98 0 176 -29q79 -29 144 -81
q51 -37 61 -72q4 -14 4 -26q1 -19 -9 -34q-15 -22 -36 -28q-22 -6 -44 8q-19 12 -25 34q-7 22 8 45q2 3 5 6q2 2 5 4z" />
    <glyph glyph-name="H" unicode="H" horiz-adv-x="943" 
d="M149 17q0 -7 -5 -13q-5 -5 -13 -5h-30q-8 0 -14 5q-5 6 -5 13v363v604q0 8 5 13q6 6 14 6h30q8 0 13 -6q5 -5 5 -13v-967zM861 984v-967q0 -7 -5 -13q-5 -5 -14 -5h-30q-7 0 -13 5q-5 6 -5 13v466h-486q3 -5 4 -10q2 -5 1 -11q-1 -28 -20 -42q-18 -13 -40 -12
q-26 1 -40 19q-13 16 -13 39v5q2 31 35 54q32 22 102 19h457v440q0 8 5 13q6 6 13 6h30q9 0 14 -6q5 -5 5 -13z" />
    <glyph glyph-name="I" unicode="I" horiz-adv-x="233" 
d="M82 984q0 8 5 13q6 6 14 6h31q8 0 13 -6q6 -5 6 -13v-967q0 -8 -6 -13q-7 -5 -14 -5h-30q-8 0 -14 5q-5 6 -5 13v363v604z" />
    <glyph glyph-name="J" unicode="J" 
d="M532 986v-683q0 -150 -75 -233q-75 -84 -203 -84q-84 0 -136 35q-51 35 -74 62q-39 41 -43 75q-1 7 -1 13q0 25 15 42q18 21 40 23q22 3 42 -14q17 -15 20 -38q3 -22 -15 -43q-4 -4 -8 -7t-9 -4q24 -25 64 -54t106 -29q92 0 151 63q59 64 59 192v684q0 9 6 14q5 5 14 5
h29q7 0 13 -6q5 -5 5 -13z" />
    <glyph glyph-name="K" unicode="K" 
d="M637 -1h-46q-10 0 -16 2q-7 3 -15 12l-491 476v-472q0 -11 -7 -15q-6 -3 -15 -3h-28q-9 0 -14 5t-5 13v362v602q0 10 6 16t16 6h25q10 0 16 -6t6 -16v-443l395 368q-4 2 -7 5q-4 3 -7 7q-16 22 -10 45q5 22 24 35q16 11 32 11q5 0 11 -1q22 -5 37 -27q18 -24 7 -62
q-10 -37 -64 -77l-352 -327l515 -492q4 -4 4 -10v-5q-3 -9 -17 -9z" />
    <glyph glyph-name="L" unicode="L" horiz-adv-x="646" 
d="M626 72q-2 -31 -34 -53q-32 -23 -100 -20h-1h-390q-8 0 -14 5q-5 6 -5 13v363v604q0 8 5 13q6 6 14 6h31q7 0 12 -6q5 -5 5 -13v-925h369q-3 5 -4 10q-2 6 -1 12q1 28 19 41q19 14 41 13q26 -2 40 -19q13 -16 13 -40v-4z" />
    <glyph glyph-name="M" unicode="M" horiz-adv-x="1094" 
d="M1032 6q-25 -11 -46 -3t-31 31q-8 21 -1 43t32 32q5 2 9 3h9l-144 744h-2h-1l-290 -859q-2 -7 -7 -9q-6 -3 -13 -3h-5q-6 0 -11 2q-6 2 -8 10l-290 859h-1h-2l-162 -841q-1 -6 -6 -11t-11 -5h-34q-10 0 -14 4q-3 3 -3 9q0 3 1 6l203 990q2 4 5 7q4 3 8 3h16q6 0 9 -2
q3 -3 5 -8l296 -881h1h2l297 881q2 5 5 8q4 2 9 2h16q4 0 8 -3t5 -7l183 -892q1 0 1 -1v-2t1 -3v0q3 -17 3 -31q0 -22 -7 -38q-12 -26 -35 -35z" />
    <glyph glyph-name="N" unicode="N" horiz-adv-x="966" 
d="M884 889v-887q0 -9 -7 -14q-7 -4 -16 -4h-19l-5 5q-4 4 -26 32q-9 12 -23 29l-33 42l-65 84l-92 120l-187 245l-263 348h-2v-872q0 -8 -5 -13q-6 -6 -13 -6h-27q-8 0 -14 6q-5 5 -5 13v368v613q0 9 6 14q7 5 15 5h25l688 -897h2v0v772q-4 -1 -8 -1q-4 -1 -8 0
q-28 3 -41 22q-12 19 -9 42q3 25 21 38q19 13 45 10q28 -3 47 -31q20 -28 19 -83v0z" />
    <glyph glyph-name="O" unicode="O" horiz-adv-x="1117" 
d="M557 1018q76 0 145 -20q70 -20 129 -57q111 -68 177 -184q67 -117 67 -257t-66 -255q-67 -116 -178 -183q-59 -37 -128 -57q-70 -20 -146 -20q-139 0 -255 67q-116 66 -184 175q-37 60 -57 129t-20 144q0 140 67 256q67 117 177 185q59 37 128 57t144 20zM557 49
q66 0 127 17q61 18 113 50q97 59 156 161q59 101 59 223q0 66 -18 127t-50 113q-60 97 -162 156t-225 59q-65 0 -126 -18q-60 -17 -113 -50q-96 -60 -155 -162t-59 -225q0 -122 59 -223t155 -161q52 -32 113 -50q60 -17 126 -17z" />
    <glyph glyph-name="P" unicode="P" horiz-adv-x="754" 
d="M733 682q0 -47 -12 -90q-13 -44 -37 -81q-42 -69 -115 -112q-72 -43 -159 -43h-104q1 -3 2 -7v-9q-1 -28 -20 -41q-18 -14 -40 -13q-26 2 -40 19q-14 18 -13 45q2 28 29 49q28 22 85 23v0h2q3 1 6 1t6 -1h83q69 0 127 34t93 90q19 29 29 64q11 35 11 74q0 37 -11 70
q-10 34 -29 63q-35 54 -93 87q-59 32 -128 32h-256v-918q0 -8 -6 -13q-6 -6 -17 -6h-25q-8 0 -14 6q-5 5 -5 13v363v604q0 7 5 13q6 6 14 6h308q87 0 159 -42q73 -42 116 -111q24 -37 36 -80q13 -42 13 -89z" />
    <glyph glyph-name="Q" unicode="Q" horiz-adv-x="1117" 
d="M753 22l170 -278q4 -5 1 -13q-2 -8 -11 -8h-47q-3 0 -8 2q-5 3 -11 12l-159 264q-30 -8 -64 -12t-67 -4q-139 0 -255 66q-116 67 -184 176q-37 59 -57 128q-20 70 -20 145q0 140 67 256t177 185q59 37 128 57t144 20q141 0 257 -67t184 -178q37 -59 57 -128
q20 -70 20 -145q0 -164 -89 -292q-90 -129 -233 -186zM1012 500q0 123 -59 225t-156 162q-52 32 -113 50t-127 18q-65 0 -126 -18q-60 -18 -113 -50q-96 -60 -155 -162t-59 -225q0 -122 59 -223q59 -102 155 -161q52 -32 113 -50q60 -18 126 -18q26 0 51 3t49 8l-25 42v1v0
q-26 44 -23 76q4 31 24 48q22 16 44 15q22 -2 38 -22q14 -18 13 -40q0 -23 -22 -41q-4 -3 -9 -5q-4 -1 -9 -2l32 -53q128 48 210 163q82 114 82 259z" />
    <glyph glyph-name="R" unicode="R" horiz-adv-x="818" 
d="M749 25q5 -9 3 -17q-2 -9 -13 -9h-44q-8 0 -13 3q-4 4 -8 10l-208 376q-14 -1 -26 -1h-27h-110q3 -6 4 -11q2 -5 1 -11q-1 -28 -19 -42q-19 -14 -41 -12q-26 1 -40 18q-14 18 -13 45q2 28 29 50q28 21 86 23v0h6h1h1h135q37 0 70 9q34 10 63 27q54 32 88 88q33 56 33 125
q0 67 -33 121q-34 54 -88 85q-29 17 -63 26q-34 10 -71 10h-301q-1 -307 -2 -920q0 -8 -6 -13q-6 -6 -17 -6h-25q-8 0 -14 6q-5 5 -5 13v363v604q0 7 5 13t14 6h355q46 0 89 -12t79 -33q69 -40 110 -109q42 -68 42 -154q0 -108 -67 -189t-169 -110z" />
    <glyph glyph-name="S" unicode="S" horiz-adv-x="750" 
d="M709 241q0 -70 -42 -127q-43 -57 -109 -91q-36 -18 -77 -28t-85 -10q-83 0 -147 26t-104 51q-21 14 -34 25q-14 12 -19 16q-6 5 -10 12v4q0 6 6 14q4 6 13 17q7 9 15 11q8 3 16 -5q4 -3 16 -13q12 -11 31 -24q35 -24 92 -49q56 -24 127 -24q64 0 118 25t86 66
q18 23 27 48q10 26 10 53q0 96 -74 148t-205 96q-81 28 -142 61q-62 32 -96 83q-19 27 -29 61q-9 34 -9 77q0 29 8 60q8 30 25 60q33 54 100 94t176 40q75 0 133 -20q58 -21 88 -37q7 -3 13 -7l12 -8h1v-1q1 0 1 -1q1 0 2 -1q24 -19 32 -40t2 -41q-8 -26 -27 -37
q-19 -12 -44 -5q-22 7 -34 26q-13 19 -5 46q2 4 4 7q2 4 4 7q-28 15 -77 33t-106 18q-46 0 -83 -10q-36 -9 -64 -25q-50 -28 -73 -72q-22 -44 -22 -84q0 -92 64 -139q65 -48 174 -84q147 -50 234 -114q87 -63 87 -188z" />
    <glyph glyph-name="T" unicode="T" horiz-adv-x="747" 
d="M726 928v-3q0 -25 -13 -41q-15 -17 -40 -18q-23 -1 -41 12q-18 14 -19 42q0 6 1 11t4 10h-237v-924q0 -7 -7 -13q-6 -5 -16 -5h-26q-8 0 -13 5q-6 6 -6 13v924h-274q-11 0 -15 6t-4 16v21q0 9 6 14t13 5h555v0q68 1 99 -22q31 -22 33 -53z" />
    <glyph glyph-name="U" unicode="U" horiz-adv-x="835" 
d="M834 866v-501q0 -58 -14 -110q-13 -51 -38 -95q-47 -81 -131 -128q-83 -47 -195 -47q-110 0 -193 47q-84 48 -130 128q-25 44 -38 96q-13 51 -13 109v233v387q0 7 5 13q6 5 14 5h30q7 0 13 -5q5 -6 5 -13v-613q0 -139 82 -230t225 -91q145 0 227 90q83 91 83 229v522
q-3 -1 -6 -1q-3 -1 -7 0q-28 3 -40 22q-13 19 -10 42q3 25 22 38q14 11 34 11q5 0 11 -1q30 -4 50 -37q15 -25 15 -69q0 -14 -1 -31z" />
    <glyph glyph-name="V" unicode="V" horiz-adv-x="925" 
d="M888 876q-1 -3 -2 -5q-1 -3 -2 -5l-388 -867q-2 -6 -6 -9q-4 -4 -11 -4h-7q-6 0 -11 5q-4 4 -5 8l-433 987q-3 5 -3 9q0 2 2 4q3 5 12 5h39q7 0 11 -3t5 -7l387 -891h1h2l353 803q-5 0 -9 1t-9 4q-25 13 -29 35q-5 23 5 42q13 23 34 29q7 1 14 1q15 0 32 -9
q24 -13 33 -45q2 -10 2 -20q0 -28 -15 -64v-1q-1 -1 -2 -3z" />
    <glyph glyph-name="W" unicode="W" horiz-adv-x="1199" 
d="M1164 879v0l-253 -884q-1 -4 -5 -7t-8 -3h-16q-5 0 -9 3q-3 2 -5 7l-259 874h-2l-259 -874q-2 -5 -5 -7q-4 -3 -9 -3h-16q-4 0 -8 3t-5 7l-284 990q-1 4 -1 7q0 5 3 8q4 4 14 4h34q7 0 12 -5q5 -4 6 -11l241 -840h2h1l252 857q2 7 9 10q6 3 13 3h2q7 0 13 -3q7 -3 9 -10
l254 -857h1h2l216 758q-4 0 -8 1t-8 3q-25 14 -30 36q-4 22 6 42q12 23 34 28q22 6 46 -7t33 -46q2 -9 2 -20q0 -27 -15 -64z" />
    <glyph glyph-name="X" unicode="X" horiz-adv-x="801" 
d="M744 0h-45q-6 0 -11 2t-8 7l-281 443h-2l-277 -443q-3 -5 -8 -7t-10 -2h-46q-11 0 -14 6q-1 3 -1 6q0 4 3 10l312 492l-294 469q-6 8 -3 15q3 6 14 6h46q5 0 10 -2t9 -6l259 -422h2l208 334q-3 1 -5 2q-2 2 -4 3q-22 18 -23 41q-1 22 13 40q16 20 39 22h4q20 0 39 -16
q24 -18 24 -57q1 -38 -39 -91l-213 -338l314 -492q3 -6 3 -10q0 -3 -1 -6q-3 -6 -14 -6z" />
    <glyph glyph-name="Y" unicode="Y" horiz-adv-x="841" 
d="M768 873v-1l-290 -382v-471q0 -8 -5 -13q-6 -6 -13 -6q-14 0 -32 1q-17 1 -17 18v469l-366 495q-4 6 -4 10q0 3 1 5q4 7 14 7h44q5 0 10 -3q5 -2 8 -6l327 -446l271 363q-4 1 -7 3q-4 2 -7 5q-21 19 -21 42q1 23 16 39q18 19 40 20q23 0 42 -18q21 -19 21 -53t-32 -78z
" />
    <glyph glyph-name="Z" unicode="Z" horiz-adv-x="758" 
d="M130 65v-2h535q9 0 14 -5q5 -6 5 -14v-25q0 -8 -5 -13q-5 -6 -14 -6h-604q-9 0 -14 5q-6 5 -6 12v26l582 895v3h-519q-7 0 -13 6t-6 16v23q0 7 6 13q6 5 13 5h591q9 0 14 -5q5 -6 5 -13v-23l-275 -422q16 -17 45 -35t72 -22q16 -1 30 1t24 6q-3 6 -5 11q-2 6 -2 12
q0 28 17 43q18 14 40 14q26 0 41 -16q15 -17 15 -44q0 -31 -32 -56q-31 -24 -102 -24q-60 0 -102 22q-43 22 -68 45z" />
    <glyph glyph-name="bracketleft" unicode="[" 
d="M298 -374q8 0 13 -6q6 -5 6 -13v-21q0 -8 -6 -13q-5 -6 -13 -6h-279q-8 0 -13 6q-6 5 -6 13v525v873q0 8 6 13q5 6 13 6h279q8 0 13 -6q6 -5 6 -13v-22q0 -7 -6 -13q-5 -5 -13 -5h-236v-1318h236v0z" />
    <glyph glyph-name="backslash" unicode="\" horiz-adv-x="375" 
d="M1 984q-1 3 -1 6q0 5 3 9q5 5 14 5h21q6 0 11 -3q6 -4 8 -10l317 -971q1 -3 1 -6q0 -5 -3 -8q-6 -6 -15 -6h-20q-7 0 -12 3t-7 8z" />
    <glyph glyph-name="bracketright" unicode="]" 
d="M253 -372v1318h-235q-8 0 -13 5q-6 6 -6 13v22q0 7 6 13q5 5 13 5h278q8 0 13 -5q6 -6 6 -13v-914v-484q0 -8 -6 -14q-5 -5 -13 -5h-278q-8 0 -13 6q-6 5 -6 13v21q0 8 6 13q5 6 13 6h235z" />
    <glyph glyph-name="asciicircum" unicode="^" horiz-adv-x="732" 
d="M46 597l303 417q3 5 6 7q4 3 9 3h5q5 0 9 -3q3 -2 6 -7l302 -417q5 -7 5 -13q-1 -1 -1 -3q-2 -7 -13 -7h-33q-7 0 -14 3q-6 4 -9 8l-255 355l-256 -355q-3 -4 -9 -8q-6 -3 -14 -3h-33q-10 0 -13 7v3q0 6 5 13z" />
    <glyph glyph-name="underscore" unicode="_" horiz-adv-x="571" 
d="M60 -17h180h272q7 0 13 -5q5 -6 5 -13v-15q0 -7 -5 -12q-6 -5 -13 -5h-452q-9 0 -14 5t-5 12v15q0 7 5 13q5 5 14 5z" />
    <glyph glyph-name="grave" unicode="`" horiz-adv-x="624" 
d="M452 810q-1 -7 -6 -11q-5 -3 -14 -4q-5 -1 -12 -1q-14 0 -37 3q-34 4 -73 24q-21 11 -42 28q-21 16 -39 40q-44 56 -44 97q0 40 25 59q19 15 39 15h4q23 -2 38 -22q14 -18 13 -41t-23 -40q-5 -4 -11 -6q-5 -2 -11 -2q3 -11 10 -24q7 -12 17 -24q16 -16 33 -27t33 -18
q30 -11 54 -12q23 -1 27 -1q10 0 14 -4q5 -4 5 -11v-18z" />
    <glyph glyph-name="a" unicode="a" horiz-adv-x="548" 
d="M487 338v-319q0 -7 -6 -13q-5 -5 -13 -5h-17q-7 0 -11 4t-6 11l-6 52q-28 -26 -79 -54t-120 -28q-80 0 -134 51q-54 52 -54 140q0 83 64 138t177 55q49 0 91 -10q42 -11 54 -15q0 94 -21 142q-21 47 -105 47q-41 0 -74 -7t-55 -15q-6 -2 -10 -5q-5 -2 -9 -5q4 -5 8 -9
q3 -5 4 -12q7 -27 -6 -45q-13 -19 -35 -24q-25 -6 -44 6q-19 13 -25 39q-6 24 9 51q15 26 59 45q20 9 67 22t115 13q85 0 123 -30q37 -31 49 -85q7 -28 8 -63q2 -34 2 -72zM427 131v12v146q-14 6 -54 18t-91 12q-82 0 -132 -39q-50 -38 -50 -102q0 -62 38 -99q39 -37 98 -37
q66 0 118 31t73 58v0z" />
    <glyph glyph-name="b" unicode="b" horiz-adv-x="643" 
d="M602 288q0 -82 -33 -149q-34 -68 -91 -108q-30 -22 -65 -33q-36 -12 -74 -12q-83 0 -135 35q-52 34 -65 49q-1 -17 -4 -51q-1 -10 -6 -14q-5 -5 -14 -5h-14q-8 0 -14 6q-5 5 -5 13v363v603v1v0v24v1v1q1 50 20 76q20 25 46 28q5 1 10 1q20 0 35 -11q18 -13 21 -38
q3 -23 -9 -42q-13 -19 -41 -22q-5 -1 -10 0q-4 1 -9 3v-475q8 6 55 31q46 25 121 25q80 0 142 -38q63 -38 99 -102q19 -35 30 -75q10 -40 10 -85zM541 287q0 102 -64 171q-64 68 -163 68q-27 0 -50 -4q-24 -5 -43 -13q-36 -13 -56 -28l-20 -15v-321q1 -2 7 -10q6 -9 18 -21
q22 -23 62 -47q41 -24 101 -24q90 0 149 72t59 172z" />
    <glyph glyph-name="c" unicode="c" horiz-adv-x="625" 
d="M570 378q-17 -21 -39 -25q-22 -3 -42 13q-18 14 -22 37q-4 22 13 44q4 4 8 7q5 3 10 5q0 1 -1 1v0q-11 12 -54 39t-111 27q-98 0 -167 -68q-70 -67 -70 -170q0 -104 70 -173t165 -69q53 0 89 17q37 17 59 36q12 10 20 18q8 9 12 14q7 8 14 9q6 0 13 -7q5 -4 16 -14
q5 -5 7 -11q1 -5 -3 -12q-6 -9 -17 -21t-28 -25q-30 -24 -76 -44t-104 -20q-43 0 -82 11q-40 11 -75 32q-64 39 -104 106t-40 152q0 45 12 86q12 40 34 75q40 64 108 102t147 38q76 0 128 -28q52 -27 75 -52q41 -40 47 -74q1 -8 1 -16q1 -23 -13 -40z" />
    <glyph glyph-name="d" unicode="d" horiz-adv-x="623" 
d="M551 1012v-993q0 -8 -5 -13q-6 -6 -13 -6h-15q-8 0 -14 5q-5 4 -6 14q-1 17 -4 50q-13 -14 -64 -48q-51 -35 -134 -35q-73 0 -132 39t-94 103q-19 34 -29 75q-10 40 -10 84q0 83 35 150q35 68 95 107q32 21 71 33q38 11 81 11q75 0 122 -25q46 -25 53 -31v475
q-4 -2 -9 -3h-10q-28 4 -40 23q-13 19 -10 41q3 26 21 39q15 10 35 10q5 0 10 -1q26 -3 46 -28q19 -25 20 -74v-1v-1zM490 466l-6 5t-17 12q-22 14 -59 29q-38 15 -89 15q-99 0 -162 -69t-63 -171q0 -100 58 -172t148 -72q33 0 60 8t48 20q40 21 60 46t22 28v321z" />
    <glyph glyph-name="e" unicode="e" horiz-adv-x="624" 
d="M583 325q0 -17 -3 -36q-2 -20 -18 -20h-458q4 -92 66 -159q61 -67 158 -67q23 0 45 3q21 4 40 9v1h-1q3 1 6 1l6 2l10 4l10 4l10 5q5 3 9 6q-5 4 -8 9q-4 5 -6 11q-8 27 5 46q12 19 34 25q25 8 44 -4t27 -38q5 -19 -2 -40t-31 -39q-25 -21 -82 -42t-121 -21
q-131 0 -206 89q-76 88 -76 214q0 43 10 83q9 40 28 74q34 64 97 103q62 39 147 39q113 0 187 -74q73 -74 73 -188zM520 321q0 84 -50 146q-50 63 -147 63q-94 0 -153 -60q-59 -61 -65 -149h415z" />
    <glyph glyph-name="f" unicode="f" horiz-adv-x="405" 
d="M539 850q-13 -23 -35 -30q-21 -7 -43 6q-20 12 -28 33q-7 22 7 46q3 5 7 9q5 4 10 7q-19 14 -50 27t-65 13q-68 0 -111 -46q-43 -45 -43 -144v-197h213q8 0 13 -5t5 -12v-22q0 -7 -4 -12q-5 -5 -14 -5h-213v-499q0 -7 -5 -13q-6 -6 -13 -6h-26q-8 0 -13 6q-6 6 -6 13v499
h-86q-10 0 -14 6q-5 6 -5 13v18q0 8 6 14q6 5 13 5h86v197q0 126 62 187q61 61 155 61q45 0 84 -15q38 -14 61 -32q45 -33 56 -65q4 -14 4 -27q0 -16 -8 -30z" />
    <glyph glyph-name="g" unicode="g" horiz-adv-x="635" 
d="M624 -211q0 -32 -10 -63q-11 -30 -30 -57q-37 -50 -102 -82t-150 -32q-121 0 -187 50t-85 111v0v0q-24 67 -12 106q12 38 42 49q25 9 46 0q21 -8 29 -33q8 -21 0 -42q-8 -22 -34 -31l-8 -2h-7q6 -56 60 -103q55 -46 154 -46q97 0 163 50q65 50 65 124q0 49 -33 87
q-33 39 -113 39h-181h-40t-48 4q-14 3 -41 17q-27 13 -47 40q-11 15 -17 33q-7 18 -7 41q0 25 6 46q7 21 17 37q18 32 41 49t30 21q-11 15 -28 53q-16 39 -16 90q0 104 67 173q68 70 184 70h34h69h55h77q9 0 14 -6q5 -5 5 -13v-16q0 -5 -4 -10q-3 -6 -9 -7q-35 -2 -103 -7
q20 -11 54 -53q34 -41 34 -131q0 -95 -64 -166q-64 -72 -174 -72q-64 0 -103 19q-39 18 -53 33q-5 -2 -23 -13t-32 -32q-8 -12 -13 -26q-5 -15 -5 -32q0 -51 36 -67q35 -16 77 -16h208q93 0 153 -44q59 -44 59 -140zM140 347q0 -75 46 -130q46 -54 136 -54q80 0 128 54
t48 130q0 90 -52 137q-53 46 -124 46q-83 0 -133 -53q-49 -53 -49 -130z" />
    <glyph glyph-name="h" unicode="h" horiz-adv-x="623" 
d="M582 325v-332v-2v-3q-2 -50 -22 -75t-46 -28h-8q-22 0 -37 11q-18 14 -21 40q-2 22 11 41q13 18 41 21h10q5 -1 9 -3v330q0 99 -44 150q-45 51 -126 51q-32 0 -59 -8q-28 -8 -51 -19q-42 -21 -67 -46q-26 -24 -28 -28v-407q0 -9 -5 -14q-4 -5 -14 -5h-27q-8 0 -12 6
q-4 5 -4 13v363v603q0 8 6 13q5 6 14 6h23q7 0 13 -6q6 -5 6 -13v-489q9 9 35 32q27 22 68 39q23 9 49 15t56 6q111 0 171 -67q59 -67 59 -195z" />
    <glyph glyph-name="i" unicode="i" horiz-adv-x="262" 
d="M82 902q0 21 14 36q14 14 35 14q20 0 34 -14q14 -15 14 -36q0 -19 -14 -33t-34 -14q-21 0 -35 14t-14 33zM99 555q0 8 6 13q5 6 13 6h26q7 0 13 -6q5 -5 5 -13v-536q0 -9 -4 -14q-5 -5 -14 -5h-29q-8 0 -12 6q-4 5 -4 13v201v335z" />
    <glyph glyph-name="j" unicode="j" horiz-adv-x="346" 
d="M247 554v-416v-335q0 -127 -58 -188q-57 -60 -152 -60q-30 0 -57 7q-28 7 -49 18h-1v0q-1 1 -2 1q-1 1 -2 1q-53 26 -70 58q-9 19 -9 36q0 11 4 22q10 25 30 35t44 0q21 -8 32 -28q10 -20 0 -46q-2 -6 -6 -11q-4 -4 -9 -8v0v0q19 -11 43 -19q25 -9 52 -9q68 0 108 45
q40 46 40 146v751q0 8 6 13q5 6 13 6h24q8 0 13 -6q6 -5 6 -13zM264 901q0 -19 -14 -33t-35 -14q-20 0 -34 14t-14 33q0 21 14 36q14 14 34 14q21 0 35 -14q14 -15 14 -36z" />
    <glyph glyph-name="k" unicode="k" horiz-adv-x="581" 
d="M548 0h-44q-7 0 -13 2t-16 9l-331 286v-278q0 -9 -5 -14q-4 -5 -14 -5h-27q-8 0 -12 5q-4 6 -4 14v362v604q0 8 5 13q6 6 14 6h24q7 0 13 -6q6 -5 6 -13v-642l277 201q3 3 5 6q3 3 5 6q-6 3 -10 6q-5 4 -8 10q-15 23 -8 45t26 34q22 13 43 7q22 -6 36 -29q14 -21 7 -52
q-7 -30 -43 -61v-1q-1 0 -2 -1q-7 -6 -15 -12t-17 -11l-230 -170l345 -297q6 -5 6 -10q0 -3 -1 -6q-3 -8 -12 -8z" />
    <glyph glyph-name="l" unicode="l" horiz-adv-x="315" 
d="M213 985v-535v-431q0 -9 -5 -14q-4 -5 -14 -5h-29q-7 0 -11 6q-4 5 -4 13v991q-5 -3 -10 -4q-5 -2 -11 -2q-28 0 -43 17q-14 18 -14 40q0 26 16 41q17 15 44 15q30 0 55 -30q24 -30 25 -98q0 -1 1 -2v-2z" />
    <glyph glyph-name="m" unicode="m" horiz-adv-x="1025" 
d="M973 326v-307q0 -7 -5 -13q-6 -5 -13 -5h-29q-6 0 -11 5t-5 13v307q0 99 -42 150t-123 51q-52 0 -91 -19q-38 -20 -62 -41q-13 -12 -22 -22l-14 -16q7 -22 10 -48t3 -55v-307q0 -7 -5 -13q-6 -5 -14 -5h-27q-7 0 -12 5t-5 13v307q0 99 -43 150t-123 51q-57 0 -97 -22
q-39 -22 -62 -44q-12 -12 -19 -21t-9 -12v-409q0 -8 -4 -13q-5 -5 -14 -5h-29q-8 0 -12 5q-4 6 -4 13v537v0v1v20q-4 -1 -9 -2t-10 0q-28 3 -40 22q-10 15 -11 33q0 4 1 8q3 26 21 39q15 10 35 10h10q26 -3 46 -28q19 -25 20 -75v-1v-1v-78q16 19 65 52q48 33 129 33
q65 0 113 -27q48 -28 75 -78q4 6 14 17l26 23q28 23 73 44t102 21q117 0 170 -71t53 -192z" />
    <glyph glyph-name="n" unicode="n" horiz-adv-x="642" 
d="M591 325v-307q0 -7 -6 -13q-5 -5 -13 -5h-26q-7 0 -13 5q-5 6 -5 13v307q0 99 -45 150q-44 51 -126 51q-57 0 -102 -23q-44 -23 -71 -45q-14 -11 -22 -20q-9 -9 -10 -11v-409q0 -8 -5 -13q-4 -5 -14 -5h-27q-8 0 -12 5q-4 6 -4 13v435v0v1v122q-4 -1 -9 -2t-10 0
q-28 3 -40 22q-10 16 -11 33q0 4 1 9q3 25 21 38q15 11 35 11q5 0 10 -1q26 -3 46 -28q19 -25 20 -75v-1v-1v-78q20 19 74 52t133 33q120 0 176 -71q55 -71 55 -192z" />
    <glyph glyph-name="o" unicode="o" horiz-adv-x="638" 
d="M319 588q78 0 143 -39q65 -40 102 -104q21 -34 32 -74t11 -83q0 -81 -37 -149t-99 -108q-33 -22 -71 -33q-39 -12 -81 -12q-79 0 -143 39q-65 39 -103 104q-20 34 -31 75q-11 40 -11 84q0 43 11 83t31 74q38 64 102 104q65 39 144 39zM319 45q95 0 160 70q65 71 65 173
q0 99 -65 170q-65 70 -160 70q-96 0 -161 -70q-66 -71 -66 -170q0 -102 66 -173q65 -70 161 -70z" />
    <glyph glyph-name="p" unicode="p" horiz-adv-x="634" 
d="M582 288q0 -83 -35 -150q-36 -67 -97 -107q-33 -21 -73 -33q-40 -11 -85 -11q-71 0 -114 24q-43 25 -55 36v-455q5 2 10 3t11 0q27 -3 40 -22q12 -19 10 -42q-3 -25 -22 -38q-14 -11 -35 -11q-4 0 -10 1q-26 3 -45 29q-20 25 -20 76l-1 1v0v363v604q0 7 6 13q5 6 12 6h15
q8 0 13 -4t6 -12l6 -39q13 11 61 40t127 29q77 0 139 -39q61 -39 96 -103q19 -35 30 -75q10 -40 10 -84zM519 289q0 100 -60 171q-59 70 -158 70q-55 0 -93 -19q-39 -18 -60 -36q-11 -10 -17 -17l-8 -8v-337l8 -8t17 -14q21 -14 56 -29t83 -15q104 0 168 70t64 172z" />
    <glyph glyph-name="q" unicode="q" horiz-adv-x="633" 
d="M612 -469q-4 -26 -22 -39q-15 -11 -35 -10h-10q-27 3 -47 31t-19 83v450q-11 -11 -55 -36q-43 -24 -114 -24q-45 0 -84 11q-40 12 -73 33q-62 40 -97 107q-36 67 -36 150q0 44 11 84q10 40 29 75q35 64 97 103q61 39 139 39t127 -29q48 -29 61 -40q2 13 5 39q1 9 7 12
q5 4 12 4h16q6 0 12 -6q5 -5 5 -13v-964q5 2 10 3t10 0q28 -3 41 -22q10 -16 10 -33v-8zM479 112v337q-1 1 -7 8t-18 17q-21 18 -59 36q-39 19 -93 19q-99 0 -159 -70q-59 -71 -59 -171q0 -102 64 -172t168 -70q25 0 47 5t41 12q34 13 53 29q20 16 22 20z" />
    <glyph glyph-name="r" unicode="r" horiz-adv-x="455" 
d="M455 486q-4 -27 -22 -41q-17 -14 -43 -10q-22 3 -37 20t-11 45q1 5 3 9l4 8q-10 3 -23 6q-14 3 -31 3q-29 0 -53 -7t-43 -19q-36 -20 -54 -44t-20 -29v-408q0 -9 -5 -14q-4 -5 -14 -5h-29q-7 0 -11 6q-5 5 -5 13v201v335q0 8 6 13q6 6 13 6h17q7 0 12 -4q4 -5 6 -12
q1 -20 5 -59q4 5 12 14q7 9 19 20q22 19 59 37t89 18q15 0 27 -2q13 -1 23 -3q1 -1 3 -1h2q1 -1 2 -1h2q56 -13 78 -40q19 -23 19 -46v-9z" />
    <glyph glyph-name="s" unicode="s" horiz-adv-x="485" 
d="M444 145q0 -65 -59 -112t-145 -47q-73 0 -118 23q-46 23 -70 41q-4 4 -6 9q-3 6 1 11q4 8 14 23q3 6 11 7q7 1 15 -5q11 -9 52 -33q41 -23 101 -23q62 0 100 30t38 72q0 49 -44 75q-45 27 -117 54q-76 27 -126 64q-50 38 -50 105q0 47 44 98q45 51 144 51q45 0 81 -11
q36 -10 59 -22q49 -24 65 -54q16 -29 6 -55q-9 -26 -29 -36q-19 -11 -44 -2q-21 7 -32 27q-12 20 -2 46q2 6 5 11q4 4 9 8q-18 9 -50 21q-32 11 -68 11q-68 0 -96 -31q-28 -32 -28 -61q0 -43 37 -67q36 -25 100 -47q80 -31 141 -67t61 -114z" />
    <glyph glyph-name="t" unicode="t" horiz-adv-x="466" 
d="M351 5q-22 -8 -49 -14t-58 -6q-89 0 -109 47q-20 46 -20 115v370h-67q-11 0 -14 5t-3 14v23q0 7 5 11q4 3 12 3h67v156q0 9 6 14q5 5 13 5q8 1 24 2q8 0 13 -6q6 -6 6 -13v-158h199q9 0 14 -5q5 -6 5 -13v-19q0 -9 -5 -14t-14 -5h-199v-365q0 -51 12 -78t63 -27
q23 0 48 6q25 7 45 15q-4 4 -7 8q-3 5 -5 11q-8 26 5 45q12 19 34 26q25 7 44 -5q19 -11 27 -37q2 -8 2 -16q0 -21 -15 -43q-20 -31 -79 -52z" />
    <glyph glyph-name="u" unicode="u" horiz-adv-x="588" 
d="M527 554v-536q0 -7 -5 -13q-6 -6 -14 -6h-17q-8 0 -12 6q-4 5 -5 12l-6 56q-7 -10 -32 -31q-24 -21 -63 -37q-22 -9 -47 -14q-26 -6 -56 -6q-120 0 -175 70q-54 70 -54 191v222v1v1q1 50 21 75q19 25 45 28h10q20 1 35 -10q18 -13 21 -39q3 -22 -10 -41q-12 -19 -40 -22
q-5 -1 -10 0q-4 1 -9 2v-217q0 -100 45 -150q44 -51 126 -51q31 0 57 8q26 7 48 19q39 21 61 46q21 24 23 28v408q0 9 5 14t14 5h25q8 0 14 -6q5 -5 5 -13z" />
    <glyph glyph-name="v" unicode="v" horiz-adv-x="594" 
d="M548 527l-238 -528q-3 -7 -7 -10t-10 -3h-5q-7 0 -11 3q-3 2 -7 10l-246 553q-3 7 -3 12v3q2 7 11 7h32q5 0 10 -3q5 -2 8 -10l208 -473h2l209 473q1 1 1 2t1 1q1 2 2 6q1 1 1 2v3q-6 -1 -12 0t-11 4q-25 14 -29 36q-5 23 6 42q13 23 35 28l12 2q16 0 33 -10
q27 -14 33 -53q1 -6 1 -14q0 -34 -26 -83z" />
    <glyph glyph-name="w" unicode="w" horiz-adv-x="825" 
d="M790 536l-168 -538q-2 -7 -6 -10t-11 -3h-5q-6 0 -11 3q-5 4 -7 10l-173 483h-2l-172 -483q-2 -6 -7 -10q-5 -3 -10 -3h-6q-6 0 -10 3q-5 3 -7 10l-172 552q-2 8 -2 13v4q1 6 11 6h31q6 0 11 -2q6 -3 8 -11l135 -451h1l171 466q2 7 6 10t11 3h6q5 0 10 -4q5 -3 7 -9
l171 -466h1l114 381l24 85q-6 -1 -11 0q-5 0 -11 2q-25 11 -32 33q-7 21 1 42q10 24 31 32q9 3 19 3q13 0 27 -6q28 -12 39 -48q3 -11 3 -26q1 -30 -15 -71z" />
    <glyph glyph-name="x" unicode="x" horiz-adv-x="588" 
d="M530 21q6 -8 3 -14q-3 -7 -12 -7h-37q-6 0 -12 4q-5 3 -10 9l-179 240h-1l-180 -240q-4 -6 -10 -9q-6 -4 -11 -4h-38q-8 0 -11 7q-1 2 -1 4q-1 4 4 10l211 273l-200 260q-6 8 -3 14t12 6h37q6 0 12 -3q5 -3 10 -10l168 -222h1l129 170v0q16 20 47 62l1 1q0 1 1 2
q-7 1 -12 3q-6 2 -10 6q-21 19 -21 42q1 22 16 39q17 20 39 20h1q22 0 42 -18q21 -18 21 -54q0 -35 -35 -81v0q-1 -1 -1 -2l-2 -2t-2 -3l-175 -228z" />
    <glyph glyph-name="y" unicode="y" horiz-adv-x="647" 
d="M624 551l-442 -952q-26 -62 -59 -81q-22 -13 -41 -13q-11 0 -21 4q-25 10 -35 30q-6 10 -6 22q0 10 5 22q8 21 28 32t46 1q6 -3 10 -6l8 -8l188 404l-271 545q-4 9 -2 16q1 7 11 7h31q6 0 11 -3t8 -10l245 -485h3l224 485q3 7 8 10t11 3h31q10 0 12 -7v-4q0 -5 -3 -12z
" />
    <glyph glyph-name="z" unicode="z" horiz-adv-x="527" 
d="M483 546l-195 -282q6 -2 13 -3t15 -2q16 -1 30 1t25 6q-4 5 -6 11t-2 12q0 28 18 43q17 14 40 14q26 0 41 -16q15 -17 15 -44q0 -31 -32 -56q-32 -24 -103 -24q-24 0 -45 4t-39 11l-114 -164h300q9 0 14 -5t5 -13v-21q0 -7 -5 -13q-5 -5 -14 -5h-375q-8 0 -13 4
q-5 5 -5 12l1 8q0 7 7 18q1 1 20 28l42 61l56 80l27 37q-25 17 -40 34q-16 17 -21 27q-5 8 -5 14q-1 6 5 10q4 4 14 12q5 4 11 3t12 -9q2 -3 15 -19q13 -15 37 -31l156 223v4h-292q-8 0 -13 6q-4 5 -4 13v20q0 8 4 13q5 5 13 5h371q11 0 17 -8q2 -5 2 -9q0 -5 -3 -10z" />
    <glyph glyph-name="braceleft" unicode="{" horiz-adv-x="522" 
d="M524 900q-21 -7 -42 2q-21 8 -30 35q-2 6 -2 12t2 12h-1h-1q-96 -19 -152 -89q-57 -70 -57 -202v-228q0 -49 -22 -81t-43 -49q-12 -10 -21 -15t-12 -7v-1q4 -2 28 -17t44 -46q11 -17 18 -39q8 -22 8 -49v-234q0 -147 70 -217q70 -71 185 -79q6 -2 10 -6t4 -12v-17
q0 -7 -6 -12t-14 -5q-73 0 -143 30q-71 29 -116 102q-24 39 -38 93q-14 53 -14 122v235q0 45 -20 71q-19 25 -42 38q-12 7 -24 12l-19 7q-6 2 -9 4q-4 2 -4 9v23q0 6 4 8q3 2 9 4l19 7q12 5 24 12q23 13 42 39q20 25 20 70v230q0 160 68 238q69 78 159 99v0v0q42 14 72 14
q19 0 33 -5q38 -14 48 -43q4 -13 4 -24q0 -12 -5 -22q-9 -21 -34 -29z" />
    <glyph glyph-name="bar" unicode="|" horiz-adv-x="454" 
d="M205 1090q0 9 5 14q6 5 13 5h9q8 0 12 -5q5 -5 5 -14v-904v-579q0 -8 -5 -13q-6 -5 -13 -5h-8q-7 0 -13 5q-5 5 -5 13v734v749z" />
    <glyph glyph-name="braceright" unicode="}" horiz-adv-x="516" 
d="M454 302v-23q0 -7 -3 -9t-10 -4l-19 -7q-11 -5 -24 -12q-22 -13 -42 -38q-19 -26 -19 -71v-235q0 -160 -68 -237q-68 -78 -157 -100q-39 -12 -68 -12q-20 0 -34 5q-37 13 -47 43q-4 12 -4 23q0 12 5 23q9 20 33 28q22 7 43 -1q21 -9 30 -35q2 -7 2 -12l-2 -12q1 -1 2 0h3
q91 20 146 90q54 69 54 198v234q0 26 7 48q7 21 18 38q19 31 43 46q24 16 29 19v1q-4 2 -27 18q-24 15 -45 47q-10 16 -18 38q-7 22 -7 49v228q0 148 -70 218t-185 79q-7 1 -11 5q-4 5 -4 12v17q0 8 7 13q6 5 13 5q73 0 144 -30t116 -103q24 -39 38 -92t14 -122v-230
q0 -24 6 -42t16 -32q18 -25 43 -37t39 -16q7 -3 10 -5t3 -8z" />
    <glyph glyph-name="asciitilde" unicode="~" horiz-adv-x="706" 
d="M654 426q-20 -29 -65 -69t-110 -40q-51 0 -86 26q-35 25 -61 50q-20 21 -49 43t-68 22q-23 0 -43 -8q-19 -8 -34 -20q-30 -22 -46 -49t-21 -34t-11 -8q-7 -1 -14 4l-19 14q-5 5 -6 11q-1 1 -1 2q0 5 4 10l22 34q21 34 62 64q21 16 48 27q27 12 59 12q50 0 88 -26
q37 -25 62 -52q19 -19 49 -42q29 -22 65 -22q42 0 71 22q30 23 48 47q3 4 5 9l4 8q-6 1 -11 4q-6 2 -10 7q-21 19 -19 42t17 39q18 17 39 18h2q22 -1 42 -20q18 -18 18 -50v-1q0 -32 -31 -74z" />
    <glyph glyph-name="exclamdown" unicode="&#xa1;" horiz-adv-x="319" 
d="M121 525q0 24 17 41q16 17 41 17q23 0 41 -17t18 -41t-18 -41q-18 -16 -41 -16q-25 0 -41 16q-17 17 -17 41zM136 -409h3h3v166l12 408q0 7 7 12q6 6 12 6h12q7 0 13 -6q5 -5 5 -12l15 -407v-149v-13v-1v-11v-1t-1 -3v-2q-4 -50 -24 -74q-21 -24 -47 -26h-6q-23 0 -39 12
q-17 14 -19 40v4q0 20 12 37q14 18 42 20z" />
    <glyph glyph-name="cent" unicode="&#xa2;" horiz-adv-x="601" 
d="M31 286q0 84 40 151t104 106q35 21 74 33q40 11 83 11q12 0 23 -1t21 -3l15 57q2 8 9 10q4 2 10 2h4q2 -1 7 -2q7 -1 11 -8q4 -6 2 -15q-5 -18 -14 -54q49 -14 81 -38q33 -24 43 -38q6 -7 5 -14t-8 -12l-15 -15q-11 -8 -17 -5t-12 10q-5 5 -30 23t-63 28l-125 -463
q13 -2 26 -3t26 -1q28 0 51 5q24 6 44 14q35 15 57 35q21 20 30 27q7 9 14 9q7 1 13 -6q4 -3 12 -10q5 -5 7 -11q1 -3 1 -5q0 -4 -3 -8q-10 -17 -40 -43q-29 -26 -74 -45q-24 -10 -52 -16q-28 -7 -59 -7q-18 0 -36 2q-18 1 -34 6l-33 -129q-2 -8 -9 -11q-5 -1 -10 -1h-4
q-3 1 -7 1q-8 2 -12 8q-3 6 -1 14l33 131q-82 32 -135 107t-53 174zM359 522q-6 2 -13 2q-6 1 -14 1q-98 0 -167 -68q-70 -68 -70 -170q0 -77 40 -136t101 -86z" />
    <glyph glyph-name="sterling" unicode="&#xa3;" horiz-adv-x="751" 
d="M661 833q-13 -23 -34 -31q-22 -7 -44 6q-20 11 -28 32t6 46q2 4 5 7q3 4 7 6q-26 20 -71 40q-46 21 -107 21q-92 0 -159 -63t-67 -168q0 -75 19 -140q18 -65 27 -109h290q10 0 14 -7q5 -6 5 -14v-5q0 -8 -5 -13q-5 -6 -14 -6h-278q4 -26 6 -56q2 -31 2 -60
q-1 -64 -12 -127q-12 -64 -41 -131h431q11 0 14 -7q3 -6 3 -13v-22q0 -6 -5 -12q-5 -5 -12 -5h-491q-7 0 -13 6q-5 6 -4 14v13q34 77 53 156q18 79 16 128q0 36 -4 64q-3 27 -8 52h-61q-9 0 -14 7q-5 6 -5 15v5q0 7 5 12q6 6 14 6h51q-11 46 -28 109q-18 64 -18 142
q0 45 12 86q12 40 33 73q39 61 104 96q66 34 143 34q68 0 123 -22q54 -21 88 -46q1 -1 3 -2l2 -2q1 0 2 -1l2 -2q2 -2 4 -3q2 -2 4 -3l2 -2l1 -1l2 -2q2 -1 3 -2q5 -5 8 -9l7 -7v-1v0q17 -23 19 -44q1 -4 1 -7q0 -17 -8 -31z" />
    <glyph glyph-name="currency" unicode="&#xa4;" 
d="M49 127q-8 6 -7 13t4 10l76 76q-38 50 -37 113q1 64 37 113l-76 74q-3 4 -4 12v1q0 7 7 13q5 5 14 16q7 6 14 6l1 -1q7 0 13 -2l73 -76q51 38 113 37t112 -39l76 76q3 3 11 4q8 0 15 -8l16 -13q5 -8 5 -14v-1q-1 -7 -5 -12l-74 -74q37 -49 37 -112t-37 -111l74 -73
q4 -7 3 -14q0 -7 -8 -14q-4 -5 -14 -16q-8 -6 -15 -5t-11 4l-73 73q-50 -36 -113 -37q-63 0 -112 37l-73 -76q-5 -3 -12 -3h-1q-7 1 -15 6q-4 6 -14 17zM376 241q40 39 40 97t-40 98q-39 40 -96 40h-2q-57 0 -97 -40t-40 -98t40 -97t97 -40h2q57 0 96 40z" />
    <glyph glyph-name="yen" unicode="&#xa5;" horiz-adv-x="896" 
d="M178 217v8q0 8 5 13q4 6 13 6h215v126h-215q-8 0 -13 5t-5 12v9q0 7 5 13q4 6 13 6h215v73l-366 495q-4 5 -4 10q0 3 1 5q4 6 14 6h44q5 0 10 -2t8 -6l327 -448l333 448q3 4 8 6t11 2h43q11 0 14 -6q1 -2 1 -5q0 -5 -4 -10l-373 -494v-74h215q9 0 13 -6q5 -6 5 -13v-9
q0 -7 -5 -12t-13 -5h-215v-126h215q9 0 13 -6q5 -5 5 -13v-8q0 -8 -5 -13t-13 -5h-215v-180q0 -8 -5 -13q-6 -6 -13 -6h-32q-7 0 -12 6q-5 5 -5 13v180h-215q-8 0 -13 5t-5 13z" />
    <glyph glyph-name="brokenbar" unicode="&#xa6;" 
d="M255 747v241v254q0 8 6 13q5 5 13 5h8q8 0 13 -5t5 -13v-331v-164q0 -8 -6 -13q-6 -6 -13 -6h-7q-8 0 -13 6q-6 5 -6 13zM274 273h8q8 0 13 -5q5 -6 5 -13v-331v-166q0 -7 -6 -12t-13 -5h-7q-8 0 -13 5q-6 5 -6 12v242v255q0 7 6 13q5 5 13 5z" />
    <glyph glyph-name="section" unicode="&#xa7;" horiz-adv-x="784" 
d="M598 102q12 -9 36 -34q24 -24 42 -62q10 -21 16 -45q7 -25 7 -54q0 -36 -13 -68q-13 -33 -35 -59q-41 -51 -110 -80q-68 -29 -146 -29q-80 0 -142 24q-63 24 -101 49q-21 14 -35 25q-13 10 -18 15t-9 12t5 18l18 23q6 6 13 8q7 1 15 -7q6 -6 39 -32t85 -48q28 -12 61 -19
q33 -8 70 -8q30 0 60 6t57 18q49 21 82 60t33 91q0 88 -72 141q-71 52 -197 94q-121 40 -199 102t-78 172q0 67 37 111t56 61l-32 33t-39 60q-9 19 -15 43q-6 23 -6 50q0 52 29 109q29 56 94 93q35 20 81 32q47 12 105 12q77 0 136 -22t87 -38v0v0q3 -2 5 -3t3 -2
q57 -33 72 -68q7 -18 7 -33q0 -16 -7 -29q-13 -24 -34 -31t-44 5q-20 11 -28 32t5 46q2 3 5 6q2 3 5 5q-1 1 -2 1l-2 2q-2 1 -12 7q-9 6 -24 14q-29 15 -75 31q-45 16 -97 16q-47 0 -84 -8q-36 -9 -63 -24q-51 -27 -74 -70q-22 -42 -22 -83q0 -82 65 -133q64 -50 171 -83
q141 -47 228 -106t87 -172q0 -23 -7 -44q-6 -21 -17 -40q-19 -34 -43 -58zM628 274q0 86 -72 134q-71 47 -197 89q-39 10 -74 25q-35 14 -61 33q-17 -16 -46 -49t-29 -88q0 -86 63 -132q64 -45 167 -80q45 -14 87 -32q41 -17 79 -39q14 13 49 49q34 36 34 90z" />
    <glyph glyph-name="dieresis" unicode="&#xa8;" 
d="M108 1191q0 21 14 36q14 14 34 14q22 0 36 -14q13 -15 13 -36q0 -20 -13 -34q-14 -14 -36 -14q-20 0 -34 14t-14 34zM383 1191q0 21 14 36q13 14 33 14q22 0 36 -14q15 -15 15 -36q0 -20 -15 -34q-14 -14 -36 -14q-20 0 -33 14q-14 14 -14 34z" />
    <glyph glyph-name="copyright" unicode="&#xa9;" horiz-adv-x="1116" 
d="M1075 487q0 -75 -20 -144q-21 -69 -58 -128q-69 -110 -185 -177t-255 -67q-75 0 -144 20t-128 57q-110 68 -177 184t-67 255q0 138 67 254t177 185q59 37 128 57q69 21 144 21t144 -21q69 -20 128 -57q111 -69 179 -185q67 -116 67 -254zM1018 487q0 124 -60 227
t-158 163q-53 33 -115 51q-61 18 -128 18q-123 0 -227 -60q-103 -59 -164 -157q-33 -53 -51 -114t-18 -128q0 -124 60 -227t158 -164q53 -33 114 -51q62 -19 128 -19q67 0 129 19q61 18 114 51q98 61 158 164t60 227zM775 612q-9 -25 -29 -35t-44 -1q-22 8 -33 28t-1 46
q2 6 6 10q4 5 9 9q-2 1 -4 3q-3 2 -5 4q-24 12 -50 18q-27 5 -52 5q-90 0 -150 -62q-61 -63 -61 -151q0 -89 61 -151q60 -62 150 -62q34 0 67 11q32 11 62 34q7 5 14 5t13 -8q4 -6 13 -17q4 -7 4 -13t-5 -12q-37 -33 -80 -47q-42 -14 -90 -14q-73 0 -134 35t-97 94
q-20 31 -30 67q-11 37 -11 76q0 40 11 77q10 36 30 67q36 59 97 94t134 35q36 0 73 -9t70 -29q44 -24 58 -53q8 -17 8 -33q0 -10 -4 -21zM1075 487q0 -75 -20 -144q-21 -69 -58 -128q-69 -110 -185 -177t-255 -67q-75 0 -144 20t-128 57q-110 68 -177 184t-67 255
q0 138 67 254t177 185q59 37 128 57q69 21 144 21t144 -21q69 -20 128 -57q111 -69 179 -185q67 -116 67 -254zM1018 487q0 124 -60 227t-158 163q-53 33 -115 51q-61 18 -128 18q-123 0 -227 -60q-103 -59 -164 -157q-33 -53 -51 -114t-18 -128q0 -124 60 -227t158 -164
q53 -33 114 -51q62 -19 128 -19q67 0 129 19q61 18 114 51q98 61 158 164t60 227zM775 612q-9 -25 -29 -35t-44 -1q-22 8 -33 28t-1 46q2 6 6 10q4 5 9 9q-2 1 -4 3q-3 2 -5 4q-24 12 -50 18q-27 5 -52 5q-90 0 -150 -62q-61 -63 -61 -151q0 -89 61 -151q60 -62 150 -62
q34 0 67 11q32 11 62 34q7 5 14 5t13 -8q4 -6 13 -17q4 -7 4 -13t-5 -12q-37 -33 -80 -47q-42 -14 -90 -14q-73 0 -134 35t-97 94q-20 31 -30 67q-11 37 -11 76q0 40 11 77q10 36 30 67q36 59 97 94t134 35q36 0 73 -9t70 -29q44 -24 58 -53q8 -17 8 -33q0 -10 -4 -21z" />
    <glyph glyph-name="ordfeminine" unicode="&#xaa;" horiz-adv-x="396" 
d="M31 718q0 60 46 100q47 39 129 39q33 0 62 -6q30 -6 38 -10q0 69 -14 100t-72 31q-52 0 -84 -13l-39 -16q-7 -2 -11 1q-4 2 -5 6q-2 7 -6 19q-2 6 1 11q2 4 6 6q3 1 39 17q37 15 102 15q34 0 58 -8q23 -7 37 -20q27 -26 32 -69q5 -44 5 -98v-221q0 -7 -5 -11q-4 -4 -9 -4
h-16q-7 0 -10 3t-5 9q-1 11 -4 33q-20 -17 -55 -36q-36 -19 -84 -19q-58 0 -97 38t-39 103zM305 683v115q-12 5 -39 12q-28 8 -63 8q-56 0 -92 -28q-36 -29 -36 -71q0 -44 28 -70q27 -27 68 -27q46 0 82 21q37 21 52 40z" />
    <glyph glyph-name="guillemotleft" unicode="&#xab;" horiz-adv-x="528" 
d="M45 458q-4 4 -4 11v1q1 7 4 12l155 221q7 11 13 12q5 1 10 1h23q8 0 11 -8v-4q1 -6 -4 -14l-135 -220l135 -225q6 -11 4 -18q-3 -8 -11 -8h-23q-5 0 -10 1q-6 2 -13 12zM274 482l155 221q8 11 13 12q6 1 10 1h23q9 0 11 -8q1 -2 1 -4q0 -6 -5 -14l-135 -220l135 -225
q7 -11 4 -18q-2 -8 -11 -8h-23q-4 0 -10 1q-5 2 -13 12l-155 226q-4 4 -4 11l1 1q0 7 3 12z" />
    <glyph glyph-name="logicalnot" unicode="&#xac;" horiz-adv-x="670" 
d="M41 488v22q0 7 5 13q6 5 13 5h552q8 0 13 -5q5 -6 5 -13v-287q0 -8 -6 -12q-5 -5 -13 -5h-22q-8 0 -13 5q-6 4 -6 12v247h-510q-7 0 -13 5q-5 6 -5 13z" />
    <glyph glyph-name="" unicode="&#xad;" 
d="M104 351v16q0 8 5 13t12 5h324q8 0 13 -5q6 -5 6 -13v-16q0 -8 -6 -13q-5 -6 -13 -6h-324q-7 0 -12 6q-5 5 -5 13z" />
    <glyph glyph-name="registered" unicode="&#xae;" horiz-adv-x="1106" 
d="M557 1001q75 0 144 -21q69 -20 128 -57q111 -68 179 -184q67 -116 67 -255q0 -75 -20 -144q-21 -69 -58 -128q-69 -110 -185 -177t-255 -67t-254 67q-116 67 -185 177q-36 59 -57 128q-20 69 -20 144q0 139 67 255q67 115 177 184q59 37 128 57q69 21 144 21zM557 24
q124 0 227 60q104 60 165 158q33 53 51 114q18 62 18 128q0 124 -60 227t-158 164q-53 32 -115 50q-61 18 -128 18q-66 0 -128 -18q-61 -18 -114 -50q-98 -61 -158 -164t-60 -227q0 -66 18 -128q18 -61 51 -114q61 -98 164 -158q104 -60 227 -60zM374 733q0 7 5 13q4 5 12 5
h209q69 0 126 -39t57 -123q0 -77 -46 -115q-46 -37 -91 -46l101 -183q4 -8 1 -15t-13 -7h-33q-5 0 -11 4t-9 11l-96 186h-10h-10h-135v-184q0 -8 -4 -13q-3 -5 -13 -5h-23q-8 0 -12 5q-5 6 -5 13v493v0zM600 477q49 0 86 30q38 29 38 82q0 63 -42 87t-99 24h-152v-223h169z
" />
    <glyph glyph-name="macron" unicode="&#xaf;" 
d="M102 858v16q0 8 5 13t13 5h324q7 0 13 -5q5 -5 5 -13v-16q0 -8 -5 -13q-6 -6 -13 -6h-324q-8 0 -13 6q-5 5 -5 13z" />
    <glyph glyph-name="degree" unicode="&#xb0;" 
d="M101 788q0 107 46 168t129 61q84 0 130 -61t46 -168q0 -104 -46 -164q-46 -61 -130 -61q-83 0 -129 61q-46 60 -46 164zM401 788q0 86 -33 134q-33 49 -92 49q-58 0 -90 -49q-33 -48 -33 -134q0 -83 33 -130q33 -48 90 -48q59 0 92 48q33 47 33 130z" />
    <glyph glyph-name="plusminus" unicode="&#xb1;" horiz-adv-x="752" 
d="M346 548h-245q-8 0 -14 6q-5 5 -5 13v22q0 7 5 13q6 5 14 5h245v241q0 8 5 12q6 5 13 5h23q8 0 13 -5q6 -4 6 -12v-241h247q7 0 12 -5q5 -6 5 -13v-22q0 -8 -5 -13q-5 -6 -12 -6h-247v-180q0 -8 -6 -13q-5 -6 -13 -6h-23q-7 0 -13 6q-5 5 -5 13v180zM82 147q0 7 5 13
q6 5 14 5h552q7 0 12 -5q5 -6 5 -13v-22q0 -7 -5 -13q-5 -5 -12 -5h-552q-8 0 -14 5q-5 6 -5 13v22z" />
    <glyph glyph-name="twosuperior" unicode="&#xb2;" 
d="M127 732v14l200 186q24 22 37 45q13 24 14 49q0 32 -26 59t-77 27q-40 0 -65 -19l-33 -28q-3 -5 -7 -4q-5 1 -7 3q-6 6 -19 17q-2 3 -3 6q-1 4 2 9l5 5q4 5 12 13q16 14 46 30t73 16q74 0 113 -39q39 -38 39 -90q0 -34 -18 -66q-17 -32 -47 -60l-154 -139h205q4 0 7 -3
q3 -2 3 -8v-22q0 -4 -2 -8q-3 -3 -8 -3h-277h-2q-5 0 -8 3t-3 7z" />
    <glyph glyph-name="threesuperior" unicode="&#xb3;" 
d="M131 766q-3 3 -4 7v1q0 4 4 7q5 5 16 15q4 5 9 5t9 -5q8 -7 34 -27q26 -19 81 -19q48 0 79 24q31 23 31 58q0 32 -28 57t-87 25h-65q-6 0 -9 5q-2 4 -2 9v18q0 5 3 8t8 3h65t74 20q30 19 30 59q0 35 -28 57q-28 21 -69 21q-48 0 -72 -19l-30 -24q-3 -3 -7 -4t-7 3l-18 15
q-5 5 -5 9q0 3 4 6l4 5q5 5 14 12q16 13 47 27q31 15 74 15q64 0 105 -31q42 -32 42 -87q0 -35 -24 -63t-51 -40l22 -10t41 -32q10 -13 18 -29q7 -17 7 -38q0 -53 -46 -88q-45 -35 -118 -35q-66 0 -104 24q-37 23 -47 36z" />
    <glyph glyph-name="acute" unicode="&#xb4;" horiz-adv-x="624" 
d="M180 826q0 7 5 11t14 4q4 0 27 1q24 0 54 12q16 7 33 18q17 10 33 27q10 12 17 24t10 24q-6 0 -11 2q-6 2 -11 6q-22 17 -23 40t13 40q16 21 38 23h4q20 0 40 -15q24 -19 24 -60q0 -40 -44 -96q-18 -24 -39 -40q-21 -17 -42 -28q-39 -20 -73 -24q-23 -3 -37 -3
q-7 0 -12 1q-9 1 -14 4q-5 4 -6 11v18z" />
    <glyph glyph-name="mu" unicode="&#xb5;" 
d="M119 -413q0 -8 -7 -13q-6 -5 -14 -5h-24q-8 0 -13 5q-6 6 -6 13v364v604q0 8 6 13q5 5 13 5h25q8 0 13 -5q6 -5 6 -13v-308q0 -100 44 -151q44 -50 127 -50q31 0 57 8q26 7 48 19q39 21 61 45q21 25 23 28v409q0 8 5 13t14 5h26q8 0 13 -5q6 -5 6 -13v-537q0 -7 -6 -13
q-5 -5 -13 -5h-17q-9 0 -12 5q-4 5 -6 12l-6 57q-4 -6 -13 -15t-22 -19q-25 -19 -66 -36t-96 -17q-57 0 -102 22t-65 52v-474h1z" />
    <glyph glyph-name="paragraph" unicode="&#xb6;" horiz-adv-x="1058" 
d="M1018 932v-5q0 -23 -13 -39q-14 -18 -39 -19q-23 -2 -41 12q-18 13 -20 41q-1 7 1 12q1 6 4 11q-5 2 -11 3l-12 2v0h-1h-21h-5q-2 -1 -5 -1h1v1h-51v-1362q0 -7 -6 -13q-6 -5 -13 -5h-16q-6 0 -12 4q-6 5 -6 14v1362h-252v-1362q0 -7 -5 -13q-6 -5 -13 -5h-16q-6 0 -13 4
q-6 5 -6 14v818h-103q-83 0 -146 41t-98 104q-19 35 -29 73q-10 39 -10 79q0 43 11 84q11 40 31 74q37 64 100 104q63 39 141 39h542h2h1q65 2 96 -20t33 -52z" />
    <glyph glyph-name="periodcentered" unicode="&#xb7;" horiz-adv-x="629" 
d="M255 577q0 24 17 41q18 17 42 17t41 -17q16 -17 16 -41q0 -23 -16 -41q-17 -17 -41 -17t-42 17q-17 18 -17 41z" />
    <glyph glyph-name="cedilla" unicode="&#xb8;" 
d="M277 0v-77q64 -8 109 -42q44 -34 44 -98q0 -57 -40 -98t-101 -41q-41 0 -72 17q-30 16 -39 32q-5 7 -5 13v2q1 6 6 11l14 11q5 4 11 3t12 -7q7 -8 25 -19q17 -11 48 -11q39 0 62 25t23 61q0 52 -43 72t-89 25q-10 3 -13 8q-4 5 -4 11v102h34h18z" />
    <glyph glyph-name="onesuperior" unicode="&#xb9;" 
d="M272 733v346l-68 -40q-4 -2 -7 -1q-4 1 -6 4q-3 5 -8 15q-2 4 -2 7v1q1 3 6 7l106 75h17q5 0 10 -3q4 -2 4 -8v-188v-214q0 -5 -3 -8q-4 -3 -8 -3h-29h-2q-5 0 -7 2q-3 3 -3 8z" />
    <glyph glyph-name="ordmasculine" unicode="&#xba;" horiz-adv-x="423" 
d="M31 788q0 107 46 168t129 61q84 0 130 -61t46 -168q0 -104 -46 -164q-46 -61 -130 -61q-83 0 -129 61q-46 60 -46 164zM331 788q0 85 -33 134t-92 49q-58 0 -91 -49t-33 -134q0 -83 33 -130t91 -47q59 0 92 47t33 130z" />
    <glyph glyph-name="guillemotright" unicode="&#xbb;" horiz-adv-x="528" 
d="M46 246l134 225l-134 220q-5 8 -5 14q0 2 1 4q2 8 11 8h23q4 0 9 -1q6 -1 14 -12l155 -221q3 -5 3 -12v-1q0 -7 -3 -11l-155 -226q-8 -10 -14 -12q-5 -1 -9 -1h-23q-9 0 -11 8q-3 7 4 18zM410 471l-135 220q-5 8 -5 14q0 2 1 4q3 8 11 8h23q4 0 10 -1t13 -12l155 -221
q3 -5 4 -12v-1q0 -7 -4 -11l-155 -226q-7 -10 -13 -12q-6 -1 -10 -1h-23q-8 0 -11 8q-2 7 4 18z" />
    <glyph glyph-name="onequarter" unicode="&#xbc;" 
d="M28 589v346l-68 -40q-4 -2 -8 -1q-3 1 -5 4q-3 5 -8 15q-2 4 -2 7v1q0 3 6 7l104 75h18q5 0 9 -3q5 -2 5 -9v-401q0 -5 -4 -8q-3 -3 -7 -3h-29h-3q-3 0 -5 2q-3 3 -3 8zM530 996q3 5 8 6q6 1 10 1h21q9 0 13 -6q1 -2 1 -6t-2 -9l-551 -977q-3 -5 -9 -6t-10 -1h-21
q-9 0 -12 6q-2 2 -2 5q0 4 3 10zM323 123l271 300h20q6 0 10 -4q5 -4 5 -9v-265h55q6 0 9 -4q4 -4 4 -8v-22q0 -5 -4 -8q-3 -3 -9 -3h-56v-88q0 -5 -5 -9q-4 -4 -10 -4h-24q-5 0 -10 4q-4 4 -4 9v86h-239q-5 0 -9 4t-4 10v11zM576 147v186l-171 -186h171z" />
    <glyph glyph-name="onehalf" unicode="&#xbd;" 
d="M34 591v346l-68 -40q-4 -2 -7 -1q-4 1 -6 4l-8 14q-2 4 -2 8v0q1 4 6 8l104 75h18q5 0 10 -3q4 -3 4 -9v-401q0 -6 -3 -8q-4 -3 -8 -3h-29q-1 -1 -2 -1q-4 1 -6 3q-3 2 -3 8zM536 997q3 6 9 7q5 1 9 1h22q8 0 12 -6q2 -3 2 -6q0 -4 -3 -9l-551 -977q-3 -5 -9 -6t-9 -1
h-22q-8 0 -12 6q-2 2 -2 5q0 4 3 9zM432 25l200 186q24 22 37 46q13 23 14 48q0 32 -26 59t-77 27q-40 0 -65 -19q-24 -19 -32 -28q-4 -5 -8 -4t-7 3q-6 6 -18 17q-3 3 -4 6q-1 4 3 9l4 5t13 13q15 14 45 30t73 16q74 0 113 -38q39 -39 39 -91q0 -34 -17 -66
q-18 -32 -48 -60l-154 -139h205q5 0 8 -3q2 -2 2 -8v-23q0 -4 -2 -8q-2 -3 -8 -3h-276q-6 0 -10 4q-4 3 -4 7v14z" />
    <glyph glyph-name="threequarters" unicode="&#xbe;" 
d="M-155 623q-3 4 -3 8q-1 0 -1 1q0 3 4 7q6 5 16 15q4 5 9 5t9 -5l34 -27q26 -19 81 -19q48 0 79 23q31 24 31 59q0 32 -28 57t-87 25h-65q-7 0 -9 4q-2 5 -2 10v18q0 5 3 8t8 3h65q44 0 74 19q30 20 30 60q0 35 -28 56q-28 22 -69 22q-48 0 -72 -19q-25 -19 -30 -24
q-4 -3 -8 -4t-7 3l-18 15q-4 5 -4 9q0 3 3 7l4 5q5 5 14 12q16 13 47 27q31 15 74 15q64 0 106 -32q41 -31 41 -86q0 -35 -23 -63q-24 -28 -51 -40l21 -10q22 -10 41 -33q11 -12 18 -28q7 -17 7 -38q0 -53 -45 -88t-119 -35h-4q-63 0 -99 23q-37 23 -47 35zM534 996q3 6 8 6
q6 1 10 1h21q9 0 13 -5q1 -3 1 -6q0 -4 -2 -9l-550 -977q-3 -5 -9 -6t-10 -1h-21q-9 0 -12 5q-2 3 -2 6q0 4 3 9zM327 124l271 300h21q5 0 9 -4q5 -4 5 -10v-265h56q6 0 10 -3q3 -4 3 -8v-23q0 -4 -3 -7q-4 -4 -10 -4h-56v-87q0 -5 -5 -9q-4 -4 -9 -4h-25q-5 0 -10 4
q-4 4 -4 9v86h-240q-5 0 -9 4t-4 9v12zM580 147v187l-171 -187h171z" />
    <glyph glyph-name="questiondown" unicode="&#xbf;" 
d="M277 525q0 24 17 41q17 16 41 16t41 -16q17 -17 17 -41q0 -25 -17 -41t-41 -16t-41 16t-17 41zM61 -248q0 32 9 59t23 48q27 41 67 70l74 55q29 21 49 42q19 22 19 49v82q0 9 5 14q4 6 14 6h27q10 0 14 -7q3 -6 3 -13v-84q0 -36 -19 -64t-48 -52q-19 -16 -39 -30l-41 -30
q-37 -29 -64 -62q-28 -33 -28 -79q0 -55 46 -102q45 -47 130 -47q62 0 104 21q42 20 66 41q13 12 22 22q8 10 13 15q1 1 2 3t1 4q-6 1 -11 4q-5 2 -10 7q-20 19 -19 42q2 23 18 39q18 18 40 17q23 0 42 -19q19 -18 19 -50q0 -3 -1 -7q-2 -37 -43 -83q-11 -14 -40 -41
t-78 -47q-26 -11 -59 -18q-32 -7 -70 -7q-109 0 -173 57t-64 145z" />
    <glyph glyph-name="Agrave" unicode="&#xc0;" 
d="M330 1099q-1 -7 -6 -10q-5 -4 -14 -5q-6 -1 -16 -1q-3 0 -6 1q-14 0 -32 3q-34 7 -74 27q-41 20 -75 65q-44 56 -44 96t24 59q20 15 40 15h4q23 -2 38 -22q14 -18 13 -41q-1 -22 -23 -39q-5 -4 -11 -6q-5 -2 -11 -3q3 -11 10 -23t17 -24q30 -32 62 -43q32 -12 54 -15
q13 -1 21 -1h10q10 1 14 -4q5 -4 5 -10v-19zM653 -2h-37q-8 0 -13 5q-5 4 -8 8l-116 264h-390q-2 0 -5 -1t-5 -2q3 -5 4 -11q2 -6 2 -12q-2 -28 -20 -42t-40 -12q-26 1 -40 18q-14 18 -13 44q1 31 34 54q32 23 101 20h348l-245 578h-3l-391 -898q-2 -4 -7 -8q-5 -5 -13 -5
h-40q-7 0 -10 4q-2 2 -2 5q0 4 2 8l442 999q2 4 7 7t10 3h5q5 0 10 -2t8 -8l438 -999q1 -3 1 -7q0 -2 -1 -4q-1 -6 -13 -6z" />
    <glyph glyph-name="Aacute" unicode="&#xc1;" 
d="M99 1122q0 7 4 11q5 4 14 3q5 0 28 1t53 13q17 7 34 17q17 11 32 28q11 12 18 24t10 23q-6 1 -12 3q-5 2 -10 6q-23 17 -23 40q-1 22 12 40q16 21 39 22h3q21 0 40 -15q25 -19 25 -59t-44 -96q-18 -24 -39 -41q-21 -16 -42 -27q-39 -20 -73 -24q-23 -3 -37 -3h-13
q-8 2 -13 5q-6 3 -6 10v19zM679 0h-37q-8 0 -13 4q-5 5 -7 9l-116 264h-390q-3 -1 -6 -1q-2 -1 -5 -2q3 -5 5 -11t1 -12q-1 -28 -19 -42t-41 -13q-26 2 -40 19t-13 44q2 31 34 54t101 20h348l-245 578h-3l-390 -898q-2 -4 -8 -9q-5 -4 -12 -4h-40q-8 0 -11 4q-1 2 -1 5
q0 4 2 8l441 999q3 4 7 7q5 3 11 3h4q5 0 10 -2t9 -8l437 -999q1 -4 1 -7v-5q-2 -5 -14 -5z" />
    <glyph glyph-name="Acircumflex" unicode="&#xc2;" 
d="M49 1104q-4 5 -12 16q-3 3 -3 7q0 1 1 3q2 5 7 10l174 140q3 3 7 5t7 2h5t7 -2t7 -5l174 -140q5 -5 7 -10q1 -2 1 -3q0 -4 -3 -7q-4 -6 -13 -16q-3 -5 -8 -7q-5 -3 -13 4l-162 120l-161 -120q-6 -5 -11 -5q-1 0 -2 1q-5 2 -9 7zM679 0h-37q-8 0 -13 4q-5 5 -7 9l-116 264
h-390q-3 -1 -6 -1q-2 -1 -5 -2q3 -5 5 -11t1 -12q-1 -28 -19 -42t-41 -13q-26 2 -40 19t-13 44q2 31 34 54t101 20h348l-245 578h-3l-390 -898q-2 -4 -8 -9q-5 -4 -12 -4h-40q-8 0 -11 4q-1 2 -1 5q0 4 2 8l441 999q3 4 7 7q5 3 11 3h4q5 0 10 -2t9 -8l437 -999q1 -4 1 -7
v-5q-2 -5 -14 -5z" />
    <glyph glyph-name="Atilde" unicode="&#xc3;" 
d="M90 1154q-7 2 -9 8q-1 3 -1 6t1 6l8 19q5 13 12 27q15 27 42 52t72 25q50 0 71 -32l39 -61q10 -16 22 -27q12 -10 30 -10q40 0 57 32q18 33 25 52q2 8 8 11q7 3 13 -1q5 -1 16 -5q4 -2 7 -6q2 -3 2 -7v-6q-2 -6 -13 -36q-12 -30 -39 -55q-14 -14 -34 -23t-46 -9
q-27 0 -44 10q-18 11 -31 27q-23 29 -39 62t-49 33q-40 0 -58 -35q-17 -34 -23 -54q-3 -8 -8 -11q-6 -3 -14 1q-6 2 -17 7zM736 0h-38q-7 0 -12 4q-6 5 -8 9l-116 264h-390q-2 -1 -5 -1q-3 -1 -5 -2q3 -5 4 -11q2 -6 2 -12q-2 -28 -20 -42t-40 -13q-26 2 -40 19
q-15 17 -13 44q1 31 34 54q32 23 101 20h348l-246 578h-2l-391 -898q-2 -4 -7 -9q-5 -4 -13 -4h-40q-7 0 -10 4q-2 2 -2 5q0 4 2 8l442 999q2 4 7 7t10 3h4q6 0 11 -2t8 -8l438 -999q1 -4 1 -7q0 -2 -1 -5q-1 -5 -13 -5z" />
    <glyph glyph-name="Adieresis" unicode="&#xc4;" 
d="M108 1191q0 21 14 36q14 14 34 14q22 0 36 -14q13 -15 13 -36q0 -20 -13 -34q-14 -14 -36 -14q-20 0 -34 14t-14 34zM383 1191q0 21 14 36q13 14 33 14q22 0 36 -14q15 -15 15 -36q0 -20 -15 -34q-14 -14 -36 -14q-20 0 -33 14q-14 14 -14 34zM746 -1h-37q-8 0 -13 4
t-7 8l-117 264h-390q-2 0 -5 -1t-5 -1q3 -6 5 -12q1 -5 1 -12q-1 -28 -20 -41q-18 -14 -40 -13q-26 1 -40 19q-14 17 -13 44q1 31 34 53q32 23 101 20h348l-245 579h-3l-391 -899q-2 -4 -7 -8t-13 -4h-40q-7 0 -10 4q-2 2 -2 5t2 8l442 998q2 5 7 7q5 3 10 3h5q5 0 10 -1
q5 -2 8 -9l438 -998q1 -4 1 -7t-1 -5q-1 -5 -13 -5z" />
    <glyph glyph-name="Aring" unicode="&#xc5;" 
d="M439 1234q0 -64 -45 -108t-108 -44q-65 0 -108 44q-44 44 -44 108q0 65 44 109q43 45 108 45q63 0 108 -45q45 -44 45 -109zM392 1234q0 43 -32 75q-31 31 -74 31t-75 -31q-31 -32 -31 -75t31 -74q32 -32 75 -32t74 32q32 31 32 74zM734 -1h-38q-7 0 -12 4q-6 4 -8 8
l-116 264h-390q-3 0 -5 -1q-3 -1 -5 -1q3 -6 4 -12q2 -5 2 -12q-2 -28 -20 -41q-18 -14 -40 -13q-26 1 -40 19q-15 17 -13 44q1 31 33 53q33 23 102 20h348l-246 579h-3l-390 -899q-2 -4 -7 -8t-13 -4h-40q-8 0 -10 4q-2 2 -2 5t2 8l442 998q2 5 7 7q5 3 10 3h4q6 0 11 -1
q5 -2 8 -9l438 -998q1 -4 1 -7t-1 -5q-2 -5 -13 -5z" />
    <glyph glyph-name="AE" unicode="&#xc6;" horiz-adv-x="1274" 
d="M5 23l610 955q7 11 14 18t22 7h564q8 0 13 -6q6 -5 6 -13v-23q0 -7 -6 -13q-5 -5 -13 -5h-530v-398h461q8 0 13 -5q6 -6 6 -13v-25q0 -7 -5 -13q-4 -5 -14 -5h-461v-425h530q13 0 16 -6q3 -7 3 -14v-22q0 -7 -6 -13q-5 -5 -13 -5h-574q-8 0 -13 5q-6 6 -6 13v259h-381
l-167 -264q-5 -8 -11 -11q-6 -2 -12 -2h-40q-10 0 -11 7v2q0 7 5 15zM622 331v549l-348 -549h348z" />
    <glyph glyph-name="Ccedilla" unicode="&#xc7;" horiz-adv-x="985" 
d="M571 0v-77q65 -8 109 -42q45 -34 45 -98q0 -57 -40 -98t-101 -41q-42 0 -72 17q-30 16 -40 32q-4 7 -4 13v2q0 6 6 11l14 11q4 4 11 3q6 -1 12 -7q7 -8 24 -19q18 -11 49 -11q39 0 62 25t23 61q0 52 -43 72t-89 25q-10 3 -14 8q-3 5 -3 11v102h34h17zM917 790
q-12 -25 -33 -33t-44 3q-20 10 -29 31t3 46q2 4 5 8l6 6q-59 48 -131 75q-72 28 -154 28q-122 0 -223 -60q-100 -59 -159 -156q-31 -52 -48 -112q-18 -60 -18 -126q0 -64 18 -124q17 -60 48 -112q59 -96 159 -155t223 -59q92 0 165 33q73 34 138 87q6 6 12 6q6 1 11 -3
l24 -24q5 -4 5 -12q0 -7 -5 -12q-73 -71 -164 -106q-90 -34 -186 -34q-140 0 -257 67q-116 66 -185 175q-37 59 -57 129q-21 69 -21 144q0 76 21 145q20 69 57 129q69 110 186 177q116 67 256 67q110 0 194 -35q85 -35 154 -98l2 -2t1 -2q25 -24 31 -48q1 -8 1 -16
q0 -15 -6 -27z" />
    <glyph glyph-name="Egrave" unicode="&#xc8;" 
d="M330 1099q-1 -7 -6 -10q-5 -4 -14 -5q-6 -1 -16 -1q-3 0 -6 1q-14 0 -32 3q-34 7 -74 27q-41 20 -75 65q-44 56 -44 96t24 59q20 15 40 15h4q23 -2 38 -22q14 -18 13 -41q-1 -22 -23 -39q-5 -4 -11 -6q-5 -2 -11 -3q3 -11 10 -23t17 -24q30 -32 62 -43q32 -12 54 -15
q13 -1 21 -1h10q10 1 14 -4q5 -4 5 -10v-19zM-14 943v-396h455q7 0 13 -6t6 -13v-24q0 -8 -6 -14q-6 -5 -13 -5h-455v-425h436q-3 5 -4 11q-2 5 -1 11q1 28 19 42q19 14 41 13q26 -2 40 -19q13 -16 13 -40v-5q-2 -28 -29 -50q-28 -21 -86 -23v0h-479q-8 0 -13 6q-6 5 -6 13
v362v605q0 7 6 13q5 5 13 5h575q8 0 13 -5q6 -6 6 -13v-25q0 -7 -6 -13q-5 -5 -13 -5h-525z" />
    <glyph glyph-name="Eacute" unicode="&#xc9;" 
d="M99 1122q0 7 4 11q5 4 14 3q5 0 28 1t53 13q17 7 34 17q17 11 32 28q11 12 18 24t10 23q-6 1 -12 3q-5 2 -10 6q-23 17 -23 40q-1 22 12 40q16 21 39 22h3q21 0 40 -15q25 -19 25 -59t-44 -96q-18 -24 -39 -41q-21 -16 -42 -27q-39 -20 -73 -24q-23 -3 -37 -3h-13
q-8 2 -13 5q-6 3 -6 10v19zM-32 943v-396h455q8 0 13 -6q6 -6 6 -13v-24q0 -8 -6 -14q-5 -5 -13 -5h-455v-425h436q-2 5 -4 11q-1 5 -1 11q2 28 20 42t40 13q26 -2 40 -19q13 -16 13 -40v-5q-1 -28 -29 -50q-28 -21 -86 -23v0h-479q-7 0 -13 6q-5 5 -5 13v362v605q0 7 5 13
q6 5 13 5h576q7 0 13 -5q5 -6 5 -13v-25q0 -7 -5 -13q-6 -5 -13 -5h-526z" />
    <glyph glyph-name="Ecircumflex" unicode="&#xca;" 
d="M114 1104l-13 16q-2 3 -2 7v3q3 5 8 10l174 140q3 3 7 5t7 2h4q4 0 8 -2t7 -5l173 -140q6 -5 8 -10q1 -2 1 -3q0 -4 -3 -7q-4 -6 -13 -16q-3 -5 -8 -7q-5 -3 -13 4l-162 120l-161 -120q-6 -5 -11 -5q-1 0 -3 1q-4 2 -8 7zM60 943v-396h455q7 0 13 -6q5 -6 5 -13v-24
q0 -8 -5 -14q-6 -5 -13 -5h-455v-425h436q-3 5 -4 11q-2 5 -1 11q1 28 19 42t41 13q26 -2 40 -19q13 -16 13 -40q0 -2 -1 -5q-1 -28 -29 -50q-27 -21 -85 -23v0h-479q-8 0 -13 6q-6 5 -6 13v362v605q0 7 6 13q5 5 13 5h575q7 0 13 -5q6 -6 6 -13v-25q0 -7 -6 -13
q-6 -5 -13 -5h-525z" />
    <glyph glyph-name="Edieresis" unicode="&#xcb;" 
d="M108 1191q0 21 14 36q14 14 34 14q22 0 36 -14q13 -15 13 -36q0 -20 -13 -34q-14 -14 -36 -14q-20 0 -34 14t-14 34zM383 1191q0 21 14 36q13 14 33 14q22 0 36 -14q15 -15 15 -36q0 -20 -15 -34q-14 -14 -36 -14q-20 0 -33 14q-14 14 -14 34zM49 943v-396h455q8 0 13 -6
q6 -6 6 -13v-24q0 -8 -6 -14q-5 -5 -13 -5h-455v-425h436q-2 5 -4 11q-1 5 -1 11q1 28 20 42q18 14 40 13q26 -2 40 -19q13 -16 13 -40v-5q-2 -28 -29 -50q-28 -21 -86 -23v0h-479q-8 0 -13 6q-6 5 -6 13v362v605q0 7 6 13q5 5 13 5h575q8 0 13 -5q6 -6 6 -13v-25
q0 -7 -6 -13q-5 -5 -13 -5h-525z" />
    <glyph glyph-name="Igrave" unicode="&#xcc;" 
d="M258 984q0 8 6 13q5 6 13 6h31q8 0 14 -6q5 -5 5 -13v-644v-323q0 -8 -6 -13t-14 -5h-30q-8 0 -13 5q-6 6 -6 13v457v510zM330 1099q-1 -7 -6 -10q-5 -4 -14 -5q-6 -1 -16 -1q-3 0 -6 1q-14 0 -32 3q-34 7 -74 27q-41 20 -75 65q-44 56 -44 96t24 59q20 15 40 15h4
q23 -2 38 -22q14 -18 13 -41q-1 -22 -23 -39q-5 -4 -11 -6q-5 -2 -11 -3q3 -11 10 -23t17 -24q30 -32 62 -43q32 -12 54 -15q13 -1 21 -1h10q10 1 14 -4q5 -4 5 -10v-19z" />
    <glyph glyph-name="Iacute" unicode="&#xcd;" 
d="M99 1122q0 7 4 11q5 4 14 3q5 0 28 1t53 13q17 7 34 17q17 11 32 28q11 12 18 24t10 23q-6 1 -12 3q-5 2 -10 6q-23 17 -23 40q-1 22 12 40q16 21 39 22h3q21 0 40 -15q25 -19 25 -59t-44 -96q-18 -24 -39 -41q-21 -16 -42 -27q-39 -20 -73 -24q-23 -3 -37 -3h-13
q-8 2 -13 5q-6 3 -6 10v19zM105 986q0 7 5 13q6 5 13 5h32q7 0 13 -5q5 -6 5 -13v-535v-432q0 -9 -6 -14t-14 -5h-30q-7 0 -13 6q-5 5 -5 13v362v605z" />
    <glyph glyph-name="Icircumflex" unicode="&#xce;" 
d="M96 1104l-13 16q-3 3 -3 7q0 1 1 3q2 5 8 10l173 140q4 3 8 5t7 2h4t7 -2t7 -5l174 -140q5 -5 8 -10q1 -2 1 -3q0 -4 -3 -7q-4 -6 -13 -16q-3 -5 -8 -7q-5 -3 -14 4l-162 120l-160 -120q-7 -5 -11 -5q-2 0 -3 1q-5 2 -8 7zM249 984q0 8 6 13q5 6 13 6h32q7 0 13 -6
q5 -5 5 -13v-644v-323q0 -8 -6 -13t-14 -5h-30q-8 0 -13 5q-6 6 -6 13v457v510z" />
    <glyph glyph-name="Idieresis" unicode="&#xcf;" 
d="M108 1191q0 21 14 36q14 14 34 14q22 0 36 -14q13 -15 13 -36q0 -20 -13 -34q-14 -14 -36 -14q-20 0 -34 14t-14 34zM383 1191q0 21 14 36q13 14 33 14q22 0 36 -14q15 -15 15 -36q0 -20 -15 -34q-14 -14 -36 -14q-20 0 -33 14q-14 14 -14 34zM265 984q0 8 5 13q6 6 13 6
h32q7 0 13 -6q5 -5 5 -13v-589v-378q0 -8 -6 -13t-14 -5h-30q-7 0 -13 5q-5 6 -5 13v457v510z" />
    <glyph glyph-name="Eth" unicode="&#xd0;" 
d="M-69 477h-51q-7 0 -12 6t-5 13v7q0 8 5 13q5 6 12 6h51v465q0 7 4 13q5 5 13 5h304q73 0 140 -19q68 -20 126 -56q107 -66 173 -179q66 -112 66 -246q0 -137 -66 -249q-66 -113 -173 -180q-58 -35 -126 -55q-67 -20 -140 -20h-304q-8 0 -13 6q-4 5 -4 13v457zM240 63
q122 0 221 56q100 56 157 150q32 50 49 110t17 126q0 65 -17 124t-49 110q-57 93 -157 149q-99 56 -221 56h-242v-422h359q7 0 13 -6q5 -5 5 -13v-8q0 -8 -5 -13q-6 -5 -13 -5h-359v-414h242z" />
    <glyph glyph-name="Ntilde" unicode="&#xd1;" 
d="M90 1154q-7 2 -9 8q-1 3 -1 6t1 6l8 19q5 13 12 27q15 27 42 52t72 25q50 0 71 -32l39 -61q10 -16 22 -27q12 -10 30 -10q40 0 57 32q18 33 25 52q2 8 8 11q7 3 13 -1q5 -1 16 -5q4 -2 7 -6q2 -3 2 -7v-6q-2 -6 -13 -36q-12 -30 -39 -55q-14 -14 -34 -23t-46 -9
q-27 0 -44 10q-18 11 -31 27q-23 29 -39 62t-49 33q-40 0 -58 -35q-17 -34 -23 -54q-3 -8 -8 -11q-6 -3 -14 1q-6 2 -17 7zM686 889v-887q0 -9 -7 -14q-7 -4 -16 -4h-19l-5 5q-4 4 -26 32l-23 29l-33 42l-65 84l-92 120l-187 245l-263 348h-2v-872q0 -8 -5 -13q-6 -6 -13 -6
h-27q-8 0 -14 6q-5 5 -5 13v368v613q0 9 6 14q7 5 15 5h25l688 -897h2v0v772q-4 -1 -8 -1q-4 -1 -8 0q-28 3 -41 22q-12 19 -9 42q3 25 21 38t45 10q28 -3 47 -31q20 -28 19 -83v0z" />
    <glyph glyph-name="Ograve" unicode="&#xd2;" 
d="M330 1099q-1 -7 -6 -10q-5 -4 -14 -5q-6 -1 -16 -1q-3 0 -6 1q-14 0 -32 3q-34 7 -74 27q-41 20 -75 65q-44 56 -44 96t24 59q20 15 40 15h4q23 -2 38 -22q14 -18 13 -41q-1 -22 -23 -39q-5 -4 -11 -6q-5 -2 -11 -3q3 -11 10 -23t17 -24q30 -32 62 -43q32 -12 54 -15
q13 -1 21 -1h10q10 1 14 -4q5 -4 5 -10v-19zM182 1018q141 0 257 -67t184 -177q36 -60 57 -129q20 -69 20 -145q0 -140 -67 -255q-67 -116 -177 -183q-59 -37 -129 -57q-69 -20 -145 -20q-75 0 -144 20q-70 20 -129 57q-110 67 -177 182q-67 116 -67 256q0 76 21 145
q20 69 56 129q68 110 184 177t256 67zM182 49q66 0 126 17q61 18 113 50q97 59 156 161q60 101 60 223q0 66 -18 127t-50 113q-61 97 -163 156t-224 59q-66 0 -126 -18q-61 -17 -113 -50q-97 -60 -156 -162q-58 -102 -58 -225q0 -122 58 -223q59 -101 156 -161
q52 -32 112 -50q61 -17 127 -17z" />
    <glyph glyph-name="Oacute" unicode="&#xd3;" 
d="M99 1122q0 7 4 11q5 4 14 3q5 0 28 1t53 13q17 7 34 17q17 11 32 28q11 12 18 24t10 23q-6 1 -12 3q-5 2 -10 6q-23 17 -23 40q-1 22 12 40q16 21 39 22h3q21 0 40 -15q25 -19 25 -59t-44 -96q-18 -24 -39 -41q-21 -16 -42 -27q-39 -20 -73 -24q-23 -3 -37 -3h-13
q-8 2 -13 5q-6 3 -6 10v19zM236 1018q76 0 145 -20q70 -20 129 -57q110 -68 177 -184q67 -117 67 -257t-67 -255q-66 -116 -177 -183q-59 -37 -128 -57q-70 -20 -146 -20q-140 0 -255 67q-116 66 -184 175q-37 60 -57 129t-20 144q0 76 20 145t57 129q68 110 184 177
q115 67 255 67zM236 49q66 0 127 17q61 18 113 50q97 59 156 161q59 101 59 223q0 66 -18 127t-50 113q-60 97 -162 156t-225 59q-65 0 -126 -18q-61 -17 -113 -50q-96 -60 -155 -162t-59 -225q0 -122 59 -223t155 -161q52 -32 113 -50q60 -17 126 -17z" />
    <glyph glyph-name="Ocircumflex" unicode="&#xd4;" 
d="M105 1104l-13 16q-3 3 -3 7q0 1 1 3q2 5 8 10l173 140q4 3 8 5t7 2h4t7 -2t7 -5l174 -140q5 -5 8 -10q1 -2 1 -3q0 -4 -3 -7l-13 -16q-3 -5 -8 -7q-5 -3 -14 4l-162 120l-160 -120q-7 -5 -11 -5q-2 0 -3 1q-5 2 -8 7zM297 1018q76 0 145 -20q70 -20 129 -57
q111 -68 177 -184q67 -117 67 -257t-66 -255q-67 -116 -178 -183q-59 -37 -128 -57q-70 -20 -146 -20q-139 0 -255 67q-116 66 -184 175q-37 60 -57 129t-20 144q0 140 67 256q67 117 177 185q59 37 128 57t144 20zM297 49q66 0 127 17q61 18 113 50q97 59 156 161
q59 101 59 223q0 66 -18 127t-50 113q-60 97 -162 156t-225 59q-65 0 -126 -18q-60 -17 -113 -50q-96 -60 -155 -162t-59 -225q0 -122 59 -223t155 -161q52 -32 113 -50q60 -17 126 -17z" />
    <glyph glyph-name="Otilde" unicode="&#xd5;" 
d="M90 1154q-7 2 -9 8q-1 3 -1 6t1 6l8 19q5 13 12 27q15 27 42 52t72 25q50 0 71 -32l39 -61q10 -16 22 -27q12 -10 30 -10q40 0 57 32q18 33 25 52q2 8 8 11q7 3 13 -1q5 -1 16 -5q4 -2 7 -6q2 -3 2 -7v-6q-2 -6 -13 -36q-12 -30 -39 -55q-14 -14 -34 -23t-46 -9
q-27 0 -44 10q-18 11 -31 27q-23 29 -39 62t-49 33q-40 0 -58 -35q-17 -34 -23 -54q-3 -8 -8 -11q-6 -3 -14 1q-6 2 -17 7zM275 1018q76 0 145 -20t129 -57q110 -68 177 -184q67 -117 67 -257t-67 -255q-67 -116 -177 -183q-59 -37 -129 -57q-69 -20 -145 -20
q-140 0 -256 67q-115 66 -183 175q-37 60 -57 129t-20 144q0 76 20 145t57 129q68 110 183 177q116 67 256 67zM275 49q66 0 127 17q60 18 113 50q97 59 156 161q59 101 59 223q0 66 -18 127t-50 113q-61 97 -163 156t-224 59q-66 0 -126 -18q-61 -17 -113 -50
q-96 -60 -155 -162t-59 -225q0 -122 59 -223q58 -101 155 -161q52 -32 112 -50q61 -17 127 -17z" />
    <glyph glyph-name="Odieresis" unicode="&#xd6;" 
d="M108 1191q0 21 14 36q14 14 34 14q22 0 36 -14q13 -15 13 -36q0 -20 -13 -34q-14 -14 -36 -14q-20 0 -34 14t-14 34zM383 1191q0 21 14 36q13 14 33 14q22 0 36 -14q15 -15 15 -36q0 -20 -15 -34q-14 -14 -36 -14q-20 0 -33 14q-14 14 -14 34zM303 1018q75 0 145 -20
q69 -20 129 -57q110 -68 177 -184q67 -117 67 -257t-67 -255q-67 -116 -177 -183q-59 -37 -129 -57q-69 -20 -145 -20q-140 0 -256 67q-116 66 -184 175q-36 60 -56 129q-21 69 -21 144q0 76 21 145q20 69 56 129q68 110 184 177t256 67zM303 49q66 0 126 17q61 18 113 50
q97 59 156 161q60 101 60 223q0 66 -18 127t-50 113q-61 97 -163 156t-224 59q-66 0 -126 -18q-61 -17 -113 -50q-97 -60 -156 -162q-58 -102 -58 -225q0 -122 58 -223q59 -101 156 -161q52 -32 112 -50q61 -17 127 -17z" />
    <glyph glyph-name="multiply" unicode="&#xd7;" 
d="M256 294l-199 259q-7 7 -3 14q3 6 12 6h37q5 0 11 -3t10 -10l168 -222h1l170 222q4 7 10 10t12 3h37q8 0 11 -6q4 -7 -3 -14l-198 -258l208 -276q4 -5 4 -10q0 -2 -1 -4q-3 -6 -11 -6h-37q-5 0 -11 3t-11 10l-180 240h-1l-179 -240q-5 -6 -10 -9q-6 -3 -12 -3h-37
q-9 0 -12 6q-1 2 -1 5q0 4 4 9z" />
    <glyph glyph-name="Oslash" unicode="&#xd8;" 
d="M-215 65l90 89q-60 69 -95 157q-34 88 -34 189q0 75 20 144t57 129q68 110 183 177q116 67 257 67q103 0 194 -37t160 -103l95 92q4 5 11 5q8 0 13 -5l6 -6q5 -5 5 -13q0 -7 -5 -13l-94 -92q61 -69 97 -157q35 -89 35 -188q0 -141 -67 -256q-67 -116 -177 -183
q-59 -37 -129 -57q-69 -19 -144 -19q-105 0 -196 36t-160 101l-92 -89q-4 -5 -12 -5q-7 0 -12 5l-6 6q-6 5 -6 13q0 7 6 13zM572 832q-61 57 -141 90q-79 32 -168 32q-123 0 -225 -59q-101 -59 -161 -156q-32 -52 -50 -113t-18 -126q0 -88 30 -164q29 -77 82 -136zM263 48
q122 0 224 58q102 59 162 155q33 52 50 112q18 61 18 127q0 86 -30 163q-31 78 -84 138l-650 -633q60 -57 140 -89q79 -31 170 -31z" />
    <glyph glyph-name="Ugrave" unicode="&#xd9;" 
d="M330 1099q-1 -7 -6 -10q-5 -4 -14 -5q-6 -1 -16 -1q-3 0 -6 1q-14 0 -32 3q-34 7 -74 27q-41 20 -75 65q-44 56 -44 96t24 59q20 15 40 15h4q23 -2 38 -22q14 -18 13 -41q-1 -22 -23 -39q-5 -4 -11 -6q-5 -2 -11 -3q3 -11 10 -23t17 -24q30 -32 62 -43q32 -12 54 -15
q13 -1 21 -1h10q10 1 14 -4q5 -4 5 -10v-19zM583 866v-501q0 -58 -14 -110q-13 -51 -38 -95q-47 -81 -131 -128q-83 -47 -195 -47q-59 0 -111 14t-95 40q-79 49 -124 134q-44 85 -44 192v620q0 7 6 13q5 5 13 5h30q7 0 13 -5q5 -6 5 -13v-613q0 -139 82 -230t225 -91
q145 0 227 90q83 91 83 229v522q-3 -1 -6 -1q-3 -1 -7 0q-28 3 -40 22q-13 19 -10 42q3 25 22 38q14 11 34 11q5 0 11 -1q30 -4 50 -37q15 -25 15 -69q0 -14 -1 -31z" />
    <glyph glyph-name="Uacute" unicode="&#xda;" horiz-adv-x="835" 
d="M339 1122q0 7 5 11q4 4 14 3q4 0 27 1q24 1 54 13q16 7 33 17q17 11 33 28q10 12 17 24t10 23q-6 1 -12 3q-5 2 -10 6q-22 17 -23 40q-1 22 12 40q16 21 39 22h4q20 0 39 -15q25 -19 25 -59t-44 -96q-18 -24 -39 -41q-21 -16 -42 -27q-39 -20 -73 -24q-23 -3 -37 -3h-12
q-9 2 -14 5q-6 3 -6 10v19zM834 866v-501q0 -58 -14 -110q-13 -51 -38 -95q-47 -81 -131 -128q-83 -47 -195 -47q-110 0 -193 47q-84 48 -130 128q-25 44 -38 96q-13 51 -13 109v620q0 7 5 13q6 5 14 5h30q7 0 13 -5q5 -6 5 -13v-613q0 -139 82 -230t225 -91q145 0 227 90
q83 91 83 229v522q-3 -1 -6 -1q-3 -1 -7 0q-28 3 -40 22q-13 19 -10 42q3 25 22 38q14 11 34 11q5 0 11 -1q30 -4 50 -37q15 -25 15 -69q0 -14 -1 -31z" />
    <glyph glyph-name="Ucircumflex" unicode="&#xdb;" 
d="M109 1104q-5 5 -13 16q-3 3 -3 7q0 1 1 3q2 5 7 10l174 140q3 3 7 5t7 2h5t7 -2t7 -5l174 -140q5 -5 7 -10q1 -2 1 -3q0 -4 -3 -7q-4 -6 -13 -16q-3 -5 -8 -7q-5 -3 -13 4l-162 120l-161 -120q-6 -5 -11 -5q-1 0 -2 1q-5 2 -8 7zM666 866v-501q0 -58 -14 -110
q-13 -51 -38 -95q-47 -81 -131 -128q-83 -47 -195 -47q-59 0 -111 14t-95 40q-79 49 -123 134q-45 85 -45 192v620q0 7 6 13q5 5 13 5h30q7 0 13 -5q5 -6 5 -13v-613q0 -139 82 -230t225 -91q145 0 227 90q83 91 83 229v522q-3 -1 -6 -1q-3 -1 -7 0q-28 3 -40 22
q-13 19 -10 42q3 25 22 38q14 11 35 11q4 0 10 -1q30 -4 50 -37q15 -25 15 -69q0 -14 -1 -31z" />
    <glyph glyph-name="Udieresis" unicode="&#xdc;" 
d="M108 1191q0 21 14 36q14 14 34 14q22 0 36 -14q13 -15 13 -36q0 -20 -13 -34q-14 -14 -36 -14q-20 0 -34 14t-14 34zM383 1191q0 21 14 36q13 14 33 14q22 0 36 -14q15 -15 15 -36q0 -20 -15 -34q-14 -14 -36 -14q-20 0 -33 14q-14 14 -14 34zM662 866v-501
q0 -58 -13 -110q-13 -51 -39 -95q-46 -81 -130 -128t-195 -47t-194 47q-83 48 -129 128q-25 44 -38 96q-14 51 -14 109v620q0 7 6 13q6 5 13 5h30q8 0 13 -5q6 -6 6 -13v-613q0 -139 82 -230t225 -91q144 0 227 90q83 91 83 229v522q-3 -1 -7 -1q-3 -1 -6 0q-28 3 -41 22
q-12 19 -9 42q3 25 21 38q15 11 35 11q5 0 10 -1q30 -4 51 -37q15 -25 15 -69q0 -14 -2 -31z" />
    <glyph glyph-name="Yacute" unicode="&#xdd;" horiz-adv-x="841" 
d="M277 1122q0 7 5 11t14 3q5 0 28 1t53 13q16 7 33 17q17 11 33 28q11 12 18 24t10 23q-7 1 -12 3q-6 2 -11 6q-22 17 -23 40q-1 22 13 40q16 21 38 22h4q20 0 40 -15q25 -19 24 -59q0 -40 -43 -96q-19 -24 -40 -41q-21 -16 -41 -27q-40 -20 -74 -24q-22 -3 -37 -3h-12
q-9 2 -14 5t-5 10q0 6 -1 19zM768 873v-1l-290 -382v-471q0 -8 -5 -13q-6 -6 -13 -6q-14 0 -32 1q-17 1 -17 18v469l-366 495q-4 6 -4 10q0 3 1 5q4 7 14 7h44q5 0 10 -3q5 -2 8 -6l327 -446l271 363q-4 1 -7 3q-4 2 -7 5q-21 19 -21 42q1 23 16 39q18 19 40 20q23 0 42 -18
q21 -19 21 -53t-32 -78z" />
    <glyph glyph-name="Thorn" unicode="&#xde;" 
d="M0 987q0 7 6 13q5 5 13 5h30q7 0 13 -5q5 -6 5 -13v-159h260q47 0 90 -13t80 -36q69 -42 112 -114q42 -72 42 -157q0 -48 -12 -91q-13 -44 -36 -81q-43 -70 -116 -112q-72 -42 -158 -42h-262v-162q0 -8 -6 -13q-6 -6 -17 -6h-25q-8 0 -13 6q-6 5 -6 13v362v605zM324 247
q37 0 72 10q34 10 64 29q55 34 90 93q34 59 34 130q0 37 -11 71q-10 34 -29 62q-35 54 -93 86q-59 32 -128 32h-256v-513h257v0z" />
    <glyph glyph-name="germandbls" unicode="&#xdf;" horiz-adv-x="754" 
d="M82 589q0 214 78 322q79 108 228 108q32 0 64 -6t60 -19q53 -23 87 -71t34 -125q0 -35 -10 -67q-11 -31 -26 -60q-28 -53 -59 -94q-31 -42 -31 -72q0 -17 23 -39l56 -49q17 -15 35 -33q18 -17 34 -37q25 -31 41 -68q17 -38 17 -83q0 -72 -33 -118t-85 -68
q-27 -12 -58 -18t-63 -6q-83 0 -121 19q-37 18 -33 30l9 27q2 7 7 11q6 5 14 1q10 -6 46 -19t78 -13q71 0 123 39q52 38 52 115q0 38 -17 69q-18 32 -43 60q-30 34 -65 62q-35 29 -58 56q-13 15 -21 30q-7 14 -7 30q0 37 32 84q33 47 62 98q15 27 26 55q10 28 10 55
q0 86 -56 126q-57 41 -126 41q-118 0 -180 -94q-61 -93 -61 -279v-570q0 -9 -4 -14q-5 -5 -15 -5h-28q-8 0 -12 6t-4 13v214v356z" />
    <glyph glyph-name="agrave" unicode="&#xe0;" horiz-adv-x="559" 
d="M421 809q0 -7 -5 -10q-5 -4 -14 -5q-6 -1 -16 -1h-6q-15 1 -32 4q-34 6 -75 27q-40 20 -75 64q-43 56 -43 97q0 40 24 59q20 15 40 15h4q22 -2 38 -22q14 -18 13 -41t-23 -40q-5 -4 -11 -5q-5 -2 -12 -3q4 -11 10 -23q7 -12 18 -25q16 -16 33 -27t33 -17q30 -12 53 -13
q24 -1 28 -1q9 0 14 -4t5 -11q0 -6 -1 -18zM497 338v-319q0 -7 -5 -13q-6 -5 -13 -5h-18q-7 0 -11 4t-6 11l-6 52q-28 -26 -79 -54t-120 -28q-80 0 -134 51q-54 52 -54 140q0 83 64 138t177 55q50 0 91 -10q42 -11 54 -15q0 94 -21 142q-20 47 -105 47q-41 0 -74 -7
q-32 -7 -55 -15q-5 -2 -10 -5q-5 -2 -9 -5q5 -5 8 -9q3 -5 5 -12q6 -27 -7 -45q-13 -19 -35 -24q-25 -6 -44 6q-18 13 -25 39q-6 24 9 51q16 26 59 45q20 9 67 22t115 13q85 0 123 -30q38 -31 50 -85q6 -28 8 -63q1 -34 1 -72zM437 131v12v146q-14 6 -54 18q-39 12 -91 12
q-82 0 -132 -39q-50 -38 -50 -102q0 -62 39 -99q38 -37 97 -37q66 0 118 31q53 31 73 58v0z" />
    <glyph glyph-name="aacute" unicode="&#xe1;" horiz-adv-x="559" 
d="M142 826q0 7 5 11t14 4q4 0 28 1q23 0 53 12q16 7 33 18q17 10 33 27q11 12 17 24q7 12 11 24q-7 0 -12 2q-6 2 -11 6q-22 17 -23 40t13 40q16 21 38 23h4q20 0 40 -15q24 -19 24 -60q0 -40 -43 -96q-19 -24 -40 -40q-21 -17 -41 -28q-40 -20 -74 -24q-23 -3 -37 -3
q-7 0 -12 1q-9 1 -14 4q-5 4 -5 11q0 6 -1 18zM497 338v-319q0 -7 -5 -13q-6 -5 -13 -5h-18q-7 0 -11 4t-6 11l-6 52q-28 -26 -79 -54t-120 -28q-80 0 -134 51q-54 52 -54 140q0 83 64 138t177 55q50 0 91 -10q42 -11 54 -15q0 94 -21 142q-20 47 -105 47q-41 0 -74 -7
q-32 -7 -55 -15q-5 -2 -10 -5q-5 -2 -9 -5q5 -5 8 -9q3 -5 5 -12q6 -27 -7 -45q-13 -19 -35 -24q-25 -6 -44 6q-18 13 -25 39q-6 24 9 51q16 26 59 45q20 9 67 22t115 13q85 0 123 -30q38 -31 50 -85q6 -28 8 -63q1 -34 1 -72zM437 131v12v146q-14 6 -54 18q-39 12 -91 12
q-82 0 -132 -39q-50 -38 -50 -102q0 -62 39 -99q38 -37 97 -37q66 0 118 31q53 31 73 58v0z" />
    <glyph glyph-name="acircumflex" unicode="&#xe2;" horiz-adv-x="548" 
d="M82 790q-5 5 -13 16q-3 3 -3 7q0 1 1 3q2 5 8 10l173 140q3 3 7 5t8 2h4t7 -2t7 -5l174 -140q5 -5 7 -10q1 -2 1 -3q0 -4 -2 -7l-13 -16q-4 -5 -8 -7q-5 -3 -14 4l-162 120l-161 -120q-6 -5 -10 -5q-2 0 -3 1q-5 2 -8 7zM487 338v-319q0 -7 -6 -13q-5 -5 -13 -5h-17
q-7 0 -11 4t-6 11l-6 52q-28 -26 -79 -54t-120 -28q-80 0 -134 51q-54 52 -54 140q0 83 64 138t177 55q49 0 91 -10q42 -11 54 -15q0 94 -21 142q-21 47 -105 47q-41 0 -74 -7t-55 -15q-6 -2 -10 -5q-5 -2 -9 -5q4 -5 8 -9q3 -5 4 -12q7 -27 -6 -45q-13 -19 -35 -24
q-25 -6 -44 6q-19 13 -25 39q-6 24 9 51q15 26 59 45q20 9 67 22t115 13q85 0 123 -30q37 -31 49 -85q7 -28 8 -63q2 -34 2 -72zM427 131v12v146q-14 6 -54 18t-91 12q-82 0 -132 -39q-50 -38 -50 -102q0 -62 38 -99q39 -37 98 -37q66 0 118 31t73 58v0z" />
    <glyph glyph-name="atilde" unicode="&#xe3;" horiz-adv-x="548" 
d="M73 837q-7 2 -9 8q-1 3 -1 6t1 6q3 7 7 19q5 13 13 27q15 27 42 52q27 26 71 26q51 0 72 -33l39 -61q10 -16 22 -26q12 -11 30 -11q39 0 57 33q18 32 24 52q2 7 9 10q6 3 13 0q5 -2 16 -6q4 -2 7 -6q2 -3 2 -7q0 -2 -1 -6q-1 -5 -13 -35q-11 -30 -38 -56q-15 -14 -35 -23
t-46 -9t-44 11q-17 10 -30 26q-23 29 -39 62t-49 33q-41 0 -58 -34q-17 -35 -24 -55q-2 -8 -8 -10q-6 -3 -13 0q-6 2 -17 7zM487 338v-319q0 -7 -6 -13q-5 -5 -13 -5h-17q-7 0 -11 4t-6 11l-6 52q-28 -26 -79 -54t-120 -28q-80 0 -134 51q-54 52 -54 140q0 83 64 138t177 55
q49 0 91 -10q42 -11 54 -15q0 94 -21 142q-21 47 -105 47q-41 0 -74 -7t-55 -15q-6 -2 -10 -5q-5 -2 -9 -5q4 -5 8 -9q3 -5 4 -12q7 -27 -6 -45q-13 -19 -35 -24q-25 -6 -44 6q-19 13 -25 39q-6 24 9 51q15 26 59 45q20 9 67 22t115 13q85 0 123 -30q37 -31 49 -85
q7 -28 8 -63q2 -34 2 -72zM427 131v12v146q-14 6 -54 18t-91 12q-82 0 -132 -39q-50 -38 -50 -102q0 -62 38 -99q39 -37 98 -37q66 0 118 31t73 58v0z" />
    <glyph glyph-name="adieresis" unicode="&#xe4;" horiz-adv-x="548" 
d="M84 902q0 22 14 36q14 15 34 15q22 0 36 -15q13 -14 13 -36q0 -19 -13 -33q-14 -14 -36 -14q-20 0 -34 14t-14 33zM359 902q0 22 14 36q13 15 33 15q22 0 36 -15q15 -14 15 -36q0 -19 -15 -33q-14 -14 -36 -14q-20 0 -33 14q-14 14 -14 33zM487 338v-319q0 -7 -6 -13
q-5 -5 -13 -5h-17q-7 0 -11 4t-6 11l-6 52q-28 -26 -79 -54t-120 -28q-80 0 -134 51q-54 52 -54 140q0 83 64 138t177 55q49 0 91 -10q42 -11 54 -15q0 94 -21 142q-21 47 -105 47q-41 0 -74 -7t-55 -15q-6 -2 -10 -5q-5 -2 -9 -5q4 -5 8 -9q3 -5 4 -12q7 -27 -6 -45
q-13 -19 -35 -24q-25 -6 -44 6q-19 13 -25 39q-6 24 9 51q15 26 59 45q20 9 67 22t115 13q85 0 123 -30q37 -31 49 -85q7 -28 8 -63q2 -34 2 -72zM427 131v12v146q-14 6 -54 18t-91 12q-82 0 -132 -39q-50 -38 -50 -102q0 -62 38 -99q39 -37 98 -37q66 0 118 31t73 58v0z
" />
    <glyph glyph-name="aring" unicode="&#xe5;" horiz-adv-x="548" 
d="M123 868q0 65 45 109q44 45 109 45q63 0 107 -45q45 -44 45 -109q0 -64 -45 -108q-44 -44 -107 -44q-65 0 -109 44q-45 44 -45 108zM381 868q0 43 -31 75q-31 31 -73 31q-43 0 -76 -31q-32 -32 -32 -75t32 -74q33 -32 76 -32q42 0 73 32q31 31 31 74zM487 338v-319
q0 -7 -6 -13q-5 -5 -13 -5h-17q-7 0 -11 4t-6 11l-6 52q-28 -26 -79 -54t-120 -28q-80 0 -134 51q-54 52 -54 140q0 83 64 138t177 55q49 0 91 -10q42 -11 54 -15q0 94 -21 142q-21 47 -105 47q-41 0 -74 -7t-55 -15q-6 -2 -10 -5q-5 -2 -9 -5q4 -5 8 -9q3 -5 4 -12
q7 -27 -6 -45q-13 -19 -35 -24q-25 -6 -44 6q-19 13 -25 39q-6 24 9 51q15 26 59 45q20 9 67 22t115 13q85 0 123 -30q37 -31 49 -85q7 -28 8 -63q2 -34 2 -72zM427 131v12v146q-14 6 -54 18t-91 12q-82 0 -132 -39q-50 -38 -50 -102q0 -62 38 -99q39 -37 98 -37
q66 0 118 31t73 58v0z" />
    <glyph glyph-name="ae" unicode="&#xe6;" horiz-adv-x="969" 
d="M273 372q55 0 98 -7q43 -8 54 -12q0 96 -19 139q-20 43 -102 43q-75 0 -122 -17q-48 -18 -58 -21q-7 -3 -13 0q-6 4 -8 11l-6 23q-1 6 3 11q3 5 10 8l55 20q55 21 141 21q72 0 111 -21q38 -21 54 -63q37 39 86 62q50 22 111 22q113 0 186 -74q74 -74 74 -188
q0 -18 -3 -37t-19 -19h-425v-121q29 -47 79 -77q50 -29 112 -29q57 0 100 18q44 18 70 35q9 7 15 7q5 1 10 -7l15 -20q3 -4 2 -10q-2 -6 -8 -13q-22 -21 -81 -44q-60 -23 -127 -23t-119 25q-53 26 -91 72q-29 -34 -89 -66q-61 -31 -134 -31q-84 0 -139 52t-55 141
q0 83 62 136q63 54 170 54zM243 45q62 0 113 27q50 27 71 54v173q-8 2 -48 11q-40 10 -98 10q-79 0 -131 -38t-52 -101q0 -68 44 -102q43 -34 101 -34zM864 324q0 84 -49 147q-50 63 -147 63q-62 0 -111 -28q-48 -27 -76 -73v-31v-78h383z" />
    <glyph glyph-name="ccedilla" unicode="&#xe7;" horiz-adv-x="625" 
d="M346 0v-77q65 -8 109 -42q45 -34 45 -98q0 -57 -40 -98t-101 -41q-42 0 -72 17q-30 16 -40 32q-4 7 -4 13v2q0 6 6 11l14 11q4 4 11 3q6 -1 12 -7q7 -8 24 -19q18 -11 49 -11q39 0 62 25t23 61q0 52 -43 72t-89 25q-10 3 -14 8q-3 5 -3 11v102h34h17zM570 378
q-17 -21 -39 -25q-22 -3 -42 13q-18 14 -22 37q-4 22 13 44q4 4 8 7q5 3 10 5q0 1 -1 1v0q-11 12 -54 39t-111 27q-98 0 -167 -68q-70 -67 -70 -170q0 -104 70 -173t165 -69q53 0 89 17q37 17 59 36q12 10 20 18q8 9 12 14q7 8 14 9q6 0 13 -7q5 -4 16 -14q5 -5 7 -11
q1 -5 -3 -12q-6 -9 -17 -21t-28 -25q-30 -24 -76 -44t-104 -20q-43 0 -82 11q-40 11 -75 32q-64 39 -104 106t-40 152q0 45 12 86q12 40 34 75q40 64 108 102t147 38q76 0 128 -28q52 -27 75 -52q41 -40 47 -74q1 -8 1 -16q1 -23 -13 -40z" />
    <glyph glyph-name="egrave" unicode="&#xe8;" horiz-adv-x="624" 
d="M452 810q-1 -7 -6 -11q-5 -3 -14 -4q-5 -1 -12 -1q-14 0 -37 3q-34 4 -73 24q-21 11 -42 28q-21 16 -39 40q-44 56 -44 97q0 40 25 59q19 15 39 15h4q23 -2 38 -22q14 -18 13 -41t-23 -40q-5 -4 -11 -6q-5 -2 -11 -2q3 -11 10 -24q7 -12 17 -24q16 -16 33 -27t33 -18
q30 -11 54 -12q23 -1 27 -1q10 0 14 -4q5 -4 5 -11v-18zM583 325q0 -17 -3 -36q-2 -20 -18 -20h-458q4 -92 66 -159q61 -67 158 -67q23 0 45 3q21 4 40 9v1h-1q3 1 6 1l6 2l10 4l10 4l10 5q5 3 9 6q-5 4 -8 9q-4 5 -6 11q-8 27 5 46q12 19 34 25q25 8 44 -4t27 -38
q5 -19 -2 -40t-31 -39q-25 -21 -82 -42t-121 -21q-131 0 -206 89q-76 88 -76 214q0 43 10 83q9 40 28 74q34 64 97 103q62 39 147 39q113 0 187 -74q73 -74 73 -188zM520 321q0 84 -50 146q-50 63 -147 63q-94 0 -153 -60q-59 -61 -65 -149h415z" />
    <glyph glyph-name="eacute" unicode="&#xe9;" horiz-adv-x="624" 
d="M180 826q0 7 5 11t14 4q4 0 27 1q24 0 54 12q16 7 33 18q17 10 33 27q10 12 17 24t10 24q-6 0 -11 2q-6 2 -11 6q-22 17 -23 40t13 40q16 21 38 23h4q20 0 40 -15q24 -19 24 -60q0 -40 -44 -96q-18 -24 -39 -40q-21 -17 -42 -28q-39 -20 -73 -24q-23 -3 -37 -3
q-7 0 -12 1q-9 1 -14 4q-5 4 -6 11v18zM583 325q0 -17 -3 -36q-2 -20 -18 -20h-458q4 -92 66 -159q61 -67 158 -67q23 0 45 3q21 4 40 9v1h-1q3 1 6 1l6 2l10 4l10 4l10 5q5 3 9 6q-5 4 -8 9q-4 5 -6 11q-8 27 5 46q12 19 34 25q25 8 44 -4t27 -38q5 -19 -2 -40t-31 -39
q-25 -21 -82 -42t-121 -21q-131 0 -206 89q-76 88 -76 214q0 43 10 83q9 40 28 74q34 64 97 103q62 39 147 39q113 0 187 -74q73 -74 73 -188zM520 321q0 84 -50 146q-50 63 -147 63q-94 0 -153 -60q-59 -61 -65 -149h415z" />
    <glyph glyph-name="ecircumflex" unicode="&#xea;" horiz-adv-x="624" 
d="M124 790q-4 5 -12 16q-3 3 -3 7q0 1 1 3q2 5 7 10l174 140q3 3 7 5t7 2h5t7 -2t7 -5l173 -140q6 -5 8 -10q1 -2 1 -3q0 -4 -3 -7q-4 -6 -13 -16q-3 -5 -8 -7q-5 -3 -13 4l-162 120l-161 -120q-6 -5 -11 -5q-1 0 -2 1q-5 2 -9 7zM583 325q0 -17 -3 -36q-2 -20 -18 -20
h-458q4 -92 66 -159q61 -67 158 -67q23 0 45 3q21 4 40 9v1h-1q3 1 6 1l6 2l10 4l10 4l10 5q5 3 9 6q-5 4 -8 9q-4 5 -6 11q-8 27 5 46q12 19 34 25q25 8 44 -4t27 -38q5 -19 -2 -40t-31 -39q-25 -21 -82 -42t-121 -21q-131 0 -206 89q-76 88 -76 214q0 43 10 83q9 40 28 74
q34 64 97 103q62 39 147 39q113 0 187 -74q73 -74 73 -188zM520 321q0 84 -50 146q-50 63 -147 63q-94 0 -153 -60q-59 -61 -65 -149h415z" />
    <glyph glyph-name="edieresis" unicode="&#xeb;" horiz-adv-x="624" 
d="M124 902q0 22 14 36q15 15 35 15q21 0 35 -15q14 -14 14 -36q0 -19 -14 -33t-35 -14q-20 0 -35 14q-14 14 -14 33zM400 902q0 22 13 36q14 15 34 15q22 0 36 -15q14 -14 14 -36q0 -19 -14 -33t-36 -14q-20 0 -34 14q-13 14 -13 33zM583 325q0 -17 -3 -36q-2 -20 -18 -20
h-458q4 -92 66 -159q61 -67 158 -67q23 0 45 3q21 4 40 9v1h-1q3 1 6 1l6 2l10 4l10 4l10 5q5 3 9 6q-5 4 -8 9q-4 5 -6 11q-8 27 5 46q12 19 34 25q25 8 44 -4t27 -38q5 -19 -2 -40t-31 -39q-25 -21 -82 -42t-121 -21q-131 0 -206 89q-76 88 -76 214q0 43 10 83q9 40 28 74
q34 64 97 103q62 39 147 39q113 0 187 -74q73 -74 73 -188zM520 321q0 84 -50 146q-50 63 -147 63q-94 0 -153 -60q-59 -61 -65 -149h415z" />
    <glyph glyph-name="igrave" unicode="&#xec;" horiz-adv-x="251" 
d="M259 807q0 -7 -6 -10q-5 -4 -14 -5q-6 -1 -16 -1h-6q-14 1 -32 4q-33 6 -74 27q-41 20 -75 64q-44 56 -44 97q0 40 25 59q19 15 39 15h4q23 -2 39 -22q13 -18 12 -41t-23 -40q-5 -4 -10 -6l-12 -2q3 -11 10 -23q7 -13 17 -25q16 -16 33 -27t33 -17q30 -12 54 -13
q23 -1 27 -1q10 0 14 -4q5 -4 5 -11v-18zM99 555q0 8 6 13q5 6 13 6h26q7 0 13 -6q5 -5 5 -13v-536q0 -9 -4 -14q-5 -5 -14 -5h-29q-8 0 -12 6q-4 5 -4 13v201v335z" />
    <glyph glyph-name="iacute" unicode="&#xed;" horiz-adv-x="251" 
d="M-11 826q0 7 5 11q4 4 14 4q4 0 27 1q24 0 54 12q16 7 33 18q17 10 33 27q10 12 17 24t10 24q-6 0 -12 2q-5 2 -10 6q-22 17 -23 40t13 40q15 21 38 23h4q20 0 39 -15q25 -19 25 -60q0 -40 -44 -96q-18 -24 -39 -40q-21 -17 -42 -28q-39 -20 -73 -24q-23 -3 -37 -3
q-7 0 -12 1q-9 1 -14 4q-6 4 -6 11v18zM99 555q0 8 6 13q5 6 13 6h26q7 0 13 -6q5 -5 5 -13v-536q0 -9 -4 -14q-5 -5 -14 -5h-29q-8 0 -12 6q-4 5 -4 13v201v335z" />
    <glyph glyph-name="icircumflex" unicode="&#xee;" horiz-adv-x="262" 
d="M-50 790l-13 16q-3 3 -2 7v3q3 5 8 10l174 140q3 3 7 5t7 2h4q4 0 7 -2q4 -2 8 -5l173 -140q6 -5 8 -10q1 -2 1 -3q0 -4 -3 -7q-4 -6 -13 -16q-3 -5 -8 -7q-5 -3 -13 4l-163 120l-160 -120q-7 -5 -11 -5q-1 0 -3 1q-5 2 -8 7zM99 555q0 8 6 13q5 6 13 6h26q7 0 13 -6
q5 -5 5 -13v-536q0 -9 -4 -14q-5 -5 -14 -5h-29q-8 0 -12 6q-4 5 -4 13v201v335z" />
    <glyph glyph-name="idieresis" unicode="&#xef;" horiz-adv-x="262" 
d="M-56 902q0 22 14 36q15 15 35 15q21 0 35 -15q14 -14 14 -36q0 -19 -14 -33t-35 -14q-20 0 -35 14q-14 14 -14 33zM220 902q0 22 13 36q14 15 34 15q22 0 36 -15q14 -14 14 -36q0 -19 -14 -33t-36 -14q-20 0 -34 14q-13 14 -13 33zM99 555q0 8 6 13q5 6 13 6h26
q7 0 13 -6q5 -5 5 -13v-536q0 -9 -4 -14q-5 -5 -14 -5h-29q-8 0 -12 6q-4 5 -4 13v201v335z" />
    <glyph glyph-name="eth" unicode="&#xf0;" 
d="M276 630q38 0 72 -7q33 -7 62 -19q53 -21 87 -48q34 -28 45 -42q-17 103 -76 182q-58 80 -127 136l-165 -96q-7 -3 -14 -1t-11 8q-1 2 -4 7q-4 7 -2 14q1 7 8 11l149 86q-58 40 -103 62q-44 23 -69 32q-9 4 -11 9q-2 6 2 14q4 9 10 25q2 5 8 7q3 1 6 1t6 -1
q33 -12 89 -40q57 -29 119 -76l99 57q8 4 15 2q7 -3 11 -9q2 -2 4 -7q4 -7 2 -14q-2 -6 -9 -11l-83 -48q86 -75 155 -190t69 -280q0 -111 -36 -202q-36 -92 -107 -146q-38 -29 -86 -44q-48 -16 -107 -16q-84 0 -156 42q-72 43 -115 114q-23 38 -36 82t-13 92q0 50 13 94
t36 79q43 67 113 104t150 37zM284 46q48 0 88 14q39 14 70 39q58 47 86 123q29 77 29 162q0 12 -1 22l-2 21q-2 3 -33 39q-30 35 -88 66q-31 16 -69 28q-38 11 -84 11q-36 0 -69 -9q-34 -10 -63 -28q-53 -32 -87 -90q-34 -57 -34 -131q0 -39 10 -74q11 -36 29 -66
q34 -57 91 -92q58 -35 127 -35z" />
    <glyph glyph-name="ntilde" unicode="&#xf1;" horiz-adv-x="642" 
d="M136 837q-6 2 -9 8q-1 3 -1 6t1 6l8 19q5 13 13 27q14 27 41 52q27 26 72 26q50 0 71 -33l39 -61q10 -16 22 -26q12 -11 30 -11q40 0 58 33q17 32 24 52q2 7 8 10q7 3 13 0q6 -2 16 -6q4 -2 8 -6q2 -3 2 -7q0 -2 -1 -6q-2 -5 -13 -35q-12 -30 -39 -56q-14 -14 -34 -23
t-46 -9q-27 0 -44 11q-18 10 -30 26q-24 29 -40 62t-48 33q-41 0 -59 -34q-17 -35 -23 -55q-2 -8 -8 -10q-6 -3 -14 0zM591 325v-307q0 -7 -6 -13q-5 -5 -13 -5h-26q-7 0 -13 5q-5 6 -5 13v307q0 99 -45 150q-44 51 -126 51q-57 0 -102 -23q-44 -23 -71 -45q-14 -11 -22 -20
q-9 -9 -10 -11v-409q0 -8 -5 -13q-4 -5 -14 -5h-27q-8 0 -12 5q-4 6 -4 13v435v0v1v122q-4 -1 -9 -2t-10 0q-28 3 -40 22q-10 16 -11 33q0 4 1 9q3 25 21 38q15 11 35 11q5 0 10 -1q26 -3 46 -28q19 -25 20 -75v-1v-1v-78q20 19 74 52t133 33q120 0 176 -71q55 -71 55 -192z
" />
    <glyph glyph-name="ograve" unicode="&#xf2;" horiz-adv-x="638" 
d="M470 810q0 -7 -5 -11q-5 -3 -14 -4q-5 -1 -12 -1q-15 0 -37 3q-34 4 -74 24q-20 11 -41 28q-21 16 -40 40q-43 56 -43 97q0 40 24 59q20 15 40 15h4q22 -2 38 -22q14 -18 13 -41t-23 -40q-5 -4 -11 -6q-5 -2 -12 -2q4 -11 10 -24q7 -12 18 -24q16 -16 33 -27t33 -18
q30 -11 53 -12t28 -1q9 0 14 -4t5 -11q-1 -6 -1 -18zM319 588q78 0 143 -39q65 -40 102 -104q21 -34 32 -74t11 -83q0 -81 -37 -149t-99 -108q-33 -22 -71 -33q-39 -12 -81 -12q-79 0 -143 39q-65 39 -103 104q-20 34 -31 75q-11 40 -11 84q0 43 11 83t31 74q38 64 102 104
q65 39 144 39zM319 45q95 0 160 70q65 71 65 173q0 99 -65 170q-65 70 -160 70q-96 0 -161 -70q-66 -71 -66 -170q0 -102 66 -173q65 -70 161 -70z" />
    <glyph glyph-name="oacute" unicode="&#xf3;" horiz-adv-x="638" 
d="M185 826q-1 7 4 11t14 4q5 0 28 1q23 0 53 12q16 7 33 18q17 10 33 27q11 12 18 24t10 24q-6 0 -12 2t-11 6q-22 17 -23 40t13 40q16 21 38 23h4q20 0 40 -15q25 -19 24 -60q0 -40 -43 -96q-19 -24 -40 -40q-20 -17 -41 -28q-39 -20 -74 -24q-22 -3 -37 -3q-7 0 -12 1
q-8 1 -14 4q-5 4 -5 11v18zM319 588q78 0 143 -39q65 -40 102 -104q21 -34 32 -74t11 -83q0 -81 -37 -149t-99 -108q-33 -22 -71 -33q-39 -12 -81 -12q-79 0 -143 39q-65 39 -103 104q-20 34 -31 75q-11 40 -11 84q0 43 11 83t31 74q38 64 102 104q65 39 144 39zM319 45
q95 0 160 70q65 71 65 173q0 99 -65 170q-65 70 -160 70q-96 0 -161 -70q-66 -71 -66 -170q0 -102 66 -173q65 -70 161 -70z" />
    <glyph glyph-name="ocircumflex" unicode="&#xf4;" horiz-adv-x="638" 
d="M133 790l-13 16q-3 3 -2 7v3q3 5 8 10l174 140q3 3 7 5t7 2h4q4 0 7 -2q4 -2 8 -5l173 -140q6 -5 8 -10q1 -2 1 -3q0 -4 -3 -7q-4 -6 -13 -16q-3 -5 -8 -7q-5 -3 -13 4l-163 120l-160 -120q-7 -5 -11 -5q-1 0 -3 1q-5 2 -8 7zM319 588q78 0 143 -39q65 -40 102 -104
q21 -34 32 -74t11 -83q0 -81 -37 -149t-99 -108q-33 -22 -71 -33q-39 -12 -81 -12q-79 0 -143 39q-65 39 -103 104q-20 34 -31 75q-11 40 -11 84q0 43 11 83t31 74q38 64 102 104q65 39 144 39zM319 45q95 0 160 70q65 71 65 173q0 99 -65 170q-65 70 -160 70
q-96 0 -161 -70q-66 -71 -66 -170q0 -102 66 -173q65 -70 161 -70z" />
    <glyph glyph-name="otilde" unicode="&#xf5;" horiz-adv-x="638" 
d="M114 837q-7 2 -9 8q-1 3 -1 6t1 6l8 19q5 13 12 27q15 27 42 52q27 26 72 26q50 0 71 -33l39 -61q10 -16 22 -26q12 -11 30 -11q40 0 57 33q18 32 25 52q2 7 8 10q7 3 13 0q5 -2 16 -6q4 -2 7 -6q2 -3 2 -7q0 -2 -1 -6q-1 -5 -12 -35q-12 -30 -39 -56q-15 -14 -34 -23
q-20 -9 -47 -9q-49 0 -70 33l-40 62q-10 16 -22 26q-12 11 -30 11q-41 0 -58 -34q-17 -35 -23 -55q-3 -8 -8 -10q-6 -3 -14 0q-6 2 -17 7zM319 588q78 0 143 -39q65 -40 102 -104q21 -34 32 -74t11 -83q0 -81 -37 -149t-99 -108q-33 -22 -71 -33q-39 -12 -81 -12
q-79 0 -143 39q-65 39 -103 104q-20 34 -31 75q-11 40 -11 84q0 43 11 83t31 74q38 64 102 104q65 39 144 39zM319 45q95 0 160 70q65 71 65 173q0 99 -65 170q-65 70 -160 70q-96 0 -161 -70q-66 -71 -66 -170q0 -102 66 -173q65 -70 161 -70z" />
    <glyph glyph-name="odieresis" unicode="&#xf6;" horiz-adv-x="638" 
d="M133 902q0 22 14 36q14 15 35 15t35 -15q14 -14 14 -36q0 -19 -14 -33t-35 -14t-35 14t-14 33zM408 902q0 22 14 36q13 15 34 15t36 -15q14 -14 14 -36q0 -19 -14 -33q-15 -14 -36 -14t-34 14q-14 14 -14 33zM319 588q78 0 143 -39q65 -40 102 -104q21 -34 32 -74t11 -83
q0 -81 -37 -149t-99 -108q-33 -22 -71 -33q-39 -12 -81 -12q-79 0 -143 39q-65 39 -103 104q-20 34 -31 75q-11 40 -11 84q0 43 11 83t31 74q38 64 102 104q65 39 144 39zM319 45q95 0 160 70q65 71 65 173q0 99 -65 170q-65 70 -160 70q-96 0 -161 -70q-66 -71 -66 -170
q0 -102 66 -173q65 -70 161 -70z" />
    <glyph glyph-name="divide" unicode="&#xf7;" horiz-adv-x="629" 
d="M20 488v21q0 8 6 13q6 6 13 6h552q8 0 13 -6q5 -5 5 -13v-21q0 -8 -5 -13q-5 -6 -13 -6h-552q-7 0 -13 6q-6 5 -6 13zM251 723q0 24 18 40q18 17 41 17q25 0 41 -17q17 -16 17 -40t-17 -41q-16 -18 -41 -18q-23 0 -41 18q-18 17 -18 41zM310 330q25 0 41 -17
q17 -17 17 -41q0 -23 -17 -41q-16 -17 -41 -17q-23 0 -41 17q-18 18 -18 41q0 24 18 41t41 17z" />
    <glyph glyph-name="oslash" unicode="&#xf8;" horiz-adv-x="637" 
d="M62 77l26 26q-27 39 -42 85t-15 99q0 42 11 82t31 75q38 64 102 104q65 40 144 40q61 0 111 -23q49 -23 87 -60l33 31q5 6 13 6t13 -6l6 -6q6 -5 6 -12q0 -8 -6 -13l-35 -35q28 -39 44 -86q15 -47 15 -97q0 -45 -11 -85t-31 -75q-38 -64 -102 -103q-65 -39 -143 -39
q-59 0 -111 22q-51 23 -90 61l-24 -24q-6 -5 -13 -5q-8 1 -13 6q-1 2 -4 6q-7 6 -7 13q0 8 5 13zM473 462q-31 31 -70 48q-39 18 -84 18q-96 0 -160 -71q-65 -71 -65 -170q0 -41 10 -76q10 -34 30 -65zM319 44q95 0 160 70t65 173q0 38 -11 74t-32 66l-338 -316
q30 -31 70 -49t86 -18z" />
    <glyph glyph-name="ugrave" unicode="&#xf9;" horiz-adv-x="598" 
d="M436 808q-1 -6 -6 -10q-5 -3 -14 -5h-16h-6q-14 0 -32 3q-34 7 -74 27q-41 21 -75 65q-44 56 -44 96t25 60q19 15 39 14h4q23 -1 38 -22q14 -18 13 -40q-1 -23 -23 -40q-5 -4 -11 -6q-5 -2 -11 -3q3 -11 10 -23t17 -24q16 -17 33 -28q17 -10 33 -17q30 -12 54 -13
q23 -1 27 -1q10 1 14 -3q5 -4 5 -11v-19zM537 554v-536q0 -7 -5 -13q-6 -6 -13 -6h-18q-8 0 -12 6q-4 5 -5 12q-2 18 -5 56q-8 -10 -32 -31t-64 -37q-21 -9 -47 -14q-26 -6 -55 -6q-121 0 -175 70q-55 70 -55 191v222v1v1q2 50 21 75t45 28h10q20 1 35 -10q18 -13 22 -39
q2 -22 -10 -41q-13 -19 -41 -22q-5 -1 -9 0l-10 2v-217q0 -100 45 -150q44 -51 126 -51q31 0 57 8q27 7 48 19q39 21 61 46q21 24 23 28v408q0 9 5 14t14 5h26q7 0 13 -6q5 -5 5 -13z" />
    <glyph glyph-name="uacute" unicode="&#xfa;" horiz-adv-x="598" 
d="M167 826q0 7 4 11q5 4 14 4q5 0 28 1q23 0 53 12q17 7 34 18q17 10 32 27q11 12 18 24t10 24q-6 0 -12 2q-5 2 -10 6q-23 17 -24 40q0 23 13 40q16 21 39 23h3q21 0 40 -15q25 -19 25 -60q0 -40 -44 -96q-18 -24 -39 -40q-21 -17 -42 -28q-39 -20 -73 -24q-23 -3 -37 -3
q-8 0 -13 1q-8 1 -13 4q-6 4 -6 11v18zM537 554v-536q0 -7 -5 -13q-6 -6 -13 -6h-18q-8 0 -12 6q-4 5 -5 12q-2 18 -5 56q-8 -10 -32 -31t-64 -37q-21 -9 -47 -14q-26 -6 -55 -6q-121 0 -175 70q-55 70 -55 191v222v1v1q2 50 21 75t45 28h10q20 1 35 -10q18 -13 22 -39
q2 -22 -10 -41q-13 -19 -41 -22q-5 -1 -9 0l-10 2v-217q0 -100 45 -150q44 -51 126 -51q31 0 57 8q27 7 48 19q39 21 61 46q21 24 23 28v408q0 9 5 14t14 5h26q7 0 13 -6q5 -5 5 -13z" />
    <glyph glyph-name="ucircumflex" unicode="&#xfb;" horiz-adv-x="598" 
d="M119 790q-4 5 -12 16q-3 3 -3 7q0 1 1 3q2 5 7 10l174 140q3 3 7 5t7 2h5t7 -2t7 -5l173 -140q6 -5 8 -10q1 -2 1 -3q0 -4 -3 -7q-4 -6 -13 -16q-3 -5 -8 -7q-5 -3 -13 4l-162 120l-161 -120q-6 -5 -11 -5q-1 0 -2 1q-5 2 -9 7zM537 554v-536q0 -7 -5 -13q-6 -6 -13 -6
h-18q-8 0 -12 6q-4 5 -5 12q-2 18 -5 56q-8 -10 -32 -31t-64 -37q-21 -9 -47 -14q-26 -6 -55 -6q-121 0 -175 70q-55 70 -55 191v222v1v1q2 50 21 75t45 28h10q20 1 35 -10q18 -13 22 -39q2 -22 -10 -41q-13 -19 -41 -22q-5 -1 -9 0l-10 2v-217q0 -100 45 -150
q44 -51 126 -51q31 0 57 8q27 7 48 19q39 21 61 46q21 24 23 28v408q0 9 5 14t14 5h26q7 0 13 -6q5 -5 5 -13z" />
    <glyph glyph-name="udieresis" unicode="&#xfc;" horiz-adv-x="598" 
d="M112 902q0 22 14 36q14 15 35 15t35 -15q14 -14 14 -36q0 -19 -14 -33t-35 -14t-35 14t-14 33zM387 902q0 22 14 36q13 15 34 15t36 -15q14 -14 14 -36q0 -19 -14 -33q-15 -14 -36 -14t-34 14q-14 14 -14 33zM537 554v-536q0 -7 -5 -13q-6 -6 -13 -6h-18q-8 0 -12 6
q-4 5 -5 12q-2 18 -5 56q-8 -10 -32 -31t-64 -37q-21 -9 -47 -14q-26 -6 -55 -6q-121 0 -175 70q-55 70 -55 191v222v1v1q2 50 21 75t45 28h10q20 1 35 -10q18 -13 22 -39q2 -22 -10 -41q-13 -19 -41 -22q-5 -1 -9 0l-10 2v-217q0 -100 45 -150q44 -51 126 -51q31 0 57 8
q27 7 48 19q39 21 61 46q21 24 23 28v408q0 9 5 14t14 5h26q7 0 13 -6q5 -5 5 -13z" />
    <glyph glyph-name="yacute" unicode="&#xfd;" horiz-adv-x="647" 
d="M197 826q0 7 4 11q5 4 14 4q5 0 28 1q23 0 53 12q17 7 34 18q16 10 32 27q11 12 18 24t10 24q-6 0 -12 2q-5 2 -11 6q-22 17 -23 40t13 40q16 21 38 23h4q21 0 40 -15q25 -19 25 -60q-1 -40 -44 -96q-19 -24 -39 -40q-21 -17 -42 -28q-39 -20 -73 -24q-23 -3 -38 -3
q-7 0 -12 1q-8 1 -14 4q-5 4 -5 11v18zM624 551l-442 -952q-26 -62 -59 -81q-22 -13 -41 -13q-11 0 -21 4q-25 10 -35 30q-6 10 -6 22q0 10 5 22q8 21 28 32t46 1q6 -3 10 -6l8 -8l188 404l-271 545q-4 9 -2 16q1 7 11 7h31q6 0 11 -3t8 -10l245 -485h3l224 485q3 7 8 10
t11 3h31q10 0 12 -7v-4q0 -5 -3 -12z" />
    <glyph glyph-name="thorn" unicode="&#xfe;" 
d="M84 -414q0 -8 -6 -13q-5 -6 -13 -6h-24q-8 0 -13 6q-6 5 -6 13v524v873q0 9 6 14q7 5 14 5h23q8 0 13 -6q6 -5 6 -13v-465q13 11 59 39q46 29 124 29q42 0 80 -12q37 -12 69 -34q58 -40 93 -108q34 -68 34 -149q0 -128 -81 -214t-208 -86q-71 0 -114 25q-44 25 -56 35
v-457zM247 43q105 0 169 69q65 69 65 171q0 100 -60 172t-158 72q-29 0 -54 -6t-45 -16q-37 -17 -57 -37q-20 -19 -22 -23v-333l7 -7q6 -7 17 -15q20 -15 55 -31q36 -16 83 -16z" />
    <glyph glyph-name="ydieresis" unicode="&#xff;" horiz-adv-x="647" 
d="M141 902q0 22 14 36q15 15 35 15q22 0 35 -15q14 -14 14 -36q0 -19 -14 -33q-13 -14 -35 -14q-20 0 -35 14q-14 14 -14 33zM417 902q0 22 13 36q14 15 34 15q22 0 36 -15q14 -14 14 -36q0 -19 -14 -33t-36 -14q-20 0 -34 14q-13 14 -13 33zM624 551l-442 -952
q-26 -62 -59 -81q-22 -13 -41 -13q-11 0 -21 4q-25 10 -35 30q-6 10 -6 22q0 10 5 22q8 21 28 32t46 1q6 -3 10 -6l8 -8l188 404l-271 545q-4 9 -2 16q1 7 11 7h31q6 0 11 -3t8 -10l245 -485h3l224 485q3 7 8 10t11 3h31q10 0 12 -7v-4q0 -5 -3 -12z" />
    <glyph glyph-name="" unicode="&#x100;" 
d="M67 1210v17q0 9 5 14t13 5h391q7 0 13 -5q5 -5 5 -14v-17q0 -8 -5 -13q-6 -6 -13 -6h-391q-8 0 -13 6q-5 5 -5 13zM721 0h-37q-7 0 -13 4q-5 5 -7 9l-116 264h-390q-3 -1 -5 -1l-6 -2q3 -5 5 -11t1 -12q-1 -28 -19 -42t-41 -13q-25 2 -40 19q-14 17 -13 44q2 31 34 54
q33 23 102 20h347l-245 578h-3l-390 -898q-2 -4 -7 -9q-6 -4 -13 -4h-40q-8 0 -11 4q-1 2 -1 5q0 4 2 8l442 999q2 4 7 7q4 3 10 3h4q6 0 11 -2t8 -8l437 -999q2 -4 2 -7q0 -2 -1 -5q-2 -5 -14 -5z" />
    <glyph glyph-name="" unicode="&#x101;" horiz-adv-x="548" 
d="M61 868v18q0 8 6 14q5 5 13 5h390q8 0 13 -5q6 -6 6 -14v-18q0 -8 -6 -13q-5 -4 -13 -4h-390q-8 0 -13 4q-6 5 -6 13zM487 338v-319q0 -7 -6 -13q-5 -5 -13 -5h-17q-7 0 -11 4t-6 11l-6 52q-28 -26 -79 -54t-120 -28q-80 0 -134 51q-54 52 -54 140q0 83 64 138t177 55
q49 0 91 -10q42 -11 54 -15q0 94 -21 142q-21 47 -105 47q-41 0 -74 -7t-55 -15q-6 -2 -10 -5q-5 -2 -9 -5q4 -5 8 -9q3 -5 4 -12q7 -27 -6 -45q-13 -19 -35 -24q-25 -6 -44 6q-19 13 -25 39q-6 24 9 51q15 26 59 45q20 9 67 22t115 13q85 0 123 -30q37 -31 49 -85
q7 -28 8 -63q2 -34 2 -72zM427 131v12v146q-14 6 -54 18t-91 12q-82 0 -132 -39q-50 -38 -50 -102q0 -62 38 -99q39 -37 98 -37q66 0 118 31t73 58v0z" />
    <glyph glyph-name="" unicode="&#x102;" 
d="M106 1268q-1 2 -1 3q0 6 3 11q3 6 12 6h19q7 0 11 -5q4 -6 6 -12q13 -48 49 -80t89 -32q49 0 87 32t49 80q2 7 6 12q5 5 11 5h20q8 0 12 -6q3 -5 3 -11v-3q-12 -68 -64 -114q-52 -45 -124 -45q-75 0 -127 46t-61 113zM748 -1h-37q-8 0 -13 4t-7 8l-116 264h-390
q-3 0 -6 -1q-2 -1 -5 -1q3 -6 5 -12q2 -5 1 -12q-1 -28 -19 -41q-18 -14 -41 -13q-26 1 -40 19q-14 17 -13 44q2 31 34 53q32 23 101 20h348l-245 579h-3l-390 -899q-2 -4 -7 -8q-6 -4 -13 -4h-40q-8 0 -11 4q-1 2 -1 5t2 8l441 998q3 5 7 7q5 3 11 3h4q5 0 10 -1q5 -2 9 -9
l437 -998q1 -4 1 -7v-5q-2 -5 -14 -5z" />
    <glyph glyph-name="" unicode="&#x103;" horiz-adv-x="548" 
d="M81 928v4q0 6 2 11q4 5 12 5h19q7 0 11 -4q4 -5 6 -11q12 -49 48 -81q37 -33 90 -33q49 0 87 33q38 32 49 81q2 7 7 11q4 4 10 4h20q8 0 12 -5q3 -5 3 -11v-4q-11 -66 -64 -112q-52 -46 -124 -46q-74 0 -125 47q-51 46 -63 111zM81 928v4q0 6 2 11q4 5 12 5h19q7 0 11 -4
q4 -5 6 -11q12 -49 48 -81q37 -33 90 -33q49 0 87 33q38 32 49 81q2 7 7 11q4 4 10 4h20q8 0 12 -5q3 -5 3 -11v-4q-11 -66 -64 -112q-52 -46 -124 -46q-74 0 -125 47q-51 46 -63 111zM487 338v-319q0 -7 -6 -13q-5 -5 -13 -5h-17q-7 0 -11 4t-6 11l-6 52q-28 -26 -79 -54
t-120 -28q-80 0 -134 51q-54 52 -54 140q0 83 64 138t177 55q49 0 91 -10q42 -11 54 -15q0 94 -21 142q-21 47 -105 47q-41 0 -74 -7t-55 -15q-6 -2 -10 -5q-5 -2 -9 -5q4 -5 8 -9q3 -5 4 -12q7 -27 -6 -45q-13 -19 -35 -24q-25 -6 -44 6q-19 13 -25 39q-6 24 9 51
q15 26 59 45q20 9 67 22t115 13q85 0 123 -30q37 -31 49 -85q7 -28 8 -63q2 -34 2 -72zM427 131v12v146q-14 6 -54 18t-91 12q-82 0 -132 -39q-50 -38 -50 -102q0 -62 38 -99q39 -37 98 -37q66 0 118 31t73 58v0z" />
    <glyph glyph-name="" unicode="&#x104;" horiz-adv-x="954" 
d="M926 0v-77q64 -8 109 -42q44 -34 44 -98q0 -57 -40 -98t-100 -41q-42 0 -72 17q-30 16 -40 32q-5 7 -5 13v2q1 6 6 11q5 4 15 11q4 4 10 3t13 -7q6 -8 24 -19t49 -11q39 0 61 25q23 25 23 61q0 52 -42 72q-43 20 -90 25q-9 3 -13 8t-4 11v102h34h18zM919 -1h-38
q-7 0 -12 4q-6 4 -8 8l-116 264h-390q-3 0 -5 -1q-3 -1 -5 -1q3 -6 4 -12q2 -5 2 -12q-2 -28 -20 -41q-18 -14 -41 -13q-25 1 -40 19q-14 17 -12 44q1 31 33 53q33 23 102 20h348l-246 579h-3l-390 -899q-2 -4 -7 -8t-13 -4h-40q-8 0 -10 4q-2 2 -2 5t2 8l442 998q2 5 7 7
q5 3 10 3h4q6 0 11 -1q5 -2 8 -9l438 -998q1 -4 1 -7t-1 -5q-2 -5 -13 -5z" />
    <glyph glyph-name="" unicode="&#x105;" horiz-adv-x="548" 
d="M444 20l43 -6l-27 -19q-28 -20 -53 -57q-13 -20 -22 -44q-9 -25 -9 -53q0 -49 32 -73q33 -24 74 -24q32 0 54 9q23 8 35 13q6 3 12 1q5 -3 6 -13q1 -4 2 -14v-4q0 -6 -2 -9q-3 -6 -10 -10q-13 -7 -41 -16q-29 -8 -64 -8q-60 0 -107 32q-47 33 -47 108q0 32 9 58
q10 26 24 47q26 39 57 60q30 21 34 22zM487 338v-319q0 -7 -6 -13q-5 -5 -13 -5h-17q-7 0 -11 4t-6 11l-6 52q-28 -26 -79 -54t-120 -28q-80 0 -134 51q-54 52 -54 140q0 83 64 138t177 55q49 0 91 -10q42 -11 54 -15q0 94 -21 142q-21 47 -105 47q-41 0 -74 -7t-55 -15
q-6 -2 -10 -5q-5 -2 -9 -5q4 -5 8 -9q3 -5 4 -12q7 -27 -6 -45q-13 -19 -35 -24q-25 -6 -44 6q-19 13 -25 39q-6 24 9 51q15 26 59 45q20 9 67 22t115 13q85 0 123 -30q37 -31 49 -85q7 -28 8 -63q2 -34 2 -72zM427 131v12v146q-14 6 -54 18t-91 12q-82 0 -132 -39
q-50 -38 -50 -102q0 -62 38 -99q39 -37 98 -37q66 0 118 31t73 58v0z" />
    <glyph glyph-name="Cacute" unicode="&#x106;" horiz-adv-x="985" 
d="M398 1122q0 7 5 11q4 4 14 3q4 0 27 1q24 1 53 13q17 7 34 17q17 11 32 28q11 12 18 24t10 23q-6 1 -12 3q-5 2 -10 6q-22 17 -23 40q-1 22 12 40q16 21 39 22h4q20 0 39 -15q25 -19 25 -59t-44 -96q-18 -24 -39 -41q-21 -16 -42 -27q-39 -20 -73 -24q-23 -3 -37 -3h-12
q-9 2 -14 5q-6 3 -6 10v19zM917 790q-12 -25 -33 -33t-44 3q-20 10 -29 31t3 46q2 4 5 8l6 6q-59 48 -131 75q-72 28 -154 28q-122 0 -223 -60q-100 -59 -159 -156q-31 -52 -48 -112q-18 -60 -18 -126q0 -64 18 -124q17 -60 48 -112q59 -96 159 -155t223 -59q92 0 165 33
q73 34 138 87q6 6 12 6q6 1 11 -3l24 -24q5 -4 5 -12q0 -7 -5 -12q-73 -71 -164 -106q-90 -34 -186 -34q-140 0 -257 67q-116 66 -185 175q-37 59 -57 129q-21 69 -21 144q0 76 21 145q20 69 57 129q69 110 186 177q116 67 256 67q110 0 194 -35q85 -35 154 -98l2 -2t1 -2
q25 -24 31 -48q1 -8 1 -16q0 -15 -6 -27z" />
    <glyph glyph-name="cacute" unicode="&#x107;" horiz-adv-x="625" 
d="M184 826q-1 7 4 11t14 4q5 0 28 1q23 0 53 12q16 7 33 18q17 10 33 27q11 12 18 24t10 24q-6 0 -12 2t-11 6q-22 17 -23 40t13 40q16 21 38 23h4q20 0 40 -15q25 -19 24 -60q0 -40 -43 -96q-19 -24 -40 -40q-20 -17 -41 -28q-40 -20 -74 -24q-22 -3 -37 -3q-7 0 -12 1
q-9 1 -14 4q-5 4 -5 11v18zM570 378q-17 -21 -39 -25q-22 -3 -42 13q-18 14 -22 37q-4 22 13 44q4 4 8 7q5 3 10 5q0 1 -1 1v0q-11 12 -54 39t-111 27q-98 0 -167 -68q-70 -67 -70 -170q0 -104 70 -173t165 -69q53 0 89 17q37 17 59 36q12 10 20 18q8 9 12 14q7 8 14 9
q6 0 13 -7q5 -4 16 -14q5 -5 7 -11q1 -5 -3 -12q-6 -9 -17 -21t-28 -25q-30 -24 -76 -44t-104 -20q-43 0 -82 11q-40 11 -75 32q-64 39 -104 106t-40 152q0 45 12 86q12 40 34 75q40 64 108 102t147 38q76 0 128 -28q52 -27 75 -52q41 -40 47 -74q1 -8 1 -16q1 -23 -13 -40z
" />
    <glyph glyph-name="" unicode="&#x108;" 
d="M116 1104q-5 5 -13 16q-3 3 -3 7q0 1 1 3q2 5 7 10l174 140q3 3 7 5t7 2h5t7 -2t7 -5l174 -140q5 -5 7 -10q1 -2 1 -3q0 -4 -3 -7q-4 -6 -13 -16q-3 -5 -8 -7q-4 -3 -13 4l-162 120l-161 -120q-6 -5 -10 -5q-2 0 -3 1q-5 2 -8 7zM703 790q-12 -25 -33 -33q-20 -8 -44 3
q-20 10 -29 31t4 46l4 8q3 3 7 6q-60 48 -132 75q-72 28 -154 28q-122 0 -223 -60q-100 -59 -158 -156q-32 -52 -49 -112q-18 -60 -18 -126q0 -64 18 -124q17 -60 48 -112q59 -96 159 -155q101 -59 223 -59q93 0 165 33q73 34 138 87q6 6 12 6q6 1 11 -3l24 -24q5 -4 5 -12
q0 -7 -5 -12q-73 -71 -164 -106q-90 -34 -186 -34q-75 0 -145 20q-69 20 -129 57q-110 67 -178 183q-67 115 -67 255q0 76 20 145t57 129q69 110 186 177q116 67 256 67q110 0 194 -35q85 -35 155 -98q0 -1 1 -2t1 -2q25 -24 31 -48q2 -8 2 -16q0 -15 -7 -27z" />
    <glyph glyph-name="" unicode="&#x109;" horiz-adv-x="625" 
d="M132 790l-13 16q-3 3 -3 7q1 1 1 3q3 5 8 10l174 140q3 3 7 5t7 2h4t7 -2t8 -5l173 -140q6 -5 8 -10q1 -2 1 -3q0 -4 -3 -7q-4 -6 -13 -16q-3 -5 -8 -7q-5 -3 -13 4l-163 120l-160 -120q-7 -5 -11 -5q-1 0 -3 1q-5 2 -8 7zM570 378q-17 -21 -39 -25q-22 -3 -42 13
q-18 14 -22 37q-4 22 13 44q4 4 8 7q5 3 10 5q0 1 -1 1v0q-11 12 -54 39t-111 27q-98 0 -167 -68q-70 -67 -70 -170q0 -104 70 -173t165 -69q53 0 89 17q37 17 59 36q12 10 20 18q8 9 12 14q7 8 14 9q6 0 13 -7q5 -4 16 -14q5 -5 7 -11q1 -5 -3 -12q-6 -9 -17 -21t-28 -25
q-30 -24 -76 -44t-104 -20q-43 0 -82 11q-40 11 -75 32q-64 39 -104 106t-40 152q0 45 12 86q12 40 34 75q40 64 108 102t147 38q76 0 128 -28q52 -27 75 -52q41 -40 47 -74q1 -8 1 -16q1 -23 -13 -40z" />
    <glyph glyph-name="" unicode="&#x10a;" horiz-adv-x="985" 
d="M465 1191q0 21 14 36q15 14 35 14q22 0 35 -14q14 -15 14 -36q0 -20 -14 -34q-13 -14 -35 -14q-20 0 -35 14q-14 14 -14 34zM917 790q-12 -25 -33 -33t-44 3q-20 10 -29 31t3 46q2 4 5 8l6 6q-59 48 -131 75q-72 28 -154 28q-122 0 -223 -60q-100 -59 -159 -156
q-31 -52 -48 -112q-18 -60 -18 -126q0 -64 18 -124q17 -60 48 -112q59 -96 159 -155t223 -59q92 0 165 33q73 34 138 87q6 6 12 6q6 1 11 -3l24 -24q5 -4 5 -12q0 -7 -5 -12q-73 -71 -164 -106q-90 -34 -186 -34q-140 0 -257 67q-116 66 -185 175q-37 59 -57 129
q-21 69 -21 144q0 76 21 145q20 69 57 129q69 110 186 177q116 67 256 67q110 0 194 -35q85 -35 154 -98l2 -2t1 -2q25 -24 31 -48q1 -8 1 -16q0 -15 -6 -27z" />
    <glyph glyph-name="" unicode="&#x10b;" horiz-adv-x="625" 
d="M257 890q0 22 16 38t39 16t39 -16t16 -38t-16 -39q-16 -16 -39 -16t-39 16q-16 17 -16 39zM570 378q-17 -21 -39 -25q-22 -3 -42 13q-18 14 -22 37q-4 22 13 44q4 4 8 7q5 3 10 5q0 1 -1 1v0q-11 12 -54 39t-111 27q-98 0 -167 -68q-70 -67 -70 -170q0 -104 70 -173
t165 -69q53 0 89 17q37 17 59 36q12 10 20 18q8 9 12 14q7 8 14 9q6 0 13 -7q5 -4 16 -14q5 -5 7 -11q1 -5 -3 -12q-6 -9 -17 -21t-28 -25q-30 -24 -76 -44t-104 -20q-43 0 -82 11q-40 11 -75 32q-64 39 -104 106t-40 152q0 45 12 86q12 40 34 75q40 64 108 102t147 38
q76 0 128 -28q52 -27 75 -52q41 -40 47 -74q1 -8 1 -16q1 -23 -13 -40z" />
    <glyph glyph-name="Ccaron" unicode="&#x10c;" 
d="M476 1280q5 -5 13 -16q3 -3 3 -7q0 -2 -1 -3q-2 -6 -7 -10l-174 -140q-3 -4 -7 -6t-7 -2h-5t-7 2t-7 6l-174 140q-5 4 -7 10q-1 1 -1 3q0 4 3 7l13 16q3 4 8 7q5 2 13 -4l162 -121l161 121q6 5 11 4h2q5 -3 8 -7zM713 790q-12 -25 -33 -33t-44 3q-20 10 -29 31t3 46
q2 4 5 8l6 6q-59 48 -131 75q-72 28 -154 28q-123 0 -223 -60q-100 -59 -159 -156q-31 -52 -49 -112q-17 -60 -17 -126q0 -120 57 -221q58 -101 153 -161q51 -32 112 -50q60 -18 126 -18q92 0 165 33q73 34 137 87q7 6 13 6q6 1 10 -3l25 -24q5 -4 5 -12q0 -7 -5 -12
q-73 -71 -164 -106q-91 -34 -186 -34q-76 0 -145 20t-129 57q-111 67 -178 183q-68 115 -68 255q0 76 21 145q20 69 57 129q69 110 185 177q117 67 257 67q109 0 194 -35q84 -35 154 -98l2 -2q0 -1 1 -2q25 -24 30 -48q2 -8 2 -16q0 -15 -6 -27z" />
    <glyph glyph-name="ccaron" unicode="&#x10d;" horiz-adv-x="625" 
d="M503 968q4 -6 12 -16q3 -4 3 -7q0 -2 -1 -4q-2 -5 -7 -9l-174 -141q-3 -3 -7 -5t-7 -2h-5t-7 2t-7 5l-173 141q-6 4 -8 9q-1 2 -1 4q0 3 3 7l13 16q3 4 8 6q1 1 3 1q4 0 10 -5l162 -120l161 120q9 7 13 4q5 -2 9 -6zM570 378q-17 -21 -39 -25q-22 -3 -42 13
q-18 14 -22 37q-4 22 13 44q4 4 8 7q5 3 10 5q0 1 -1 1v0q-11 12 -54 39t-111 27q-98 0 -167 -68q-70 -67 -70 -170q0 -104 70 -173t165 -69q53 0 89 17q37 17 59 36q12 10 20 18q8 9 12 14q7 8 14 9q6 0 13 -7q5 -4 16 -14q5 -5 7 -11q1 -5 -3 -12q-6 -9 -17 -21t-28 -25
q-30 -24 -76 -44t-104 -20q-43 0 -82 11q-40 11 -75 32q-64 39 -104 106t-40 152q0 45 12 86q12 40 34 75q40 64 108 102t147 38q76 0 128 -28q52 -27 75 -52q41 -40 47 -74q1 -8 1 -16q1 -23 -13 -40z" />
    <glyph glyph-name="" unicode="&#x10e;" 
d="M476 1280q5 -5 13 -16q3 -3 3 -7q0 -2 -1 -3q-2 -6 -7 -10l-174 -140q-3 -4 -7 -6t-7 -2h-5t-7 2t-7 6l-174 140q-5 4 -7 10q-1 1 -1 3q0 4 3 7l13 16q3 4 8 7q5 2 13 -4l162 -121l161 121q6 5 11 4h2q5 -3 8 -7zM781 502q0 -136 -66 -249t-173 -179q-58 -36 -126 -56
q-67 -19 -140 -19h-76v0q-67 -1 -98 22q-32 23 -33 53q-1 27 14 45q14 17 40 18q23 0 41 -14q17 -14 18 -42q1 -6 -1 -11q-1 -5 -4 -10h87q123 0 222 56q100 56 158 150q31 51 48 111q17 59 17 125q0 121 -57 219q-56 98 -151 156q-51 30 -111 47t-126 17h-242v-924
q0 -8 -7 -13q-6 -5 -14 -5h-27q-8 0 -14 5q-6 6 -6 13v363v604q0 8 6 13q5 6 12 6h304q73 0 140 -20q68 -20 126 -55q107 -67 173 -179q66 -113 66 -247z" />
    <glyph glyph-name="" unicode="&#x10f;" 
d="M658 698q-3 4 -3 9v3q1 6 9 11q2 2 8 7q7 5 16 13q16 16 34 45t22 72q1 16 -1 29q-2 14 -6 25q-5 -3 -11 -5t-12 -2q-28 0 -43 17q-14 18 -14 40q0 26 16 41q17 15 44 15q31 0 56 -32q24 -32 24 -103q0 -55 -20 -97q-19 -41 -42 -66q-12 -14 -23 -23t-18 -13
q-8 -4 -14 -5h-1q-6 0 -9 5q-4 5 -12 14zM521 1012v-993q0 -8 -6 -13q-6 -6 -13 -6h-14t-14 5q-5 4 -6 14q-2 17 -5 50q-13 -14 -64 -49q-51 -34 -134 -34q-39 0 -75 12q-35 11 -66 33q-56 39 -90 107q-34 67 -34 149q0 44 11 85q10 40 30 75q36 64 99 103q63 38 143 38
q75 0 121 -25t53 -31v475q-4 -2 -9 -3t-10 0q-27 3 -40 22q-12 19 -10 42q3 25 22 38q14 11 35 11q4 0 10 -1q26 -3 45 -28t20 -75v0zM459 466l-6 5t-17 12q-21 14 -59 29q-38 14 -89 14q-99 0 -162 -68q-63 -69 -63 -171q0 -100 58 -172t149 -72q60 0 101 24t63 47
q12 12 18 21q6 8 7 10v321z" />
    <glyph glyph-name="" unicode="&#x110;" 
d="M-69 477h-51q-7 0 -12 6t-5 13v7q0 8 5 13q5 6 12 6h51v465q0 7 4 13q5 5 13 5h304q73 0 140 -19q68 -20 126 -56q107 -66 173 -179q66 -112 66 -246q0 -137 -66 -249q-66 -113 -173 -180q-58 -35 -126 -55q-67 -20 -140 -20h-304q-8 0 -13 6q-4 5 -4 13v457zM240 63
q122 0 221 56q100 56 157 150q32 50 49 110t17 126q0 65 -17 124t-49 110q-57 93 -157 149q-99 56 -221 56h-242v-422h359q7 0 13 -6q5 -5 5 -13v-8q0 -8 -5 -13q-6 -5 -13 -5h-359v-414h242z" />
    <glyph glyph-name="dcroat" unicode="&#x111;" 
d="M283 588q28 0 53 -5t45 -12q37 -12 58 -26l20 -15v247h-274q-8 0 -13 6q-5 5 -5 13v7q0 7 5 13q5 5 13 5h274v164q0 9 6 14q5 5 14 5h25q6 0 12 -6q5 -5 5 -13v-164h56q9 0 13 -6t4 -15v-4q0 -8 -5 -13q-4 -6 -12 -6h-56v-759q0 -7 -6 -13q-5 -6 -13 -6h-14q-9 0 -14 5
q-5 4 -6 14q-1 17 -4 52q-13 -15 -64 -50t-134 -35q-39 0 -75 12q-36 11 -66 33q-57 39 -91 107q-34 67 -34 149q0 45 11 85q10 41 30 75q36 64 99 103t143 39zM270 42q61 0 102 25q41 24 63 46q11 12 17 21q7 9 7 10v322l-20 15q-19 14 -56 28q-19 7 -43 12t-51 5
q-99 0 -163 -69q-63 -68 -63 -171q0 -100 58 -172q59 -72 149 -72z" />
    <glyph glyph-name="" unicode="&#x112;" 
d="M67 1210v17q0 9 5 14t13 5h391q7 0 13 -5q5 -5 5 -14v-17q0 -8 -5 -13q-6 -6 -13 -6h-391q-8 0 -13 6q-5 5 -5 13zM51 943v-396h455q7 0 13 -6q5 -6 5 -13v-24q0 -8 -5 -14q-6 -5 -13 -5h-455v-425h436q-3 5 -4 11q-2 5 -2 11q2 28 20 42t41 13q26 -2 40 -19
q13 -16 13 -40q0 -2 -1 -5q-1 -28 -29 -50q-27 -21 -86 -23h1h-479q-8 0 -14 6q-5 5 -5 13v362v605q0 7 5 13q6 5 14 5h575q7 0 13 -5q6 -6 6 -13v-25q0 -7 -6 -13q-6 -5 -13 -5h-525z" />
    <glyph glyph-name="" unicode="&#x113;" horiz-adv-x="624" 
d="M106 868v18q0 8 5 14q5 5 13 5h390q8 0 14 -5q5 -6 5 -14v-18q0 -8 -5 -13q-6 -4 -14 -4h-390q-8 0 -13 4q-5 5 -5 13zM583 325q0 -17 -3 -36q-2 -20 -18 -20h-458q4 -92 66 -159q61 -67 158 -67q23 0 45 3q21 4 40 9v1h-1q3 1 6 1l6 2l10 4l10 4l10 5q5 3 9 6q-5 4 -8 9
q-4 5 -6 11q-8 27 5 46q12 19 34 25q25 8 44 -4t27 -38q5 -19 -2 -40t-31 -39q-25 -21 -82 -42t-121 -21q-131 0 -206 89q-76 88 -76 214q0 43 10 83q9 40 28 74q34 64 97 103q62 39 147 39q113 0 187 -74q73 -74 73 -188zM520 321q0 84 -50 146q-50 63 -147 63
q-94 0 -153 -60q-59 -61 -65 -149h415z" />
    <glyph glyph-name="" unicode="&#x114;" 
d="M106 1268q-1 2 -1 3q0 6 3 11q3 6 12 6h19q7 0 11 -5q4 -6 6 -12q13 -48 49 -80t89 -32q49 0 87 32t49 80q2 7 6 12q5 5 11 5h20q8 0 12 -6q3 -5 3 -11v-3q-12 -68 -64 -114q-52 -45 -124 -45q-75 0 -127 46t-61 113zM51 943v-396h455q8 0 13 -6q6 -6 6 -13v-24
q0 -8 -6 -14q-5 -5 -13 -5h-455v-425h436q-2 5 -4 11q-1 5 -1 11q2 28 20 42t40 13q26 -2 40 -19q13 -16 13 -40v-5q-2 -28 -29 -50q-28 -21 -86 -23v0h-479q-7 0 -13 6q-5 5 -5 13v362v605q0 7 5 13q6 5 13 5h575q8 0 14 -5q5 -6 5 -13v-25q0 -7 -5 -13q-6 -5 -14 -5h-525z
" />
    <glyph glyph-name="" unicode="&#x115;" horiz-adv-x="624" 
d="M123 928v4q0 6 3 11t12 5h18q8 0 12 -4q3 -5 6 -11q11 -49 48 -81q37 -33 89 -33q50 0 88 33q38 32 49 81q2 7 6 11t11 4h20q8 0 11 -5q4 -5 4 -11q0 -2 -1 -4q-10 -66 -63 -112t-125 -46q-74 0 -125 47q-51 46 -63 111zM123 928v4q0 6 3 11t12 5h18q8 0 12 -4
q3 -5 6 -11q11 -49 48 -81q37 -33 89 -33q50 0 88 33q38 32 49 81q2 7 6 11t11 4h20q8 0 11 -5q4 -5 4 -11q0 -2 -1 -4q-10 -66 -63 -112t-125 -46q-74 0 -125 47q-51 46 -63 111zM583 325q0 -17 -3 -36q-2 -20 -18 -20h-458q4 -92 66 -159q61 -67 158 -67q23 0 45 3
q21 4 40 9v1h-1q3 1 6 1l6 2l10 4l10 4l10 5q5 3 9 6q-5 4 -8 9q-4 5 -6 11q-8 27 5 46q12 19 34 25q25 8 44 -4t27 -38q5 -19 -2 -40t-31 -39q-25 -21 -82 -42t-121 -21q-131 0 -206 89q-76 88 -76 214q0 43 10 83q9 40 28 74q34 64 97 103q62 39 147 39q113 0 187 -74
q73 -74 73 -188zM520 321q0 84 -50 146q-50 63 -147 63q-94 0 -153 -60q-59 -61 -65 -149h415z" />
    <glyph glyph-name="" unicode="&#x116;" 
d="M251 1191q0 21 14 36q14 14 35 14t35 -14q13 -15 13 -36q0 -20 -13 -34q-14 -14 -35 -14t-35 14t-14 34zM60 943v-396h455q7 0 13 -6q5 -6 5 -13v-24q0 -8 -5 -14q-6 -5 -13 -5h-455v-425h436q-3 5 -4 11q-2 5 -1 11q1 28 19 42t41 13q26 -2 40 -19q13 -16 13 -40
q0 -2 -1 -5q-1 -28 -29 -50q-27 -21 -85 -23v0h-479q-8 0 -13 6q-6 5 -6 13v362v605q0 7 6 13q5 5 13 5h575q7 0 13 -5q6 -6 6 -13v-25q0 -7 -6 -13q-6 -5 -13 -5h-525z" />
    <glyph glyph-name="" unicode="&#x117;" horiz-adv-x="624" 
d="M253 890q0 22 16 38t38 16q23 0 39 -16t16 -38t-16 -39q-16 -16 -39 -16q-22 0 -38 16q-16 17 -16 39zM583 325q0 -17 -3 -36q-2 -20 -18 -20h-458q4 -92 66 -159q61 -67 158 -67q23 0 45 3q21 4 40 9v1h-1q3 1 6 1l6 2l10 4l10 4l10 5q5 3 9 6q-5 4 -8 9q-4 5 -6 11
q-8 27 5 46q12 19 34 25q25 8 44 -4t27 -38q5 -19 -2 -40t-31 -39q-25 -21 -82 -42t-121 -21q-131 0 -206 89q-76 88 -76 214q0 43 10 83q9 40 28 74q34 64 97 103q62 39 147 39q113 0 187 -74q73 -74 73 -188zM520 321q0 84 -50 146q-50 63 -147 63q-94 0 -153 -60
q-59 -61 -65 -149h415z" />
    <glyph glyph-name="" unicode="&#x118;" horiz-adv-x="735" 
d="M598 16l43 -6l-28 -19q-28 -20 -52 -56q-14 -20 -23 -45q-9 -24 -9 -53q0 -49 33 -73q32 -23 73 -23q33 0 55 8t34 13q7 3 12 1q6 -3 7 -12q0 -5 1 -15q1 -2 1 -3q0 -6 -3 -10q-3 -5 -9 -10q-13 -7 -42 -16q-28 -8 -63 -8q-60 0 -107 33q-48 32 -48 108q0 31 10 57
q9 26 23 47q27 39 57 60q31 21 35 22zM151 943v-396h455q7 0 13 -6q5 -6 5 -13v-24q0 -8 -5 -14q-6 -5 -13 -5h-455v-425h436q-3 5 -4 11q-2 5 -2 11q2 28 20 42t41 13q26 -2 40 -19q13 -16 13 -40q0 -2 -1 -5q-1 -28 -29 -50q-27 -21 -86 -23v0h-478q-8 0 -14 6q-5 5 -5 13
v362v605q0 7 5 13q6 5 14 5h575q7 0 13 -5q6 -6 6 -13v-25q0 -7 -6 -13q-6 -5 -13 -5h-525z" />
    <glyph glyph-name="" unicode="&#x119;" horiz-adv-x="624" 
d="M310 16l43 -6l-27 -19q-28 -20 -53 -56q-13 -20 -22 -45q-9 -24 -9 -53q0 -49 32 -73q33 -23 74 -23q32 0 54 8q23 8 35 13q6 3 12 1q5 -3 6 -12q1 -5 2 -15v-3q0 -6 -2 -10q-3 -5 -10 -10q-13 -7 -41 -16q-29 -8 -63 -8q-61 0 -108 33q-47 32 -47 108q0 31 9 57
q10 26 24 47q26 39 57 60q30 21 34 22zM583 325q0 -17 -3 -36q-2 -20 -18 -20h-458q4 -92 66 -159q61 -67 158 -67q23 0 45 3q21 4 40 9v1h-1q3 1 6 1l6 2l10 4l10 4l10 5q5 3 9 6q-5 4 -8 9q-4 5 -6 11q-8 27 5 46q12 19 34 25q25 8 44 -4t27 -38q5 -19 -2 -40t-31 -39
q-25 -21 -82 -42t-121 -21q-131 0 -206 89q-76 88 -76 214q0 43 10 83q9 40 28 74q34 64 97 103q62 39 147 39q113 0 187 -74q73 -74 73 -188zM520 321q0 84 -50 146q-50 63 -147 63q-94 0 -153 -60q-59 -61 -65 -149h415z" />
    <glyph glyph-name="" unicode="&#x11a;" 
d="M476 1280q5 -5 13 -16q3 -3 3 -7q0 -2 -1 -3q-2 -6 -7 -10l-174 -140q-3 -4 -7 -6t-7 -2h-5t-7 2t-7 6l-174 140q-5 4 -7 10q-1 1 -1 3q0 4 3 7l13 16q3 4 8 7q5 2 13 -4l162 -121l161 121q6 5 11 4h2q5 -3 8 -7zM64 943v-396h454q8 0 14 -6q5 -6 5 -13v-24q0 -8 -5 -14
q-6 -5 -14 -5h-454v-425h436q-3 5 -5 11q-1 5 -1 11q2 28 20 42t41 13q25 -2 40 -19q12 -16 12 -40v-5q-1 -28 -29 -50q-27 -21 -86 -23v0h-479q-7 0 -13 6q-5 5 -5 13v362v605q0 7 5 13q6 5 13 5h576q7 0 13 -5q5 -6 5 -13v-25q0 -7 -5 -13q-6 -5 -13 -5h-525z" />
    <glyph glyph-name="" unicode="&#x11b;" horiz-adv-x="624" 
d="M502 968q4 -6 13 -16q3 -4 3 -7q0 -2 -1 -4q-3 -5 -8 -9l-174 -141q-3 -3 -7 -5t-7 -2h-4t-7 2t-7 5l-174 141q-5 4 -8 9q-1 2 -1 4q0 3 3 7l13 16q3 4 8 6q1 1 3 1q4 0 11 -5l162 -120l160 120q9 7 14 4q5 -2 8 -6zM583 325q0 -17 -3 -36q-2 -20 -18 -20h-458
q4 -92 66 -159q61 -67 158 -67q23 0 45 3q21 4 40 9v1h-1q3 1 6 1l6 2l10 4l10 4l10 5q5 3 9 6q-5 4 -8 9q-4 5 -6 11q-8 27 5 46q12 19 34 25q25 8 44 -4t27 -38q5 -19 -2 -40t-31 -39q-25 -21 -82 -42t-121 -21q-131 0 -206 89q-76 88 -76 214q0 43 10 83q9 40 28 74
q34 64 97 103q62 39 147 39q113 0 187 -74q73 -74 73 -188zM520 321q0 84 -50 146q-50 63 -147 63q-94 0 -153 -60q-59 -61 -65 -149h415z" />
    <glyph glyph-name="" unicode="&#x11c;" 
d="M122 1104q-5 5 -13 16q-3 3 -3 7q0 1 1 3q2 5 8 10l173 140q3 3 7 5t8 2h4t7 -2t7 -5l174 -140q5 -5 7 -10q1 -2 1 -3q0 -4 -2 -7l-13 -16q-4 -5 -8 -7q-5 -3 -14 4l-162 120l-161 -120q-6 -5 -10 -5q-2 0 -3 1q-5 2 -8 7zM621 845q-59 51 -133 81q-74 29 -157 29
q-66 0 -126 -18t-111 -50q-95 -60 -152 -162q-58 -101 -58 -222t58 -222q57 -102 152 -162q51 -32 111 -50t126 -18q85 0 149 17q63 17 100 35q21 9 33 17q12 7 16 10v270h-245q-12 0 -16 4q-3 5 -3 14v29q0 9 3 13q4 4 16 4h294q7 0 13 -5q5 -5 5 -12v-333q0 -16 -5 -23
q-6 -8 -15 -14q-6 -5 -23 -14q-16 -9 -40 -20q-46 -20 -118 -39q-71 -19 -163 -19q-141 0 -257 66t-185 176q-37 59 -57 128t-20 145t20 145t57 128q69 111 185 178q117 67 257 67q98 0 177 -29q78 -29 143 -81q51 -37 61 -72q5 -14 5 -26q0 -19 -10 -34q-15 -22 -36 -28
q-22 -6 -44 8q-19 12 -25 34q-7 22 9 45l4 6q2 2 5 4z" />
    <glyph glyph-name="" unicode="&#x11d;" horiz-adv-x="635" 
d="M130 790l-13 16q-3 3 -3 7q1 1 1 3q3 5 8 10l174 140q3 3 7 5t7 2h4t7 -2t8 -5l173 -140q6 -5 8 -10q1 -2 1 -3q0 -4 -3 -7q-4 -6 -13 -16q-3 -5 -8 -7q-5 -3 -14 4l-162 120l-160 -120q-7 -5 -11 -5q-1 0 -3 1q-5 2 -8 7zM624 -211q0 -32 -10 -63q-11 -30 -30 -57
q-37 -50 -102 -82t-150 -32q-121 0 -187 50t-85 111v0v0q-24 67 -12 106q12 38 42 49q25 9 46 0q21 -8 29 -33q8 -21 0 -42q-8 -22 -34 -31l-8 -2h-7q6 -56 60 -103q55 -46 154 -46q97 0 163 50q65 50 65 124q0 49 -33 87q-33 39 -113 39h-181h-40t-48 4q-14 3 -41 17
q-27 13 -47 40q-11 15 -17 33q-7 18 -7 41q0 25 6 46q7 21 17 37q18 32 41 49t30 21q-11 15 -28 53q-16 39 -16 90q0 104 67 173q68 70 184 70h34h69h55h77q9 0 14 -6q5 -5 5 -13v-16q0 -5 -4 -10q-3 -6 -9 -7q-35 -2 -103 -7q20 -11 54 -53q34 -41 34 -131q0 -95 -64 -166
q-64 -72 -174 -72q-64 0 -103 19q-39 18 -53 33q-5 -2 -23 -13t-32 -32q-8 -12 -13 -26q-5 -15 -5 -32q0 -51 36 -67q35 -16 77 -16h208q93 0 153 -44q59 -44 59 -140zM140 347q0 -75 46 -130q46 -54 136 -54q80 0 128 54t48 130q0 90 -52 137q-53 46 -124 46
q-83 0 -133 -53q-49 -53 -49 -130z" />
    <glyph glyph-name="Gbreve" unicode="&#x11e;" 
d="M106 1268q-1 2 -1 3q0 6 3 11q3 6 12 6h19q7 0 11 -5q4 -6 6 -12q13 -48 49 -80t89 -32q49 0 87 32t49 80q2 7 6 12q5 5 11 5h20q8 0 12 -6q3 -5 3 -11v-3q-12 -68 -64 -114q-52 -45 -124 -45q-75 0 -127 46t-61 113zM624 845q-59 51 -133 81q-74 29 -158 29
q-65 0 -125 -18t-111 -50q-95 -60 -153 -162q-57 -101 -57 -222q0 -65 17 -125q18 -61 49 -112q59 -97 159 -156t221 -59q86 0 149 17q64 17 101 35q20 9 33 17q12 7 16 10v270h-246q-12 0 -15 4q-3 5 -3 14v29q0 9 3 13t15 4h294q8 0 13 -5q6 -5 6 -12v-333q0 -16 -6 -23
q-5 -8 -14 -14q-7 -5 -23 -14t-41 -20q-45 -20 -117 -39t-163 -19q-76 0 -146 20q-69 20 -129 56q-110 68 -177 183q-68 116 -68 256q0 76 21 145q20 69 57 128q68 111 185 178q116 67 257 67q98 0 176 -29t144 -81q50 -37 61 -72q4 -14 4 -26q0 -19 -9 -34q-15 -22 -37 -28
q-21 -6 -43 8q-19 12 -25 34q-7 22 8 45q2 3 5 6q2 2 5 4z" />
    <glyph glyph-name="gbreve" unicode="&#x11f;" horiz-adv-x="635" 
d="M131 928v4q0 6 2 11q4 5 12 5h19q8 0 11 -4q4 -5 6 -11q12 -49 49 -81q36 -33 89 -33q50 0 88 33q38 32 48 81q2 7 7 11q4 4 11 4h20q7 0 11 -5q3 -5 3 -11v-4q-11 -66 -63 -112q-53 -46 -125 -46q-74 0 -125 47q-51 46 -63 111zM131 928v4q0 6 2 11q4 5 12 5h19
q8 0 11 -4q4 -5 6 -11q12 -49 49 -81q36 -33 89 -33q50 0 88 33q38 32 48 81q2 7 7 11q4 4 11 4h20q7 0 11 -5q3 -5 3 -11v-4q-11 -66 -63 -112q-53 -46 -125 -46q-74 0 -125 47q-51 46 -63 111zM624 -211q0 -32 -10 -63q-11 -30 -30 -57q-37 -50 -102 -82t-150 -32
q-121 0 -187 50t-85 111v0v0q-24 67 -12 106q12 38 42 49q25 9 46 0q21 -8 29 -33q8 -21 0 -42q-8 -22 -34 -31l-8 -2h-7q6 -56 60 -103q55 -46 154 -46q97 0 163 50q65 50 65 124q0 49 -33 87q-33 39 -113 39h-181h-40t-48 4q-14 3 -41 17q-27 13 -47 40q-11 15 -17 33
q-7 18 -7 41q0 25 6 46q7 21 17 37q18 32 41 49t30 21q-11 15 -28 53q-16 39 -16 90q0 104 67 173q68 70 184 70h34h69h55h77q9 0 14 -6q5 -5 5 -13v-16q0 -5 -4 -10q-3 -6 -9 -7q-35 -2 -103 -7q20 -11 54 -53q34 -41 34 -131q0 -95 -64 -166q-64 -72 -174 -72
q-64 0 -103 19q-39 18 -53 33q-5 -2 -23 -13t-32 -32q-8 -12 -13 -26q-5 -15 -5 -32q0 -51 36 -67q35 -16 77 -16h208q93 0 153 -44q59 -44 59 -140zM140 347q0 -75 46 -130q46 -54 136 -54q80 0 128 54t48 130q0 90 -52 137q-53 46 -124 46q-83 0 -133 -53
q-49 -53 -49 -130z" />
    <glyph glyph-name="" unicode="&#x120;" 
d="M263 1191q0 21 14 36q15 14 35 14q22 0 35 -14q14 -15 14 -36q0 -20 -14 -34q-13 -14 -35 -14q-20 0 -35 14q-14 14 -14 34zM624 845q-59 51 -133 81q-74 29 -158 29q-65 0 -125 -18t-111 -50q-95 -60 -153 -162q-57 -101 -57 -222q0 -65 17 -125q18 -61 49 -112
q59 -97 159 -156t221 -59q86 0 149 17q64 17 101 35q20 9 33 17q12 7 16 10v270h-246q-12 0 -15 4q-3 5 -3 14v29q0 9 3 13t15 4h294q8 0 13 -5q6 -5 6 -12v-333q0 -16 -6 -23q-5 -8 -14 -14q-7 -5 -23 -14t-41 -20q-45 -20 -117 -39t-163 -19q-76 0 -146 20q-69 20 -129 56
q-110 68 -177 183q-68 116 -68 256q0 76 21 145q20 69 57 128q68 111 185 178q116 67 257 67q98 0 176 -29t144 -81q50 -37 61 -72q4 -14 4 -26q0 -19 -9 -34q-15 -22 -37 -28q-21 -6 -43 8q-19 12 -25 34q-7 22 8 45q2 3 5 6q2 2 5 4z" />
    <glyph glyph-name="" unicode="&#x121;" horiz-adv-x="635" 
d="M257 890q0 22 16 38t39 16q22 0 38 -16t16 -38t-16 -39q-16 -16 -38 -16q-23 0 -39 16q-16 17 -16 39zM624 -211q0 -32 -10 -63q-11 -30 -30 -57q-37 -50 -102 -82t-150 -32q-121 0 -187 50t-85 111v0v0q-24 67 -12 106q12 38 42 49q25 9 46 0q21 -8 29 -33q8 -21 0 -42
q-8 -22 -34 -31l-8 -2h-7q6 -56 60 -103q55 -46 154 -46q97 0 163 50q65 50 65 124q0 49 -33 87q-33 39 -113 39h-181h-40t-48 4q-14 3 -41 17q-27 13 -47 40q-11 15 -17 33q-7 18 -7 41q0 25 6 46q7 21 17 37q18 32 41 49t30 21q-11 15 -28 53q-16 39 -16 90q0 104 67 173
q68 70 184 70h34h69h55h77q9 0 14 -6q5 -5 5 -13v-16q0 -5 -4 -10q-3 -6 -9 -7q-35 -2 -103 -7q20 -11 54 -53q34 -41 34 -131q0 -95 -64 -166q-64 -72 -174 -72q-64 0 -103 19q-39 18 -53 33q-5 -2 -23 -13t-32 -32q-8 -12 -13 -26q-5 -15 -5 -32q0 -51 36 -67
q35 -16 77 -16h208q93 0 153 -44q59 -44 59 -140zM140 347q0 -75 46 -130q46 -54 136 -54q80 0 128 54t48 130q0 90 -52 137q-53 46 -124 46q-83 0 -133 -53q-49 -53 -49 -130z" />
    <glyph glyph-name="" unicode="&#x122;" horiz-adv-x="1008" 
d="M520 -150q31 0 56 -32q24 -32 24 -103q0 -30 -6 -56t-16 -47q-19 -40 -43 -64q-25 -24 -38 -32q-7 -4 -14 -5h-1q-5 0 -9 5t-12 14q-3 4 -3 9v3q1 6 9 11q2 2 8 7q7 5 16 13q16 16 34 45t22 71q1 17 -1 30q-2 14 -6 25q-5 -3 -11 -5q-5 -2 -12 -2q-28 0 -43 17
q-14 18 -14 40q0 26 16 41q17 15 44 15zM829 845q-59 51 -133 81q-74 29 -158 29q-65 0 -125 -18t-111 -50q-95 -60 -152 -162q-58 -101 -58 -222q0 -65 18 -125q17 -61 48 -112q59 -97 159 -156t221 -59q86 0 149 17q64 17 101 35q21 9 33 17q12 7 16 10v270h-246
q-11 0 -15 4q-3 5 -3 14v29q0 9 3 13q4 4 15 4h295q7 0 13 -5q5 -5 5 -12v-333q0 -16 -6 -23q-5 -8 -14 -14q-7 -5 -23 -14t-40 -20q-46 -20 -118 -39t-163 -19q-76 0 -145 20q-70 20 -129 56q-111 68 -178 183q-68 116 -68 256q0 76 21 145q20 69 57 128q69 111 185 178
t257 67q98 0 176 -29q79 -29 144 -81q51 -37 61 -72q4 -14 4 -26q1 -19 -9 -34q-15 -22 -36 -28q-22 -6 -44 8q-19 12 -25 34q-7 22 8 45q2 3 5 6q2 2 5 4z" />
    <glyph glyph-name="" unicode="&#x123;" horiz-adv-x="635" 
d="M249 904q0 56 20 97q19 42 42 67q12 14 23 23t18 13q8 4 14 5h1q6 0 10 -5q3 -5 11 -14q3 -4 3 -9v-3q-1 -6 -9 -11q-3 -3 -21 -18t-34 -43q-9 -15 -16 -34t-9 -42q-1 -16 1 -30q2 -13 6 -24q6 3 11 5q6 2 12 2q28 0 43 -17q14 -18 14 -40q0 -26 -16 -41q-17 -15 -44 -15
q-31 0 -56 32q-24 31 -24 102zM624 -211q0 -32 -10 -63q-11 -30 -30 -57q-37 -50 -102 -82t-150 -32q-121 0 -187 50t-85 111v0v0q-24 67 -12 106q12 38 42 49q25 9 46 0q21 -8 29 -33q8 -21 0 -42q-8 -22 -34 -31l-8 -2h-7q6 -56 60 -103q55 -46 154 -46q97 0 163 50
q65 50 65 124q0 49 -33 87q-33 39 -113 39h-181h-40t-48 4q-14 3 -41 17q-27 13 -47 40q-11 15 -17 33q-7 18 -7 41q0 25 6 46q7 21 17 37q18 32 41 49t30 21q-11 15 -28 53q-16 39 -16 90q0 104 67 173q68 70 184 70h34h69h55h77q9 0 14 -6q5 -5 5 -13v-16q0 -5 -4 -10
q-3 -6 -9 -7q-35 -2 -103 -7q20 -11 54 -53q34 -41 34 -131q0 -95 -64 -166q-64 -72 -174 -72q-64 0 -103 19q-39 18 -53 33q-5 -2 -23 -13t-32 -32q-8 -12 -13 -26q-5 -15 -5 -32q0 -51 36 -67q35 -16 77 -16h208q93 0 153 -44q59 -44 59 -140zM140 347q0 -75 46 -130
q46 -54 136 -54q80 0 128 54t48 130q0 90 -52 137q-53 46 -124 46q-83 0 -133 -53q-49 -53 -49 -130z" />
    <glyph glyph-name="" unicode="&#x124;" 
d="M108 1104q-5 5 -13 16q-3 3 -3 7q0 1 1 3q2 5 8 10l173 140q3 3 7 5t8 2h4t7 -2t7 -5l174 -140q5 -5 8 -10v-3q0 -4 -2 -7l-13 -16q-4 -5 -8 -7q-5 -3 -14 4l-162 120l-161 -120q-6 -5 -10 -5q-2 0 -3 1q-5 2 -8 7zM-36 17q0 -7 -5 -13q-5 -5 -14 -5h-30q-8 0 -13 5
q-6 6 -6 13v364v603q0 8 6 13q5 6 13 6h30q9 0 14 -6q5 -5 5 -13v-967zM675 984v-967q0 -7 -5 -13q-5 -5 -13 -5h-31q-7 0 -13 5q-5 6 -5 13v466h-486q3 -5 4 -10q2 -5 2 -11q-2 -28 -20 -42q-18 -13 -41 -12q-26 1 -40 19q-13 16 -13 39q0 3 1 5q1 31 34 54q33 22 102 19
h457v440q0 8 5 13q6 6 13 6h31q8 0 13 -6q5 -5 5 -13z" />
    <glyph glyph-name="" unicode="&#x125;" horiz-adv-x="623" 
d="M-70 1115l-13 16q-3 3 -3 7q0 2 1 3q2 6 8 10l173 141q4 3 8 5t7 2h4t7 -2t7 -5l174 -141q5 -4 8 -10q1 -1 1 -3q0 -4 -3 -7l-13 -16q-3 -4 -8 -7q-5 -2 -14 4l-162 121l-160 -121q-7 -5 -11 -4h-3q-5 3 -8 7zM582 325v-332v-2v-3q-2 -50 -22 -75t-46 -28h-8
q-22 0 -37 11q-18 14 -21 40q-2 22 11 41q13 18 41 21h10q5 -1 9 -3v330q0 99 -44 150q-45 51 -126 51q-32 0 -59 -8q-28 -8 -51 -19q-42 -21 -67 -46q-26 -24 -28 -28v-407q0 -9 -5 -14q-4 -5 -14 -5h-27q-8 0 -12 6q-4 5 -4 13v363v603q0 8 6 13q5 6 14 6h23q7 0 13 -6
q6 -5 6 -13v-489q9 9 35 32q27 22 68 39q23 9 49 15t56 6q111 0 171 -67q59 -67 59 -195z" />
    <glyph glyph-name="" unicode="&#x126;" 
d="M-102 777h-37q-8 0 -12 6q-5 5 -5 14v6q0 7 5 13q4 5 12 5h37v164q0 7 6 13q5 6 13 6h30q9 0 14 -6t5 -13v-164h644v164q0 13 10 16q11 3 23 3h17q8 0 13 -6q6 -6 6 -13v-164h37q10 0 14 -6q5 -7 5 -15v-6q0 -7 -5 -12t-14 -5h-37v-759q0 -8 -6 -13q-5 -6 -13 -6
q-15 0 -33 1q-17 1 -17 18v466h-644v-466q0 -8 -6 -13q-7 -6 -17 -6h-26q-8 0 -13 6q-6 5 -6 13v759v0zM610 546v231h-644v-231h644v0z" />
    <glyph glyph-name="" unicode="&#x127;" 
d="M32 777h-56q-8 0 -13 6q-4 6 -4 14v6q0 7 5 13q5 5 12 5h56v164q0 7 6 13q5 5 13 5h24q8 0 13 -5q6 -6 6 -13v-164h274q10 0 14 -6q5 -7 5 -15v-6q0 -6 -6 -12q-6 -5 -13 -5h-274v-281q5 4 15 14q10 9 25 20q27 20 70 39q43 18 98 18q112 0 171 -67q60 -67 60 -195v-307
q0 -8 -6 -13q-5 -6 -13 -6h-26q-7 0 -13 6q-5 5 -5 13v307q0 99 -45 150q-44 51 -126 51q-31 0 -59 -8q-27 -7 -50 -19q-43 -21 -68 -46q-25 -24 -28 -28v-407q0 -9 -6 -14q-7 -5 -14 -5h-23q-8 0 -13 6q-6 5 -6 13v759z" />
    <glyph glyph-name="" unicode="&#x128;" 
d="M90 1154q-7 2 -9 8q-1 3 -1 6t1 6l8 19q5 13 12 27q15 27 42 52t72 25q50 0 71 -32l39 -61q10 -16 22 -27q12 -10 30 -10q40 0 57 32q18 33 25 52q2 8 8 11q7 3 13 -1q5 -1 16 -5q4 -2 7 -6q2 -3 2 -7v-6q-2 -6 -13 -36q-12 -30 -39 -55q-14 -14 -34 -23t-46 -9
q-27 0 -44 10q-18 11 -31 27q-23 29 -39 62t-49 33q-40 0 -58 -35q-17 -34 -23 -54q-3 -8 -8 -11q-6 -3 -14 1q-6 2 -17 7zM249 984q0 8 6 13q5 6 13 6h32q7 0 13 -6q5 -5 5 -13v-644v-323q0 -8 -6 -13t-14 -5h-30q-8 0 -13 5q-6 6 -6 13v457v510z" />
    <glyph glyph-name="" unicode="&#x129;" horiz-adv-x="262" 
d="M-77 837q-6 2 -8 8q-1 3 -1 6t1 6q2 7 7 19q5 13 13 27q14 27 41 52q27 26 72 26q27 0 45 -11t30 -26q23 -29 38 -62q16 -32 49 -32q40 0 58 33q18 32 24 52q2 7 9 10q6 3 13 0l15 -6q5 -2 8 -6q2 -3 2 -7q0 -2 -1 -6q-1 -5 -13 -35q-11 -30 -39 -56q-14 -14 -34 -23
t-46 -9t-44 11q-18 10 -30 26q-24 29 -39 62q-16 33 -49 33q-41 0 -58 -34q-18 -35 -24 -55q-2 -8 -8 -10q-6 -3 -14 0zM99 555q0 8 6 13q5 6 13 6h26q7 0 13 -6q5 -5 5 -13v-536q0 -9 -4 -14q-5 -5 -14 -5h-29q-8 0 -12 6q-4 5 -4 13v201v335z" />
    <glyph glyph-name="" unicode="&#x12a;" 
d="M67 1210v17q0 9 5 14t13 5h391q7 0 13 -5q5 -5 5 -14v-17q0 -8 -5 -13q-6 -6 -13 -6h-391q-8 0 -13 6q-5 5 -5 13zM249 984q0 8 6 13q5 6 13 6h32q7 0 13 -6q5 -5 5 -13v-644v-323q0 -8 -6 -13t-14 -5h-30q-8 0 -13 5q-6 6 -6 13v457v510z" />
    <glyph glyph-name="" unicode="&#x12b;" horiz-adv-x="262" 
d="M-90 868v18q0 8 5 14q5 5 14 5h390q8 0 13 -5q6 -6 6 -14v-18q0 -8 -6 -13q-5 -4 -13 -4h-390q-9 0 -14 4q-5 5 -5 13zM99 555q0 8 6 13q5 6 13 6h26q7 0 13 -6q5 -5 5 -13v-536q0 -9 -4 -14q-5 -5 -14 -5h-29q-8 0 -12 6q-4 5 -4 13v201v335z" />
    <glyph glyph-name="" unicode="&#x12c;" 
d="M106 1268q-1 2 -1 3q0 6 3 11q3 6 12 6h19q7 0 11 -5q4 -6 6 -12q13 -48 49 -80t89 -32q49 0 87 32t49 80q2 7 6 12q5 5 11 5h20q8 0 12 -6q3 -5 3 -11v-3q-12 -68 -64 -114q-52 -45 -124 -45q-75 0 -127 46t-61 113zM266 984q0 8 5 13q6 6 13 6h32q7 0 13 -6q6 -5 6 -13
v-589v-378q0 -8 -7 -13q-6 -5 -14 -5h-30q-7 0 -13 5q-5 6 -5 13v457v510z" />
    <glyph glyph-name="" unicode="&#x12d;" horiz-adv-x="262" 
d="M-59 928v4q0 6 2 11q4 5 12 5h19q8 0 11 -4q4 -5 6 -11q12 -49 49 -81q36 -33 89 -33q50 0 88 33q38 32 48 81q2 7 7 11q4 4 11 4h20q7 0 11 -5q3 -5 3 -11v-4q-11 -66 -63 -112q-53 -46 -125 -46q-74 0 -125 47q-51 46 -63 111zM-59 928v4q0 6 2 11q4 5 12 5h19
q8 0 11 -4q4 -5 6 -11q12 -49 49 -81q36 -33 89 -33q50 0 88 33q38 32 48 81q2 7 7 11q4 4 11 4h20q7 0 11 -5q3 -5 3 -11v-4q-11 -66 -63 -112q-53 -46 -125 -46q-74 0 -125 47q-51 46 -63 111zM99 555q0 8 6 13q5 6 13 6h26q7 0 13 -6q5 -5 5 -13v-536q0 -9 -4 -14
q-5 -5 -14 -5h-29q-8 0 -12 6q-4 5 -4 13v201v335z" />
    <glyph glyph-name="" unicode="&#x12e;" horiz-adv-x="233" 
d="M104 16l43 -6l-28 -19q-28 -20 -52 -56q-14 -20 -23 -45q-9 -24 -9 -53q0 -49 33 -73q32 -23 73 -23q33 0 55 8t34 13q7 3 12 1q6 -3 7 -12q0 -5 1 -15q1 -2 1 -3q0 -6 -3 -10q-3 -5 -9 -10q-13 -7 -42 -16q-29 -8 -63 -8q-60 0 -108 33q-47 32 -47 108q0 31 10 57
q9 26 23 47q27 39 57 60q31 21 35 22zM82 984q0 8 5 13q6 6 14 6h31q8 0 13 -6q6 -5 6 -13v-967q0 -8 -6 -13q-7 -5 -14 -5h-30q-8 0 -14 5q-5 6 -5 13v363v604z" />
    <glyph glyph-name="" unicode="&#x12f;" horiz-adv-x="262" 
d="M117 16l43 -6l-28 -19q-28 -20 -52 -56q-14 -20 -23 -45q-9 -24 -9 -53q0 -49 33 -73q33 -23 73 -23q33 0 55 8q23 8 34 13q7 3 12 1q6 -3 7 -12q0 -5 1 -15q1 -2 1 -3q0 -6 -3 -10q-3 -5 -9 -10q-13 -7 -42 -16q-28 -8 -63 -8q-60 0 -107 33q-48 32 -48 108q0 31 10 57
q9 26 23 47q27 39 57 60q31 21 35 22zM82 902q0 21 14 36q14 14 35 14q20 0 34 -14q14 -15 14 -36q0 -19 -14 -33t-34 -14q-21 0 -35 14t-14 33zM99 555q0 8 6 13q5 6 13 6h26q7 0 13 -6q5 -5 5 -13v-536q0 -9 -4 -14q-5 -5 -14 -5h-29q-8 0 -12 6q-4 5 -4 13v201v335z" />
    <glyph glyph-name="Idotaccent" unicode="&#x130;" 
d="M242 1191q0 21 14 36q14 14 35 14t35 -14q14 -15 14 -36q0 -20 -14 -34t-35 -14t-35 14t-14 34zM258 984q0 8 6 13q5 6 13 6h31q8 0 14 -6q5 -5 5 -13v-644v-323q0 -8 -6 -13t-14 -5h-30q-8 0 -13 5q-6 6 -6 13v457v510z" />
    <glyph glyph-name="dotlessi" unicode="&#x131;" 
d="M231 902q0 20 14 35t34 15q21 0 35 -15t14 -35q0 -19 -14 -33t-35 -14q-20 0 -34 14t-14 33zM248 555q0 8 5 13q6 6 13 6h26q8 0 13 -6q6 -5 6 -13v-256v-280q0 -9 -5 -14q-4 -5 -14 -5h-28q-8 0 -12 6q-4 5 -4 13v242v294z" />
    <glyph glyph-name="" unicode="&#x132;" 
d="M-55 986q0 8 6 13q5 6 13 6h31q8 0 13 -6q6 -5 6 -13v-967q0 -8 -6 -13q-7 -5 -14 -5h-30q-8 0 -13 5q-6 6 -6 13v363v604zM628 986v-683q0 -150 -75 -234q-75 -83 -203 -83q-85 0 -136 35t-74 61q-40 42 -44 76q-1 6 0 12q0 26 15 43q17 21 40 23q22 3 41 -14
q17 -15 21 -38q3 -22 -15 -43q-4 -4 -8 -7q-5 -3 -9 -5q23 -24 63 -53t107 -29q91 0 150 63q59 64 59 192v684q0 9 6 14t15 5h28q8 0 13 -6q6 -5 6 -13z" />
    <glyph glyph-name="" unicode="&#x133;" 
d="M133 902q0 20 14 35t35 15q20 0 34 -15q15 -15 15 -35t-15 -34q-14 -14 -34 -14q-21 0 -35 14t-14 34zM150 555q0 7 6 13q5 5 13 5h26q7 0 13 -5q5 -6 5 -13v-537q0 -8 -4 -13q-5 -5 -14 -5h-29q-7 0 -12 5q-4 6 -4 13v202v335zM491 555v-752q0 -127 -57 -187
q-57 -61 -152 -61q-31 0 -58 7q-27 8 -49 18v0v1q-1 0 -2 1q-1 0 -2 1q-54 25 -70 57q-10 19 -10 36q0 12 5 22q10 25 30 35t44 0q21 -8 31 -28q11 -20 1 -46q-3 -6 -7 -11q-3 -4 -8 -8v0v0q18 -11 43 -19q24 -9 52 -9q68 0 108 46q40 45 40 145v752q0 7 5 13q6 5 13 5h25
q7 0 13 -5q5 -6 5 -13zM509 902q0 -20 -14 -34q-15 -14 -35 -14t-35 14q-14 14 -14 34t14 35t35 15q20 0 35 -15q14 -15 14 -35z" />
    <glyph glyph-name="" unicode="&#x134;" 
d="M311 1104q-4 5 -12 16q-3 3 -3 7q0 1 1 3q2 5 7 10l174 140q3 3 7 5t7 2h5t7 -2t7 -5l173 -140q6 -5 8 -10q1 -2 1 -3q0 -4 -3 -7q-4 -6 -13 -16q-3 -5 -8 -7q-5 -3 -13 4l-162 120l-161 -120q-6 -5 -11 -5q-1 0 -2 1q-5 2 -9 7zM532 986v-683q0 -150 -75 -233
q-75 -84 -203 -84q-84 0 -136 35q-51 35 -74 62q-39 41 -43 75q-1 7 -1 13q0 25 15 42q18 21 40 23q22 3 42 -14q17 -15 20 -38q3 -22 -15 -43q-4 -4 -8 -7t-9 -4q24 -25 64 -54t106 -29q92 0 151 63q59 64 59 192v684q0 9 6 14q5 5 14 5h29q7 0 13 -6q5 -5 5 -13z" />
    <glyph glyph-name="" unicode="&#x135;" horiz-adv-x="346" 
d="M26 790l-13 16q-3 3 -3 7q0 1 1 3q2 5 8 10l173 140q4 3 8 5t7 2h4t7 -2t7 -5l174 -140q5 -5 8 -10q0 -2 1 -3q0 -4 -3 -7l-13 -16q-3 -5 -8 -7q-5 -3 -14 4l-162 120l-160 -120q-7 -5 -11 -5q-2 0 -3 1q-5 2 -8 7zM247 554v-416v-335q0 -127 -58 -188q-57 -60 -152 -60
q-30 0 -57 7q-28 7 -49 18h-1v0q-1 1 -2 1q-1 1 -2 1q-53 26 -70 58q-9 19 -9 36q0 11 4 22q10 25 30 35t44 0q21 -8 32 -28q10 -20 0 -46q-2 -6 -6 -11q-4 -4 -9 -8v0v0q19 -11 43 -19q25 -9 52 -9q68 0 108 45q40 46 40 146v751q0 8 6 13q5 6 13 6h24q8 0 13 -6
q6 -5 6 -13z" />
    <glyph glyph-name="" unicode="&#x136;" 
d="M293 -150q32 0 56 -32q25 -32 25 -103q0 -30 -7 -56q-6 -26 -16 -47q-18 -40 -43 -64q-24 -24 -38 -32q-7 -4 -13 -5h-1q-6 0 -10 5l-11 14q-4 4 -4 9q0 1 1 3q1 6 8 11q4 3 22 18q17 15 34 43q9 15 16 34q6 18 9 41q1 17 -1 30q-2 14 -6 25q-6 -3 -11 -5q-6 -2 -12 -2
q-28 0 -43 17q-15 18 -15 40q0 26 17 41t43 15zM637 -1h-46q-10 0 -16 2q-7 3 -15 12l-491 476v-472q0 -11 -7 -15q-6 -3 -15 -3h-28q-9 0 -14 5t-5 13v362v602q0 10 6 16t16 6h25q10 0 16 -6t6 -16v-443l395 368q-4 2 -7 5q-4 3 -7 7q-16 22 -10 45q5 22 24 35q16 11 32 11
q5 0 11 -1q22 -5 37 -27q18 -24 7 -62q-10 -37 -64 -77l-352 -327l515 -492q4 -4 4 -10v-5q-3 -9 -17 -9z" />
    <glyph glyph-name="" unicode="&#x137;" horiz-adv-x="581" 
d="M299 -150q31 0 55 -32q25 -32 25 -103q0 -30 -6 -56q-7 -26 -17 -47q-18 -40 -43 -64q-24 -24 -37 -32q-8 -4 -14 -5h-1q-6 0 -10 5q-3 5 -11 14q-3 4 -3 9v3q1 6 9 11q3 3 21 18t34 43q9 15 16 34q7 18 9 41q1 17 -1 30q-2 14 -6 25q-6 -3 -11 -5q-6 -2 -12 -2
q-28 0 -43 17q-15 18 -15 40q0 26 17 41t44 15zM548 0h-44q-7 0 -13 2t-16 9l-331 286v-278q0 -9 -5 -14q-4 -5 -14 -5h-27q-8 0 -12 5q-4 6 -4 14v362v604q0 8 5 13q6 6 14 6h24q7 0 13 -6q6 -5 6 -13v-642l277 201q3 3 5 6q3 3 5 6q-6 3 -10 6q-5 4 -8 10q-15 23 -8 45
t26 34q22 13 43 7q22 -6 36 -29q14 -21 7 -52q-7 -30 -43 -61v-1q-1 0 -2 -1q-7 -6 -15 -12t-17 -11l-230 -170l345 -297q6 -5 6 -10q0 -3 -1 -6q-3 -8 -12 -8z" />
    <glyph glyph-name="" unicode="&#x138;" 
d="M41 555q0 7 6 13q5 5 13 5h24q8 0 13 -5q6 -6 6 -13v-244l320 254q5 4 11 6t12 2h41q11 0 12 -10q1 -9 -8 -16l-325 -258l348 -265q6 -5 6 -10q1 -3 -1 -6q-3 -9 -12 -9h-44q-7 0 -13 2t-16 10l-331 254v-247q0 -9 -5 -14q-4 -5 -14 -5h-27q-8 0 -12 6q-4 5 -4 13v201
v336z" />
    <glyph glyph-name="" unicode="&#x139;" horiz-adv-x="646" 
d="M82 1122q0 7 5 11q4 4 14 3q4 0 27 1q24 1 54 13q16 7 33 17q17 11 33 28q10 12 17 24t10 23q-6 1 -12 3q-5 2 -10 6q-22 17 -23 40q-1 22 13 40q15 21 38 22h4q20 0 39 -15q25 -19 25 -59t-44 -96q-18 -24 -39 -41q-21 -16 -42 -27q-39 -20 -73 -24q-23 -3 -37 -3h-12
q-9 2 -14 5q-6 3 -6 10v19zM626 72q-2 -31 -34 -53q-32 -23 -100 -20h-1h-390q-8 0 -14 5q-5 6 -5 13v363v604q0 8 5 13q6 6 14 6h31q7 0 12 -6q5 -5 5 -13v-925h369q-3 5 -4 10q-2 6 -1 12q1 28 19 41q19 14 41 13q26 -2 40 -19q13 -16 13 -40v-4z" />
    <glyph glyph-name="" unicode="&#x13a;" 
d="M99 1122q0 7 4 11q5 4 14 3q5 0 28 1t53 13q17 7 34 17q17 11 32 28q11 12 18 24t10 23q-6 1 -12 3q-5 2 -10 6q-23 17 -23 40q-1 22 12 40q16 21 39 22h3q21 0 40 -15q25 -19 25 -59t-44 -96q-18 -24 -39 -41q-21 -16 -42 -27q-39 -20 -73 -24q-23 -3 -37 -3h-13
q-8 2 -13 5q-6 3 -6 10v19zM258 984q0 8 6 13q5 6 13 6h31q8 0 14 -6q5 -5 5 -13v-644v-323q0 -8 -6 -13t-14 -5h-30q-8 0 -13 5q-6 6 -6 13v457v510z" />
    <glyph glyph-name="" unicode="&#x13b;" horiz-adv-x="646" 
d="M345 -150q31 0 56 -32q24 -32 24 -103q0 -30 -6 -56t-16 -47q-19 -40 -43 -64q-25 -24 -38 -32q-7 -4 -14 -5h-1q-5 0 -9 5t-12 14q-3 4 -3 9v3q1 6 9 11q4 3 21 18q18 15 35 43q8 15 15 34q7 18 9 41q1 17 -1 30q-2 14 -6 25q-5 -3 -11 -5q-5 -2 -12 -2q-28 0 -42 17
q-15 18 -15 40q0 26 17 41q16 15 43 15zM626 72q-2 -31 -34 -53q-32 -23 -100 -20h-1h-390q-8 0 -14 5q-5 6 -5 13v363v604q0 8 5 13q6 6 14 6h31q7 0 12 -6q5 -5 5 -13v-925h369q-3 5 -4 10q-2 6 -1 12q1 28 19 41q19 14 41 13q26 -2 40 -19q13 -16 13 -40v-4z" />
    <glyph glyph-name="" unicode="&#x13c;" horiz-adv-x="315" 
d="M189 -150q32 0 56 -32q25 -32 25 -103q0 -30 -7 -56q-6 -26 -16 -47q-19 -40 -43 -64t-38 -32q-7 -4 -13 -5h-2q-5 0 -9 5l-11 14q-4 4 -4 9v3q2 6 9 11q4 3 22 18q17 15 34 43q9 15 16 34q6 18 9 41q1 17 -1 30q-2 14 -7 25q-5 -3 -11 -5q-5 -2 -12 -2q-28 0 -42 17
q-15 18 -15 40q0 26 17 41q16 15 43 15zM213 985v-535v-431q0 -9 -5 -14q-4 -5 -14 -5h-29q-7 0 -11 6q-4 5 -4 13v991q-5 -3 -10 -4q-5 -2 -11 -2q-28 0 -43 17q-14 18 -14 40q0 26 16 41q17 15 44 15q30 0 55 -30q24 -30 25 -98q0 -1 1 -2v-2z" />
    <glyph glyph-name="" unicode="&#x13d;" horiz-adv-x="646" 
d="M311 697q-4 4 -4 9v3q2 6 9 11q4 3 22 18q17 15 34 43q9 15 16 34q6 19 9 42q1 16 -1 30q-2 13 -7 24q-5 -3 -10 -5q-6 -2 -13 -2q-27 0 -42 17q-15 18 -15 40q0 26 17 41q16 15 43 15q32 0 56 -32q25 -31 25 -103q0 -30 -7 -56q-6 -26 -16 -47q-19 -40 -43 -64t-38 -32
q-7 -4 -13 -5h-2q-5 0 -9 5zM626 72q-2 -31 -34 -53q-32 -23 -100 -20h-1h-390q-8 0 -14 5q-5 6 -5 13v363v604q0 8 5 13q6 6 14 6h31q7 0 12 -6q5 -5 5 -13v-925h369q-3 5 -4 10q-2 6 -1 12q1 28 19 41q19 14 41 13q26 -2 40 -19q13 -16 13 -40v-4z" />
    <glyph glyph-name="" unicode="&#x13e;" horiz-adv-x="315" 
d="M299 697q-3 4 -3 9v3q1 6 9 11q3 3 21 18t34 43q9 15 16 34t9 42q1 16 -1 30q-2 13 -6 24q-5 -3 -11 -5q-5 -2 -12 -2q-28 0 -43 17q-14 18 -14 40q0 26 16 41q17 15 44 15q31 0 56 -32q24 -31 24 -103q0 -30 -6 -56t-16 -47q-19 -40 -43 -64q-25 -24 -38 -32
q-8 -4 -14 -5h-1q-5 0 -9 5t-12 14zM213 985v-535v-431q0 -9 -5 -14q-4 -5 -14 -5h-29q-7 0 -11 6q-4 5 -4 13v991q-5 -3 -10 -4q-5 -2 -11 -2q-28 0 -43 17q-14 18 -14 40q0 26 16 41q17 15 44 15q30 0 55 -30q24 -30 25 -98q0 -1 1 -2v-2z" />
    <glyph glyph-name="" unicode="&#x13f;" 
d="M2 987q0 8 5 13q6 6 13 6h32q6 0 12 -6q5 -5 5 -13v-925h458q13 0 16 -6q2 -5 2 -13v-26q0 -7 -5 -11q-6 -4 -13 -4h-507q-7 0 -13 5q-5 6 -5 13v363v604zM455 510q0 22 16 38t39 16q22 0 38 -16t16 -38q0 -23 -16 -39t-38 -16q-23 0 -39 16t-16 39z" />
    <glyph glyph-name="" unicode="&#x140;" 
d="M170 986q0 7 5 13q6 5 13 5h26q8 0 13 -5q6 -6 6 -13v-589v-378q0 -9 -5 -14q-4 -5 -14 -5h-28q-8 0 -12 6q-4 5 -4 13v362v605zM362 515q0 23 16 39t39 16q22 0 38 -16t16 -39q0 -21 -16 -38q-16 -16 -38 -16q-23 0 -39 16q-16 17 -16 38z" />
    <glyph glyph-name="Lslash" unicode="&#x141;" 
d="M37 458l-47 -23q-7 -4 -13 -3q-7 2 -10 9q-2 3 -6 10q-2 3 -2 7q0 3 1 5q2 7 8 11l69 34v476q0 8 5 13q5 6 14 6h30q7 0 13 -6q5 -5 5 -13v-437l210 106q6 4 14 2q7 -2 10 -9q2 -3 5 -9q4 -6 1 -13t-9 -10l-231 -119v-436h473q12 0 15 -9q3 -10 3 -20v-13q0 -7 -5 -13
q-6 -5 -13 -5h-521q-9 0 -14 5q-5 6 -5 13v441z" />
    <glyph glyph-name="lslash" unicode="&#x142;" 
d="M230 480l-98 -48q-6 -4 -13 -2q-6 1 -10 7q-1 3 -4 9q-3 4 -3 9q0 2 1 5q2 7 8 10l119 61v454q0 8 5 13q6 6 14 6h24q7 0 13 -6q6 -5 6 -13v-420l165 85q6 4 13 1q6 -2 10 -9l4 -8q2 -4 2 -8v-4q-2 -7 -9 -11l-185 -96v-497q0 -8 -7 -13q-6 -5 -13 -5h-23q-8 0 -14 5
q-5 6 -5 13v462v0z" />
    <glyph glyph-name="" unicode="&#x143;" horiz-adv-x="966" 
d="M348 1122q0 7 5 11t14 3q5 0 28 1t53 13q16 7 33 17q17 11 33 28q11 12 18 24q6 12 10 23q-7 1 -12 3q-6 2 -11 6q-22 17 -23 40q-1 22 13 40q16 21 38 22h4q20 0 40 -15q24 -19 24 -59t-43 -96q-19 -24 -40 -41q-21 -16 -41 -27q-40 -20 -74 -24q-22 -3 -37 -3h-12
q-9 2 -14 5t-5 10q0 6 -1 19zM884 889v-887q0 -9 -7 -14q-7 -4 -16 -4h-19l-5 5q-4 4 -26 32q-9 12 -23 29l-33 42l-65 84l-92 120l-187 245l-263 348h-2v-872q0 -8 -5 -13q-6 -6 -13 -6h-27q-8 0 -14 6q-5 5 -5 13v368v613q0 9 6 14q7 5 15 5h25l688 -897h2v0v772
q-4 -1 -8 -1q-4 -1 -8 0q-28 3 -41 22q-12 19 -9 42q3 25 21 38q19 13 45 10q28 -3 47 -31q20 -28 19 -83v0z" />
    <glyph glyph-name="" unicode="&#x144;" horiz-adv-x="642" 
d="M211 826q0 7 5 11q4 4 14 4q4 0 27 1q23 0 53 12q17 7 34 18q17 10 32 27q11 12 18 24t10 24q-6 0 -12 2q-5 2 -10 6q-22 17 -23 40t12 40q16 21 39 23h4q20 0 39 -15q25 -19 25 -60q0 -40 -44 -96q-18 -24 -39 -40q-21 -17 -42 -28q-39 -20 -73 -24q-23 -3 -37 -3
q-7 0 -13 1q-8 1 -13 4q-6 4 -6 11v18zM591 325v-307q0 -7 -6 -13q-5 -5 -13 -5h-26q-7 0 -13 5q-5 6 -5 13v307q0 99 -45 150q-44 51 -126 51q-57 0 -102 -23q-44 -23 -71 -45q-14 -11 -22 -20q-9 -9 -10 -11v-409q0 -8 -5 -13q-4 -5 -14 -5h-27q-8 0 -12 5q-4 6 -4 13v435
v0v1v122q-4 -1 -9 -2t-10 0q-28 3 -40 22q-10 16 -11 33q0 4 1 9q3 25 21 38q15 11 35 11q5 0 10 -1q26 -3 46 -28q19 -25 20 -75v-1v-1v-78q20 19 74 52t133 33q120 0 176 -71q55 -71 55 -192z" />
    <glyph glyph-name="" unicode="&#x145;" horiz-adv-x="966" 
d="M511 -150q31 0 56 -32t25 -103q0 -30 -7 -56q-6 -26 -16 -47q-19 -40 -43 -64q-25 -24 -38 -32q-7 -4 -14 -5h-1q-5 0 -9 5t-12 14q-3 4 -3 9v3q2 6 9 11q2 2 9 7l15 13q16 16 34 45t22 71q2 17 0 30q-2 14 -7 25q-5 -3 -11 -5q-5 -2 -12 -2q-28 0 -42 17q-15 18 -15 40
q0 26 17 41q16 15 43 15zM884 889v-887q0 -9 -7 -14q-7 -4 -16 -4h-19l-5 5q-4 4 -26 32q-9 12 -23 29l-33 42l-65 84l-92 120l-187 245l-263 348h-2v-872q0 -8 -5 -13q-6 -6 -13 -6h-27q-8 0 -14 6q-5 5 -5 13v368v613q0 9 6 14q7 5 15 5h25l688 -897h2v0v772q-4 -1 -8 -1
q-4 -1 -8 0q-28 3 -41 22q-12 19 -9 42q3 25 21 38q19 13 45 10q28 -3 47 -31q20 -28 19 -83v0z" />
    <glyph glyph-name="" unicode="&#x146;" horiz-adv-x="642" 
d="M351 -150q31 0 56 -32t25 -103q0 -55 -20 -97q-20 -41 -43 -66q-12 -14 -23 -23t-18 -13t-14 -5h-1q-5 0 -9 5t-12 14q-3 4 -3 9v3q2 6 9 11q4 3 21 18q18 15 35 43q9 15 15 34q7 18 9 41q2 17 0 30q-2 14 -7 25q-5 -3 -11 -5q-5 -2 -12 -2q-28 0 -42 17q-15 18 -15 40
q0 26 17 41q16 15 43 15zM591 325v-307q0 -7 -6 -13q-5 -5 -13 -5h-26q-7 0 -13 5q-5 6 -5 13v307q0 99 -45 150q-44 51 -126 51q-57 0 -102 -23q-44 -23 -71 -45q-14 -11 -22 -20q-9 -9 -10 -11v-409q0 -8 -5 -13q-4 -5 -14 -5h-27q-8 0 -12 5q-4 6 -4 13v435v0v1v122
q-4 -1 -9 -2t-10 0q-28 3 -40 22q-10 16 -11 33q0 4 1 9q3 25 21 38q15 11 35 11q5 0 10 -1q26 -3 46 -28q19 -25 20 -75v-1v-1v-78q20 19 74 52t133 33q120 0 176 -71q55 -71 55 -192z" />
    <glyph glyph-name="" unicode="&#x147;" 
d="M476 1280q5 -5 13 -16q3 -3 3 -7q0 -2 -1 -3q-2 -6 -7 -10l-174 -140q-3 -4 -7 -6t-7 -2h-5t-7 2t-7 6l-174 140q-5 4 -7 10q-1 1 -1 3q0 4 3 7l13 16q3 4 8 7q5 2 13 -4l162 -121l161 121q6 5 11 4h2q5 -3 8 -7zM687 889v-887q0 -9 -7 -14q-7 -4 -16 -4h-18q-1 0 -5 5
q-5 4 -27 32q-9 12 -23 29l-32 42l-66 84l-91 120l-187 245l-264 348h-1v-872q0 -8 -6 -13q-5 -6 -13 -6h-27q-8 0 -13 6q-6 5 -6 13v368v613q0 9 7 14q6 5 15 5h24l689 -897h1v0v772q-4 -1 -8 -1q-4 -1 -8 0q-28 3 -40 22q-13 19 -10 42q3 25 22 38q18 13 45 10t47 -31
q19 -28 18 -83v0z" />
    <glyph glyph-name="" unicode="&#x148;" horiz-adv-x="642" 
d="M524 968q4 -6 12 -16q3 -4 3 -7q0 -2 -1 -4q-2 -5 -7 -9l-174 -141q-3 -3 -7 -5t-7 -2h-5t-7 2t-7 5l-173 141q-6 4 -8 9q-1 2 -1 4q0 3 3 7l13 16q3 4 8 6q1 1 3 1q4 0 10 -5l162 -120l161 120q9 7 13 4q5 -2 9 -6zM591 325v-307q0 -7 -6 -13q-5 -5 -13 -5h-26
q-7 0 -13 5q-5 6 -5 13v307q0 99 -45 150q-44 51 -126 51q-57 0 -102 -23q-44 -23 -71 -45q-14 -11 -22 -20q-9 -9 -10 -11v-409q0 -8 -5 -13q-4 -5 -14 -5h-27q-8 0 -12 5q-4 6 -4 13v435v0v1v122q-4 -1 -9 -2t-10 0q-28 3 -40 22q-10 16 -11 33q0 4 1 9q3 25 21 38
q15 11 35 11q5 0 10 -1q26 -3 46 -28q19 -25 20 -75v-1v-1v-78q20 19 74 52t133 33q120 0 176 -71q55 -71 55 -192z" />
    <glyph glyph-name="" unicode="&#x149;" horiz-adv-x="642" 
d="M-139 705q-3 4 -3 8q-1 2 0 3q1 6 9 12q1 1 8 6t15 14q17 16 35 44q18 29 22 72q1 16 -1 30t-6 24q-6 -3 -11 -5q-6 -2 -12 -2q-28 0 -43 18q-15 17 -15 40q0 25 17 40q17 16 44 16q31 0 55 -32q25 -32 25 -103q0 -56 -20 -97t-42 -67q-12 -14 -23 -23t-18 -13
q-8 -4 -14 -5h-1q-6 0 -10 5t-11 15zM591 325v-307q0 -7 -6 -13q-5 -5 -13 -5h-26q-7 0 -13 5q-5 6 -5 13v307q0 99 -45 150q-44 51 -126 51q-57 0 -102 -23q-44 -23 -71 -45q-14 -11 -22 -20q-9 -9 -10 -11v-409q0 -8 -5 -13q-4 -5 -14 -5h-27q-8 0 -12 5q-4 6 -4 13v435v0
v1v122q-4 -1 -9 -2t-10 0q-28 3 -40 22q-10 16 -11 33q0 4 1 9q3 25 21 38q15 11 35 11q5 0 10 -1q26 -3 46 -28q19 -25 20 -75v-1v-1v-78q20 19 74 52t133 33q120 0 176 -71q55 -71 55 -192z" />
    <glyph glyph-name="" unicode="&#x14a;" 
d="M-81 1001q0 8 7 13q6 5 15 5h24l689 -901h1v868q0 8 6 13q5 6 13 6h29q7 0 13 -6q5 -5 5 -13v-1182q0 -127 -57 -187q-58 -61 -152 -61q-56 0 -99 22q-44 21 -62 40q-6 6 -6 11q0 4 3 9q5 7 15 23q4 6 11 6t13 -6q18 -14 51 -31t74 -17q68 0 106 46q39 45 39 145v205
l-41 51l-81 106l-65 86l-84 111l-171 225l-230 304h-1v-873q0 -7 -6 -13q-5 -5 -13 -5h-27q-8 0 -13 5q-6 6 -6 13v368v614z" />
    <glyph glyph-name="" unicode="&#x14b;" 
d="M37 555q0 8 6 13q5 6 14 6h14q8 0 12 -4t5 -10l6 -62q9 10 37 31q27 22 69 39q23 9 50 14q26 6 57 6q120 0 175 -71q56 -71 56 -191v-523q0 -126 -58 -187q-57 -61 -152 -61q-56 0 -99 22t-62 40q-6 6 -6 11t4 9q4 8 14 23q4 6 11 6t13 -6q19 -14 51 -31q33 -16 74 -16
q68 0 107 45t39 145v523q0 99 -44 150q-45 51 -126 51q-31 0 -59 -8q-27 -7 -50 -19q-43 -21 -68 -45q-26 -24 -28 -27v-409q0 -9 -5 -14q-4 -5 -14 -5h-27q-8 0 -12 6q-4 5 -4 13v201v335z" />
    <glyph glyph-name="" unicode="&#x14c;" 
d="M81 1210v17q0 9 5 14t14 5h390q7 0 13 -5t6 -14v-17q0 -8 -6 -13q-6 -6 -13 -6h-390q-9 0 -14 6q-5 5 -5 13zM294 1018q75 0 145 -20q69 -20 129 -57q110 -68 177 -184q67 -117 67 -257t-67 -255q-67 -116 -177 -183q-59 -37 -129 -57q-69 -20 -145 -20q-140 0 -256 67
q-116 66 -184 175q-36 60 -56 129q-21 69 -21 144q0 140 67 256q67 117 177 185q59 37 128 57q70 20 145 20zM294 49q66 0 126 17q61 18 113 50q97 59 156 161q60 101 60 223q0 66 -18 127t-51 113q-60 97 -162 156t-224 59q-66 0 -126 -18q-61 -17 -113 -50
q-97 -60 -156 -162q-58 -102 -58 -225q0 -66 17 -126q18 -61 50 -112q60 -97 162 -155t224 -58z" />
    <glyph glyph-name="" unicode="&#x14d;" horiz-adv-x="638" 
d="M104 868v18q0 8 5 14q5 5 14 5h390q7 0 13 -5q5 -6 5 -14v-18q0 -8 -5 -13q-6 -4 -13 -4h-390q-9 0 -14 4q-5 5 -5 13zM319 588q78 0 143 -39q65 -40 102 -104q21 -34 32 -74t11 -83q0 -81 -37 -149t-99 -108q-33 -22 -71 -33q-39 -12 -81 -12q-79 0 -143 39
q-65 39 -103 104q-20 34 -31 75q-11 40 -11 84q0 43 11 83t31 74q38 64 102 104q65 39 144 39zM319 45q95 0 160 70q65 71 65 173q0 99 -65 170q-65 70 -160 70q-96 0 -161 -70q-66 -71 -66 -170q0 -102 66 -173q65 -70 161 -70z" />
    <glyph glyph-name="" unicode="&#x14e;" 
d="M106 1268q-1 2 -1 3q0 6 3 11q3 6 12 6h19q7 0 11 -5q4 -6 6 -12q13 -48 49 -80t89 -32q49 0 87 32t49 80q2 7 6 12q5 5 11 5h20q8 0 12 -6q3 -5 3 -11v-3q-12 -68 -64 -114q-52 -45 -124 -45q-75 0 -127 46t-61 113zM295 1018q76 0 145 -20q70 -20 129 -57
q111 -68 177 -184q67 -117 67 -257t-66 -255q-67 -116 -178 -183q-59 -37 -128 -57q-70 -20 -146 -20q-139 0 -255 67q-116 66 -184 175q-37 60 -57 129t-20 144q0 76 20 145t57 129q68 110 184 177t255 67zM295 49q66 0 127 17q61 18 113 50q97 59 156 161q59 101 59 223
q0 66 -18 127t-50 113q-60 97 -162 156t-225 59q-65 0 -126 -18q-60 -17 -113 -50q-96 -60 -155 -162t-59 -225q0 -122 59 -223t155 -161q52 -32 113 -50q61 -17 126 -17z" />
    <glyph glyph-name="" unicode="&#x14f;" horiz-adv-x="638" 
d="M132 928v4q0 6 3 11t12 5h18q8 0 12 -4q3 -5 5 -11q12 -49 49 -81q36 -33 89 -33q50 0 88 33q38 32 48 81q3 7 7 11t11 4h20q7 0 11 -5q3 -5 3 -11v-4q-11 -66 -63 -112q-53 -46 -125 -46q-74 0 -125 47q-51 46 -63 111zM132 928v4q0 6 3 11t12 5h18q8 0 12 -4
q3 -5 5 -11q12 -49 49 -81q36 -33 89 -33q50 0 88 33q38 32 48 81q3 7 7 11t11 4h20q7 0 11 -5q3 -5 3 -11v-4q-11 -66 -63 -112q-53 -46 -125 -46q-74 0 -125 47q-51 46 -63 111zM319 588q78 0 143 -39q65 -40 102 -104q21 -34 32 -74t11 -83q0 -81 -37 -149t-99 -108
q-33 -22 -71 -33q-39 -12 -81 -12q-79 0 -143 39q-65 39 -103 104q-20 34 -31 75q-11 40 -11 84q0 43 11 83t31 74q38 64 102 104q65 39 144 39zM319 45q95 0 160 70q65 71 65 173q0 99 -65 170q-65 70 -160 70q-96 0 -161 -70q-66 -71 -66 -170q0 -102 66 -173
q65 -70 161 -70z" />
    <glyph glyph-name="" unicode="&#x150;" 
d="M290 1253q-4 -30 -15 -55q-10 -24 -23 -44q-24 -36 -52 -57q-28 -20 -42 -25q-7 -3 -13 -3h-2q-6 0 -9 6t-9 16q-2 4 -3 7q0 3 1 5q2 6 11 10q4 2 23 14q20 12 41 37q11 14 21 31q9 18 15 41q3 15 4 29q0 14 -3 26q-6 -3 -11 -4q-6 -1 -13 0q-27 4 -39 24q-12 19 -9 41
q4 26 23 38q14 9 32 10q7 0 14 -1q30 -5 50 -41q12 -22 12 -60q0 -20 -4 -45zM482 1253q-4 -30 -15 -55q-10 -24 -23 -44q-24 -36 -52 -57q-28 -20 -42 -25q-7 -3 -13 -3h-2q-6 0 -9 6t-10 16q-2 4 -2 7t1 5q2 6 11 10q4 2 23 14q20 12 41 37q11 14 21 31q9 18 15 41
q3 15 4 29q0 14 -3 26q-6 -3 -11 -4q-6 -1 -13 0q-27 4 -39 24q-12 19 -9 41q4 26 23 38q14 9 32 10q7 0 14 -1q30 -5 50 -41q12 -22 12 -60q0 -20 -4 -45zM295 1018q76 0 145 -20q70 -20 129 -57q111 -68 177 -184q67 -117 67 -257t-66 -255q-67 -116 -178 -183
q-59 -37 -128 -57q-70 -20 -146 -20q-139 0 -255 67q-116 66 -184 175q-37 60 -57 129t-20 144q0 76 20 145t57 129q68 110 184 177t255 67zM295 49q66 0 127 17q61 18 113 50q97 59 156 161q59 101 59 223q0 66 -18 127t-50 113q-60 97 -162 156t-225 59q-65 0 -126 -18
q-60 -17 -113 -50q-96 -60 -155 -162t-59 -225q0 -122 59 -223t155 -161q52 -32 113 -50q61 -17 126 -17z" />
    <glyph glyph-name="" unicode="&#x151;" horiz-adv-x="638" 
d="M319 911q-8 -55 -33 -93t-51 -61q-14 -12 -26 -19t-20 -11q-7 -3 -13 -2h-1q-6 0 -10 6q-3 5 -9 16q-3 3 -3 7q0 2 1 4q2 6 10 11l10 5q7 4 17 11q18 14 40 40t32 68q3 15 3 29t-3 26q-6 -3 -12 -4t-12 0q-28 3 -40 23q-12 19 -9 41q4 26 22 39q15 9 34 9h11
q31 -5 51 -40q14 -23 14 -63q0 -19 -3 -42zM511 914q-5 -30 -14 -54q-10 -25 -23 -45q-24 -37 -51 -58q-28 -20 -42 -26q-7 -3 -13 -3h-1q-7 0 -10 6q-3 5 -9 16q-3 4 -3 8q0 2 1 4q2 6 10 10l10 5q7 4 17 11q18 14 40 40q21 26 31 68q4 16 4 30t-3 25l-12 -4q-6 -1 -12 0
q-28 4 -40 23t-9 42q3 25 22 38q15 10 34 10q5 0 11 -1q31 -4 51 -39q14 -24 14 -64q0 -19 -3 -42zM319 588q78 0 143 -39q65 -40 102 -104q21 -34 32 -74t11 -83q0 -81 -37 -149t-99 -108q-33 -22 -71 -33q-39 -12 -81 -12q-79 0 -143 39q-65 39 -103 104q-20 34 -31 75
q-11 40 -11 84q0 43 11 83t31 74q38 64 102 104q65 39 144 39zM319 45q95 0 160 70q65 71 65 173q0 99 -65 170q-65 70 -160 70q-96 0 -161 -70q-66 -71 -66 -170q0 -102 66 -173q65 -70 161 -70z" />
    <glyph glyph-name="OE" unicode="&#x152;" 
d="M117 1019q40 0 74 -6q33 -5 48 -8h573q7 0 12 -6t5 -13v-24q0 -8 -5 -14q-5 -5 -12 -5h-525v-396h454q8 0 13 -6q6 -5 6 -13v-24q0 -8 -6 -13q-5 -6 -13 -6h-454v-424h525q7 0 12 -6t5 -13v-23q0 -8 -5 -13q-5 -6 -12 -6h-571q-15 -3 -50 -9q-34 -5 -74 -5q-76 0 -145 20
t-128 56q-110 68 -176 183t-66 256q0 75 20 145q20 69 57 128q68 111 183 178t255 67zM117 49q26 0 51 2q25 3 50 8v884q-25 5 -49 8q-25 3 -52 3q-66 0 -126 -17q-61 -18 -113 -50q-96 -60 -155 -162t-59 -224t59 -224q58 -101 155 -161q52 -32 113 -49q60 -18 126 -18z
" />
    <glyph glyph-name="oe" unicode="&#x153;" horiz-adv-x="1128" 
d="M348 588q70 0 132 -30q62 -31 102 -84q37 54 92 84t131 30q110 0 186 -74q75 -75 75 -193q0 -17 -4 -36q-3 -20 -18 -20h-435v-94q22 -48 78 -88q55 -40 122 -40q57 0 100 18t69 35q10 7 15 7q6 1 11 -7q5 -6 14 -20q4 -4 2 -10q-1 -6 -7 -13q-22 -21 -82 -44t-126 -23
q-82 0 -136 33q-54 34 -92 86q-40 -55 -99 -87t-130 -32q-42 0 -80 12q-39 11 -72 33q-61 40 -98 108q-37 67 -37 149q0 43 12 83q11 40 31 74q38 64 102 104q64 39 142 39zM348 45q71 0 128 42q56 42 75 84v244q-23 35 -77 74q-55 39 -126 39q-94 0 -160 -70
q-65 -71 -65 -170q0 -102 65 -173q66 -70 160 -70zM1003 317q0 84 -51 148t-147 64q-61 0 -116 -31q-56 -31 -80 -85v-96h394v0z" />
    <glyph glyph-name="" unicode="&#x154;" 
d="M190 1122q-1 7 4 11t14 3q5 0 28 1t53 13q16 7 33 17q17 11 33 28q11 12 18 24t10 23q-7 1 -12 3q-6 2 -11 6q-22 17 -23 40q-1 22 13 40q16 21 38 22h4q20 0 40 -15q25 -19 24 -59q0 -40 -43 -96q-19 -24 -40 -41q-20 -16 -41 -27q-40 -20 -74 -24q-22 -3 -37 -3h-12
q-9 2 -14 5t-5 10v19zM667 25q5 -9 3 -17q-2 -9 -13 -9h-44q-8 0 -13 3q-4 4 -7 10l-208 376q-14 -1 -27 -1h-27h-110q3 -6 4 -11q2 -5 2 -11q-2 -28 -20 -42t-41 -12q-26 1 -40 18q-14 18 -12 45q1 28 29 50q27 21 85 23v0h7v0h1h136q36 0 69 9q34 10 63 27q54 32 88 88
t34 125q0 67 -34 121t-88 85q-29 17 -63 26q-34 10 -71 10h-301q-1 -307 -2 -920q0 -8 -6 -13q-6 -6 -17 -6h-25q-8 0 -13 6q-6 5 -6 13v363v604q0 7 5 13t14 6h355q47 0 89 -12q43 -12 79 -33q69 -40 110 -109q42 -68 42 -154q0 -108 -67 -189t-169 -110z" />
    <glyph glyph-name="" unicode="&#x155;" horiz-adv-x="476" 
d="M97 826q0 7 4 11q5 4 14 4q5 0 28 1q23 0 53 12q17 7 34 18q17 10 32 27q11 12 18 24t10 24q-6 0 -12 2q-5 2 -11 6q-22 17 -23 40t13 40q16 21 38 23h4q21 0 40 -15q25 -19 25 -60q0 -40 -44 -96q-18 -24 -39 -40q-21 -17 -42 -28q-39 -20 -73 -24q-23 -3 -37 -3
q-8 0 -13 1q-8 1 -14 4q-5 4 -5 11v18zM455 486q-4 -27 -22 -41q-17 -14 -43 -10q-22 3 -37 20t-11 45q1 5 3 9l4 8q-10 3 -23 6q-14 3 -31 3q-29 0 -53 -7t-43 -19q-36 -20 -54 -44t-20 -29v-408q0 -9 -5 -14q-4 -5 -14 -5h-29q-7 0 -11 6q-5 5 -5 13v201v335q0 8 6 13
q6 6 13 6h17q7 0 12 -4q4 -5 6 -12q1 -20 5 -59q4 5 12 14q7 9 19 20q22 19 59 37t89 18q15 0 27 -2q13 -1 23 -3q1 -1 3 -1h2q1 -1 2 -1h2q56 -13 78 -40q19 -23 19 -46v-9z" />
    <glyph glyph-name="" unicode="&#x156;" horiz-adv-x="966" 
d="M852 25q5 -9 3 -17q-2 -9 -13 -9h-45q-7 0 -12 3q-4 4 -8 10l-208 376q-14 -1 -26 -1h-27h-110q3 -6 4 -11q2 -5 1 -11q-1 -28 -19 -42q-19 -14 -41 -12q-26 1 -40 18q-14 18 -13 45q2 28 29 50q28 21 85 23v0h7h1h1h135q36 0 70 9q34 10 63 27q54 32 88 88q33 56 33 125
q0 67 -33 121q-34 54 -88 85q-29 17 -63 26q-34 10 -71 10h-301q-1 -307 -2 -920q0 -8 -6 -13q-6 -6 -17 -6h-26q-7 0 -13 6q-5 5 -5 13v363v604q0 7 5 13t13 6h356q46 0 89 -12t79 -33q68 -40 110 -109q42 -68 42 -154q0 -108 -67 -189t-170 -110zM511 -150q31 0 56 -32
t25 -103q0 -30 -7 -56q-6 -26 -16 -47q-19 -40 -43 -64q-25 -24 -38 -32q-7 -4 -14 -5h-1q-5 0 -9 5t-12 14q-3 4 -3 9v3q2 6 9 11q2 2 9 7l15 13q16 16 34 45t22 71q2 17 0 30q-2 14 -7 25q-5 -3 -11 -5q-5 -2 -12 -2q-28 0 -42 17q-15 18 -15 40q0 26 17 41q16 15 43 15z
" />
    <glyph glyph-name="" unicode="&#x157;" horiz-adv-x="476" 
d="M98 -150q31 0 55 -32q25 -32 25 -103q0 -30 -6 -56q-7 -26 -17 -47q-18 -40 -43 -64q-24 -24 -37 -32q-8 -4 -14 -5h-1q-6 0 -10 5l-11 14q-4 4 -4 9q0 1 1 3q1 6 8 11q2 2 9 7l15 13q17 16 35 45t22 71q1 17 -1 30q-2 14 -6 25q-6 -3 -11 -5q-6 -2 -12 -2q-28 0 -43 17
q-15 18 -15 40q0 26 17 41t44 15zM455 486q-4 -27 -22 -41q-17 -14 -43 -10q-22 3 -37 20t-11 45q1 5 3 9l4 8q-10 3 -23 6q-14 3 -31 3q-29 0 -53 -7t-43 -19q-36 -20 -54 -44t-20 -29v-408q0 -9 -5 -14q-4 -5 -14 -5h-29q-7 0 -11 6q-5 5 -5 13v201v335q0 8 6 13q6 6 13 6
h17q7 0 12 -4q4 -5 6 -12q1 -20 5 -59q4 5 12 14q7 9 19 20q22 19 59 37t89 18q15 0 27 -2q13 -1 23 -3q1 -1 3 -1h2q1 -1 2 -1h2q56 -13 78 -40q19 -23 19 -46v-9z" />
    <glyph glyph-name="" unicode="&#x158;" 
d="M476 1280q5 -5 13 -16q3 -3 3 -7q0 -2 -1 -3q-2 -6 -7 -10l-174 -140q-3 -4 -7 -6t-7 -2h-5t-7 2t-7 6l-174 140q-5 4 -7 10q-1 1 -1 3q0 4 3 7l13 16q3 4 8 7q5 2 13 -4l162 -121l161 121q6 5 11 4h2q5 -3 8 -7zM667 25q5 -9 3 -17q-2 -9 -13 -9h-44q-8 0 -13 3
q-4 4 -7 10l-208 376q-14 -1 -27 -1h-27h-110q3 -6 4 -11q2 -5 2 -11q-2 -28 -20 -42t-41 -12q-26 1 -40 18q-14 18 -12 45q1 28 29 50q27 21 85 23v0h7v0h1h136q36 0 69 9q34 10 63 27q54 32 88 88t34 125q0 67 -34 121t-88 85q-29 17 -63 26q-34 10 -71 10h-301
q-1 -307 -2 -920q0 -8 -6 -13q-6 -6 -17 -6h-25q-8 0 -13 6q-6 5 -6 13v363v604q0 7 5 13t14 6h355q47 0 89 -12q43 -12 79 -33q69 -40 110 -109q42 -68 42 -154q0 -108 -67 -189t-169 -110z" />
    <glyph glyph-name="" unicode="&#x159;" horiz-adv-x="476" 
d="M419 968q4 -6 13 -16q3 -4 3 -7q0 -2 -1 -4q-3 -5 -8 -9l-174 -141q-3 -3 -7 -5t-7 -2h-4t-7 2t-8 5l-173 141q-6 4 -8 9q-1 2 -1 4q0 3 3 7l13 16q3 4 8 6q1 1 3 1q4 0 11 -5l162 -120l160 120q9 7 14 4q5 -2 8 -6zM455 486q-4 -27 -22 -41q-17 -14 -43 -10
q-22 3 -37 20t-11 45q1 5 3 9l4 8q-10 3 -23 6q-14 3 -31 3q-29 0 -53 -7t-43 -19q-36 -20 -54 -44t-20 -29v-408q0 -9 -5 -14q-4 -5 -14 -5h-29q-7 0 -11 6q-5 5 -5 13v201v335q0 8 6 13q6 6 13 6h17q7 0 12 -4q4 -5 6 -12q1 -20 5 -59q4 5 12 14q7 9 19 20q22 19 59 37
t89 18q15 0 27 -2q13 -1 23 -3q1 -1 3 -1h2q1 -1 2 -1h2q56 -13 78 -40q19 -23 19 -46v-9z" />
    <glyph glyph-name="" unicode="&#x15a;" 
d="M186 1122q0 7 4 11q5 4 14 3q5 0 28 1t53 13q17 7 33 17q17 11 33 28q11 12 18 24t10 23q-6 1 -12 3t-11 6q-22 17 -23 40q-1 22 13 40q16 21 38 22h4q21 0 40 -15q25 -19 25 -59q-1 -40 -44 -96q-19 -24 -39 -41q-21 -16 -42 -27q-39 -20 -74 -24q-22 -3 -37 -3h-12
q-8 2 -14 5q-5 3 -5 10v19zM625 241q0 -70 -42 -127t-109 -91q-36 -18 -77 -28t-85 -10q-83 0 -147 26t-103 51q-22 14 -35 25q-14 12 -19 16q-6 5 -9 12q-1 2 -1 4q0 6 6 14q4 6 13 17q7 9 15 11q8 3 17 -5q3 -3 15 -13q12 -11 31 -24q35 -24 92 -49q56 -24 127 -24
q64 0 118 25t86 66q18 23 27 48q10 26 10 53q0 96 -74 148t-204 96q-82 28 -143 61q-62 32 -96 83q-19 27 -28 61q-10 34 -10 77q0 29 8 60q8 30 26 60q32 54 99 94q68 40 177 40q74 0 132 -20q58 -21 88 -37q7 -3 13 -7l12 -8h1v-1q1 0 2 -1l1 -1q24 -19 32 -40t2 -41
q-8 -26 -27 -37q-19 -12 -44 -5q-22 7 -34 26t-4 46q1 4 3 7q2 4 4 7q-27 15 -76 33t-107 18q-46 0 -82 -10q-37 -9 -64 -25q-51 -28 -74 -72q-22 -44 -22 -84q0 -92 64 -139q65 -48 174 -84q147 -50 234 -114q87 -63 87 -188z" />
    <glyph glyph-name="" unicode="&#x15b;" horiz-adv-x="485" 
d="M116 826q0 7 5 11q4 4 14 4q4 0 27 1q24 0 54 12q16 7 33 18q17 10 33 27q10 12 17 24t10 24q-6 0 -12 2q-5 2 -10 6q-22 17 -23 40t12 40q16 21 39 23h4q20 0 39 -15q25 -19 25 -60q0 -40 -44 -96q-18 -24 -39 -40q-21 -17 -42 -28q-39 -20 -73 -24q-23 -3 -37 -3
q-7 0 -12 1q-9 1 -14 4q-6 4 -6 11v18zM444 145q0 -65 -59 -112t-145 -47q-73 0 -118 23q-46 23 -70 41q-4 4 -6 9q-3 6 1 11q4 8 14 23q3 6 11 7q7 1 15 -5q11 -9 52 -33q41 -23 101 -23q62 0 100 30t38 72q0 49 -44 75q-45 27 -117 54q-76 27 -126 64q-50 38 -50 105
q0 47 44 98q45 51 144 51q45 0 81 -11q36 -10 59 -22q49 -24 65 -54q16 -29 6 -55q-9 -26 -29 -36q-19 -11 -44 -2q-21 7 -32 27q-12 20 -2 46q2 6 5 11q4 4 9 8q-18 9 -50 21q-32 11 -68 11q-68 0 -96 -31q-28 -32 -28 -61q0 -43 37 -67q36 -25 100 -47q80 -31 141 -67
t61 -114z" />
    <glyph glyph-name="" unicode="&#x15c;" 
d="M121 1104l-13 16q-3 3 -3 7q0 1 1 3q3 5 8 10l174 140q3 3 7 5t7 2h4t7 -2t8 -5l173 -140q6 -5 8 -10q1 -2 1 -3q0 -4 -3 -7q-4 -6 -13 -16q-3 -5 -8 -7q-5 -3 -14 4l-162 120l-160 -120q-7 -5 -11 -5q-1 0 -3 1q-5 2 -8 7zM625 241q0 -70 -42 -127t-109 -91
q-36 -18 -77 -28t-85 -10q-83 0 -147 26t-103 51q-22 14 -35 25q-14 12 -19 16q-6 5 -9 12q-1 2 -1 4q0 6 6 14q4 6 13 17q7 9 15 11q8 3 17 -5q3 -3 15 -13q12 -11 31 -24q35 -24 92 -49q56 -24 127 -24q64 0 118 25t86 66q18 23 27 48q10 26 10 53q0 96 -74 148t-204 96
q-82 28 -143 61q-62 32 -96 83q-19 27 -28 61q-10 34 -10 77q0 29 8 60q8 30 26 60q32 54 99 94q68 40 177 40q74 0 132 -20q58 -21 88 -37q7 -3 13 -7l12 -8h1v-1q1 0 2 -1l1 -1q24 -19 32 -40t2 -41q-8 -26 -27 -37q-19 -12 -44 -5q-22 7 -34 26t-4 46q1 4 3 7q2 4 4 7
q-27 15 -76 33t-107 18q-46 0 -82 -10q-37 -9 -64 -25q-51 -28 -74 -72q-22 -44 -22 -84q0 -92 64 -139q65 -48 174 -84q147 -50 234 -114q87 -63 87 -188z" />
    <glyph glyph-name="" unicode="&#x15d;" horiz-adv-x="485" 
d="M61 790l-13 16q-3 3 -2 7v3q3 5 8 10l174 140q3 3 7 5t7 2h4q4 0 8 -2q3 -2 7 -5l173 -140q6 -5 8 -10q1 -2 1 -3q0 -4 -3 -7q-4 -6 -13 -16q-3 -5 -8 -7q-5 -3 -13 4l-163 120l-160 -120q-7 -5 -11 -5q-1 0 -3 1q-4 2 -8 7zM444 145q0 -65 -59 -112t-145 -47
q-73 0 -118 23q-46 23 -70 41q-4 4 -6 9q-3 6 1 11q4 8 14 23q3 6 11 7q7 1 15 -5q11 -9 52 -33q41 -23 101 -23q62 0 100 30t38 72q0 49 -44 75q-45 27 -117 54q-76 27 -126 64q-50 38 -50 105q0 47 44 98q45 51 144 51q45 0 81 -11q36 -10 59 -22q49 -24 65 -54
q16 -29 6 -55q-9 -26 -29 -36q-19 -11 -44 -2q-21 7 -32 27q-12 20 -2 46q2 6 5 11q4 4 9 8q-18 9 -50 21q-32 11 -68 11q-68 0 -96 -31q-28 -32 -28 -61q0 -43 37 -67q36 -25 100 -47q80 -31 141 -67t61 -114z" />
    <glyph glyph-name="Scedilla" unicode="&#x15e;" horiz-adv-x="750" 
d="M401 0v-77q64 -8 109 -42q44 -34 44 -98q0 -57 -40 -98t-100 -41q-42 0 -72 17q-30 16 -40 32q-5 7 -5 13v2q1 6 6 11q5 4 15 11q4 4 10 3t13 -7q6 -8 24 -19t49 -11q39 0 61 25q23 25 23 61q0 52 -42 72q-43 20 -90 25q-9 3 -13 8t-4 11v102h34h18zM709 241
q0 -70 -42 -127q-43 -57 -109 -91q-36 -18 -77 -28t-85 -10q-83 0 -147 26t-104 51q-21 14 -34 25q-14 12 -19 16q-6 5 -10 12v4q0 6 6 14q4 6 13 17q7 9 15 11q8 3 16 -5q4 -3 16 -13q12 -11 31 -24q35 -24 92 -49q56 -24 127 -24q64 0 118 25t86 66q18 23 27 48
q10 26 10 53q0 96 -74 148t-205 96q-81 28 -142 61q-62 32 -96 83q-19 27 -29 61q-9 34 -9 77q0 29 8 60q8 30 25 60q33 54 100 94t176 40q75 0 133 -20q58 -21 88 -37q7 -3 13 -7l12 -8h1v-1q1 0 1 -1q1 0 2 -1q24 -19 32 -40t2 -41q-8 -26 -27 -37q-19 -12 -44 -5
q-22 7 -34 26q-13 19 -5 46q2 4 4 7q2 4 4 7q-28 15 -77 33t-106 18q-46 0 -83 -10q-36 -9 -64 -25q-50 -28 -73 -72q-22 -44 -22 -84q0 -92 64 -139q65 -48 174 -84q147 -50 234 -114q87 -63 87 -188z" />
    <glyph glyph-name="scedilla" unicode="&#x15f;" horiz-adv-x="485" 
d="M243 0v-77q64 -8 109 -42q44 -34 44 -98q0 -57 -40 -98t-101 -41q-42 0 -72 17q-30 16 -39 32q-5 7 -5 13v2q1 6 6 11l14 11q5 4 11 3t12 -7q7 -8 24 -19q18 -11 49 -11q39 0 62 25t23 61q0 52 -43 72t-89 25q-10 3 -13 8q-4 5 -4 11v102h34h18zM444 145q0 -65 -59 -112
t-145 -47q-73 0 -118 23q-46 23 -70 41q-4 4 -6 9q-3 6 1 11q4 8 14 23q3 6 11 7q7 1 15 -5q11 -9 52 -33q41 -23 101 -23q62 0 100 30t38 72q0 49 -44 75q-45 27 -117 54q-76 27 -126 64q-50 38 -50 105q0 47 44 98q45 51 144 51q45 0 81 -11q36 -10 59 -22q49 -24 65 -54
q16 -29 6 -55q-9 -26 -29 -36q-19 -11 -44 -2q-21 7 -32 27q-12 20 -2 46q2 6 5 11q4 4 9 8q-18 9 -50 21q-32 11 -68 11q-68 0 -96 -31q-28 -32 -28 -61q0 -43 37 -67q36 -25 100 -47q80 -31 141 -67t61 -114z" />
    <glyph glyph-name="Scaron" unicode="&#x160;" 
d="M476 1280q5 -5 13 -16q3 -3 3 -7q0 -2 -1 -3q-2 -6 -7 -10l-174 -140q-3 -4 -7 -6t-7 -2h-5t-7 2t-7 6l-174 140q-5 4 -7 10q-1 1 -1 3q0 4 3 7l13 16q3 4 8 7q5 2 13 -4l162 -121l161 121q6 5 11 4h2q5 -3 8 -7zM625 241q0 -70 -42 -127t-109 -91q-36 -18 -77 -28
t-85 -10q-83 0 -147 26t-103 51q-22 14 -35 25q-14 12 -19 16q-6 5 -9 12q-1 2 -1 4q0 6 6 14q4 6 13 17q7 9 15 11q8 3 17 -5q3 -3 15 -13q12 -11 31 -24q35 -24 92 -49q56 -24 127 -24q64 0 118 25t86 66q18 23 27 48q10 26 10 53q0 96 -74 148t-204 96q-82 28 -143 61
q-62 32 -96 83q-19 27 -28 61q-10 34 -10 77q0 29 8 60q8 30 26 60q32 54 99 94q68 40 177 40q74 0 132 -20q58 -21 88 -37q7 -3 13 -7l12 -8h1v-1q1 0 2 -1l1 -1q24 -19 32 -40t2 -41q-8 -26 -27 -37q-19 -12 -44 -5q-22 7 -34 26t-4 46q1 4 3 7q2 4 4 7q-27 15 -76 33
t-107 18q-46 0 -82 -10q-37 -9 -64 -25q-51 -28 -74 -72q-22 -44 -22 -84q0 -92 64 -139q65 -48 174 -84q147 -50 234 -114q87 -63 87 -188z" />
    <glyph glyph-name="scaron" unicode="&#x161;" horiz-adv-x="485" 
d="M425 968q4 -6 13 -16q2 -4 2 -7q0 -2 -1 -4q-2 -5 -7 -9l-174 -141q-3 -3 -7 -5t-7 -2h-4q-4 0 -8 2t-7 5l-173 141q-6 4 -8 9q-1 2 -1 4q0 3 3 7l13 16q3 4 8 6q1 1 3 1q4 0 10 -5l162 -120l161 120q9 7 14 4q4 -2 8 -6zM444 145q0 -65 -59 -112t-145 -47q-73 0 -118 23
q-46 23 -70 41q-4 4 -6 9q-3 6 1 11q4 8 14 23q3 6 11 7q7 1 15 -5q11 -9 52 -33q41 -23 101 -23q62 0 100 30t38 72q0 49 -44 75q-45 27 -117 54q-76 27 -126 64q-50 38 -50 105q0 47 44 98q45 51 144 51q45 0 81 -11q36 -10 59 -22q49 -24 65 -54q16 -29 6 -55
q-9 -26 -29 -36q-19 -11 -44 -2q-21 7 -32 27q-12 20 -2 46q2 6 5 11q4 4 9 8q-18 9 -50 21q-32 11 -68 11q-68 0 -96 -31q-28 -32 -28 -61q0 -43 37 -67q36 -25 100 -47q80 -31 141 -67t61 -114z" />
    <glyph glyph-name="" unicode="&#x162;" horiz-adv-x="747" 
d="M373 4v-78q64 -7 109 -41q44 -34 44 -98q0 -57 -40 -98t-100 -41q-42 0 -72 16q-30 17 -40 33q-5 7 -5 13v2q1 6 6 11q5 3 15 11q4 3 10 3q6 -1 13 -7q6 -8 24 -19t49 -11q38 0 61 25t23 61q0 51 -42 72q-43 20 -90 25q-9 2 -13 7t-4 12v102h27h25zM726 928v-3
q0 -25 -13 -41q-15 -17 -40 -18q-23 -1 -41 12q-18 14 -19 42q0 6 1 11t4 10h-237v-924q0 -7 -7 -13q-6 -5 -16 -5h-26q-8 0 -13 5q-6 6 -6 13v924h-274q-11 0 -15 6t-4 16v21q0 9 6 14t13 5h555v0q68 1 99 -22q31 -22 33 -53z" />
    <glyph glyph-name="" unicode="&#x163;" horiz-adv-x="466" 
d="M251 0v-77q64 -8 109 -42q44 -34 44 -98q0 -57 -40 -98t-101 -41q-42 0 -72 17q-30 16 -39 32q-5 7 -5 13v2q1 6 6 11l14 11q5 4 11 3t12 -7q7 -8 24 -19q18 -11 49 -11q39 0 62 25t23 61q0 52 -43 72t-89 25q-10 3 -13 8q-4 5 -4 11v102h34h18zM351 5q-22 -8 -49 -14
t-58 -6q-89 0 -109 47q-20 46 -20 115v370h-67q-11 0 -14 5t-3 14v23q0 7 5 11q4 3 12 3h67v156q0 9 6 14q5 5 13 5q8 1 24 2q8 0 13 -6q6 -6 6 -13v-158h199q9 0 14 -5q5 -6 5 -13v-19q0 -9 -5 -14t-14 -5h-199v-365q0 -51 12 -78t63 -27q23 0 48 6q25 7 45 15q-4 4 -7 8
q-3 5 -5 11q-8 26 5 45q12 19 34 26q25 7 44 -5q19 -11 27 -37q2 -8 2 -16q0 -21 -15 -43q-20 -31 -79 -52z" />
    <glyph glyph-name="" unicode="&#x164;" 
d="M509 1280l13 -16q3 -3 3 -7q0 -2 -1 -3q-2 -6 -8 -10l-173 -140q-4 -4 -8 -6q-3 -2 -7 -2h-4t-7 2t-7 6l-174 140q-5 4 -8 10v3q-1 4 2 7q5 5 13 16q3 4 8 7h3q4 1 11 -4l162 -121l161 121q8 6 13 4q5 -3 8 -7zM704 928v-3q0 -25 -13 -41q-15 -17 -40 -18q-23 -1 -41 12
q-18 14 -19 42q0 6 1 11t4 10h-237v-924q0 -7 -6 -13q-7 -5 -17 -5h-26q-8 0 -13 5q-6 6 -6 13v924h-274q-11 0 -15 6q-3 6 -3 16v21q0 9 5 14q6 5 13 5h555v0q68 1 99 -22q32 -22 33 -53z" />
    <glyph glyph-name="" unicode="&#x165;" horiz-adv-x="466" 
d="M270 697q-3 4 -4 9q0 1 1 3q1 6 9 11q1 2 8 7t15 13q17 16 35 45t22 72q1 16 -1 30q-2 13 -6 24q-6 -3 -11 -5q-6 -2 -12 -2q-28 0 -43 17q-15 18 -15 40q0 26 17 41t44 15q31 0 55 -32q25 -31 25 -103q0 -55 -20 -96q-20 -42 -42 -67q-12 -14 -23 -23t-18 -13
q-8 -4 -14 -5h-1q-6 0 -10 5zM351 5q-22 -8 -49 -14t-58 -6q-89 0 -109 47q-20 46 -20 115v370h-67q-11 0 -14 5t-3 14v23q0 7 5 11q4 3 12 3h67v156q0 9 6 14q5 5 13 5q8 1 24 2q8 0 13 -6q6 -6 6 -13v-158h199q9 0 14 -5q5 -6 5 -13v-19q0 -9 -5 -14t-14 -5h-199v-365
q0 -51 12 -78t63 -27q23 0 48 6q25 7 45 15q-4 4 -7 8q-3 5 -5 11q-8 26 5 45q12 19 34 26q25 7 44 -5q19 -11 27 -37q2 -8 2 -16q0 -21 -15 -43q-20 -31 -79 -52z" />
    <glyph glyph-name="" unicode="&#x166;" 
d="M253 435h-179q-9 0 -14 6q-5 7 -5 15v6q0 6 5 12q6 5 14 5h179v465h-274q-13 0 -16 10q-3 9 -3 19v13q0 7 6 13q5 5 13 5h617q8 0 13 -5q5 -6 5 -13v-23q0 -8 -5 -13q-5 -6 -13 -6h-276v-465h184q7 0 13 -5q6 -6 6 -12v-9q0 -7 -6 -13q-6 -5 -13 -5h-184v-416
q0 -13 -11 -16t-20 -3h-17q-8 0 -14 6q-5 5 -5 13v416z" />
    <glyph glyph-name="" unicode="&#x167;" 
d="M153 264h-52q-8 0 -13 6q-5 7 -5 14v6q0 8 5 13q6 6 13 6h52v206h-68q-10 0 -14 5q-3 5 -3 14v23q0 7 5 11q5 3 12 3h68v157q0 8 5 13q6 5 14 5q8 1 24 2q7 0 13 -6q6 -5 6 -13v-158h199q9 0 14 -5q5 -6 5 -13v-19q0 -9 -5 -14t-14 -5h-199v-206h169q8 0 13 -6
q5 -5 5 -13v-9q0 -7 -5 -12t-13 -5h-169v-115q0 -50 12 -77t62 -27q38 0 77 15q40 15 54 23q9 6 14 3t9 -8q3 -6 10 -18q3 -5 3 -11v-2q-1 -7 -8 -11q-16 -13 -60 -33q-45 -20 -106 -20q-89 0 -109 47q-20 46 -20 115v119z" />
    <glyph glyph-name="" unicode="&#x168;" 
d="M90 1154q-7 2 -9 8q-1 3 -1 6t1 6l8 19q5 13 12 27q15 27 42 52t72 25q50 0 71 -32l39 -61q10 -16 22 -27q12 -10 30 -10q40 0 57 32q18 33 25 52q2 8 8 11q7 3 13 -1q5 -1 16 -5q4 -2 7 -6q2 -3 2 -7v-6q-2 -6 -13 -36q-12 -30 -39 -55q-14 -14 -34 -23t-46 -9
q-27 0 -44 10q-18 11 -31 27q-23 29 -39 62t-49 33q-40 0 -58 -35q-17 -34 -23 -54q-3 -8 -8 -11q-6 -3 -14 1q-6 2 -17 7zM654 866v-501q0 -58 -13 -110q-14 -51 -39 -95q-46 -81 -130 -128t-195 -47t-194 47q-83 48 -129 128q-25 44 -39 96q-13 51 -13 109v620q0 7 6 13
q5 5 13 5h30q8 0 13 -5q6 -6 6 -13v-613q0 -139 82 -230t225 -91q144 0 227 90q83 91 83 229v522q-4 -1 -7 -1q-3 -1 -7 0q-27 3 -40 22q-12 19 -10 42q4 25 22 38q15 11 35 11q5 0 10 -1q30 -4 50 -37q16 -25 16 -69q0 -14 -2 -31z" />
    <glyph glyph-name="" unicode="&#x169;" horiz-adv-x="598" 
d="M102 837q-7 2 -9 8q-1 3 -1 6t1 6l8 19q5 13 12 27q15 27 42 52q27 26 72 26q50 0 71 -33l39 -61q10 -16 22 -26q12 -11 30 -11q40 0 57 33q18 32 25 52q2 7 8 10q7 3 13 0q5 -2 16 -6q4 -2 7 -6q2 -3 2 -7v-6q-2 -5 -13 -35q-12 -30 -39 -56q-14 -14 -34 -23t-46 -9
q-27 0 -44 11q-18 10 -31 26q-23 29 -39 62t-49 33q-40 0 -58 -34q-17 -35 -23 -55q-2 -8 -8 -10q-6 -3 -14 0q-6 2 -17 7zM537 554v-536q0 -7 -5 -13q-6 -6 -13 -6h-18q-8 0 -12 6q-4 5 -5 12q-2 18 -5 56q-8 -10 -32 -31t-64 -37q-21 -9 -47 -14q-26 -6 -55 -6
q-121 0 -175 70q-55 70 -55 191v222v1v1q2 50 21 75t45 28h10q20 1 35 -10q18 -13 22 -39q2 -22 -10 -41q-13 -19 -41 -22q-5 -1 -9 0l-10 2v-217q0 -100 45 -150q44 -51 126 -51q31 0 57 8q27 7 48 19q39 21 61 46q21 24 23 28v408q0 9 5 14t14 5h26q7 0 13 -6q5 -5 5 -13z
" />
    <glyph glyph-name="" unicode="&#x16a;" 
d="M67 1210v17q0 9 5 14t13 5h391q7 0 13 -5q5 -5 5 -14v-17q0 -8 -5 -13q-6 -6 -13 -6h-391q-8 0 -13 6q-5 5 -5 13zM651 866v-501q0 -58 -13 -110q-13 -51 -39 -95q-46 -81 -130 -128t-195 -47t-194 47q-83 48 -129 128q-25 44 -38 96q-14 51 -14 109v620q0 7 6 13
q6 5 13 5h30q8 0 13 -5q6 -6 6 -13v-613q0 -139 82 -230t225 -91q144 0 227 90q83 91 83 229v522q-3 -1 -7 -1q-3 -1 -6 0q-28 3 -41 22q-12 19 -9 42q3 25 21 38q15 11 35 11q5 0 10 -1q30 -4 51 -37q15 -25 15 -69q0 -14 -2 -31z" />
    <glyph glyph-name="" unicode="&#x16b;" horiz-adv-x="598" 
d="M82 868v18q0 8 5 14q5 5 14 5h390q8 0 13 -5q6 -6 6 -14v-18q0 -8 -6 -13q-5 -4 -13 -4h-390q-9 0 -14 4q-5 5 -5 13zM537 554v-536q0 -7 -5 -13q-6 -6 -13 -6h-18q-8 0 -12 6q-4 5 -5 12q-2 18 -5 56q-8 -10 -32 -31t-64 -37q-21 -9 -47 -14q-26 -6 -55 -6
q-121 0 -175 70q-55 70 -55 191v222v1v1q2 50 21 75t45 28h10q20 1 35 -10q18 -13 22 -39q2 -22 -10 -41q-13 -19 -41 -22q-5 -1 -9 0l-10 2v-217q0 -100 45 -150q44 -51 126 -51q31 0 57 8q27 7 48 19q39 21 61 46q21 24 23 28v408q0 9 5 14t14 5h26q7 0 13 -6q5 -5 5 -13z
" />
    <glyph glyph-name="" unicode="&#x16c;" 
d="M106 1268q-1 2 -1 3q0 6 3 11q3 6 12 6h19q7 0 11 -5q4 -6 6 -12q13 -48 49 -80t89 -32q49 0 87 32t49 80q2 7 6 12q5 5 11 5h20q8 0 12 -6q3 -5 3 -11v-3q-12 -68 -64 -114q-52 -45 -124 -45q-75 0 -127 46t-61 113zM663 866v-501q0 -58 -14 -110q-13 -51 -38 -95
q-47 -81 -131 -128q-83 -47 -195 -47q-59 0 -111 14t-95 40q-79 49 -124 134q-44 85 -44 192v620q0 7 6 13q5 5 13 5h30q7 0 13 -5q5 -6 5 -13v-613q0 -139 82 -230t225 -91q145 0 227 90q83 91 83 229v522q-3 -1 -6 -1q-3 -1 -7 0q-28 3 -40 22q-13 19 -10 42q3 25 22 38
q14 11 35 11q4 0 10 -1q30 -4 50 -37q15 -25 15 -69q0 -14 -1 -31z" />
    <glyph glyph-name="" unicode="&#x16d;" horiz-adv-x="598" 
d="M110 929v3q0 7 3 11q3 6 12 6h18q8 0 11 -5q4 -4 6 -11q12 -48 49 -81q36 -32 89 -32q50 0 88 32q38 33 48 81q3 8 7 12t11 4h20q7 0 11 -6q3 -4 3 -11v-3q-11 -67 -63 -112q-53 -46 -125 -46q-74 0 -125 46t-63 112zM110 929v3q0 7 3 11q3 6 12 6h18q8 0 11 -5
q4 -4 6 -11q12 -48 49 -81q36 -32 89 -32q50 0 88 32q38 33 48 81q3 8 7 12t11 4h20q7 0 11 -6q3 -4 3 -11v-3q-11 -67 -63 -112q-53 -46 -125 -46q-74 0 -125 46t-63 112zM537 554v-536q0 -7 -5 -13q-6 -6 -13 -6h-18q-8 0 -12 6q-4 5 -5 12q-2 18 -5 56q-8 -10 -32 -31
t-64 -37q-21 -9 -47 -14q-26 -6 -55 -6q-121 0 -175 70q-55 70 -55 191v222v1v1q2 50 21 75t45 28h10q20 1 35 -10q18 -13 22 -39q2 -22 -10 -41q-13 -19 -41 -22q-5 -1 -9 0l-10 2v-217q0 -100 45 -150q44 -51 126 -51q31 0 57 8q27 7 48 19q39 21 61 46q21 24 23 28v408
q0 9 5 14t14 5h26q7 0 13 -6q5 -5 5 -13z" />
    <glyph glyph-name="" unicode="&#x16e;" 
d="M439 1234q0 -64 -45 -108t-108 -44q-65 0 -108 44q-44 44 -44 108q0 65 44 109q43 45 108 45q63 0 108 -45q45 -44 45 -109zM392 1234q0 43 -32 75q-31 31 -74 31t-75 -31q-31 -32 -31 -75t31 -74q32 -32 75 -32t74 32q32 31 32 74zM662 866v-501q0 -58 -13 -110
q-13 -51 -39 -95q-46 -81 -130 -128t-195 -47q-59 0 -111 14t-95 40q-79 49 -124 134t-45 192v620q0 7 6 13q6 5 13 5h30q8 0 13 -5q6 -6 6 -13v-613q0 -139 82 -230t225 -91q144 0 227 90q83 91 83 229v522q-3 -1 -7 -1q-3 -1 -6 0q-28 3 -41 22q-12 19 -9 42q3 25 21 38
q15 11 35 11q5 0 10 -1q30 -4 51 -37q15 -25 15 -69q0 -14 -2 -31z" />
    <glyph glyph-name="" unicode="&#x16f;" horiz-adv-x="598" 
d="M151 868q0 65 44 109q45 45 110 45q63 0 107 -45q45 -44 45 -109q0 -64 -45 -108q-44 -44 -107 -44q-65 0 -110 44q-44 44 -44 108zM409 868q0 43 -31 75q-32 31 -73 31q-44 0 -76 -31q-32 -32 -32 -75t32 -74q32 -32 76 -32q41 0 73 32q31 31 31 74zM537 554v-536
q0 -7 -5 -13q-6 -6 -13 -6h-18q-8 0 -12 6q-4 5 -5 12q-2 18 -5 56q-8 -10 -32 -31t-64 -37q-21 -9 -47 -14q-26 -6 -55 -6q-121 0 -175 70q-55 70 -55 191v222v1v1q2 50 21 75t45 28h10q20 1 35 -10q18 -13 22 -39q2 -22 -10 -41q-13 -19 -41 -22q-5 -1 -9 0l-10 2v-217
q0 -100 45 -150q44 -51 126 -51q31 0 57 8q27 7 48 19q39 21 61 46q21 24 23 28v408q0 9 5 14t14 5h26q7 0 13 -6q5 -5 5 -13z" />
    <glyph glyph-name="" unicode="&#x170;" 
d="M292 1253q-5 -30 -15 -55q-10 -24 -23 -44q-25 -36 -53 -57q-27 -20 -42 -25q-7 -3 -12 -3h-2q-6 0 -10 6q-3 6 -9 16q-2 4 -2 7t1 5q2 6 10 10q4 2 24 14t40 37q11 14 21 31q10 18 15 41q4 15 4 29t-2 26q-6 -3 -12 -4t-12 0q-28 4 -40 24q-12 19 -8 41q4 26 23 38
q14 9 32 10q6 0 13 -1q31 -5 50 -41q13 -22 13 -60q0 -20 -4 -45zM484 1253q-5 -30 -15 -55q-10 -24 -23 -44q-25 -36 -53 -57q-28 -20 -42 -25q-7 -3 -12 -3h-2q-6 0 -10 6q-3 6 -9 16q-2 4 -2 7t1 5q2 6 10 10q4 2 24 14t40 37q11 14 21 31q10 18 15 41q4 15 4 29t-2 26
q-6 -3 -12 -4t-12 0q-28 4 -40 24q-12 19 -8 41q4 26 23 38q14 9 32 10q6 0 13 -1q31 -5 50 -41q13 -22 13 -60q0 -20 -4 -45zM672 866v-501q0 -58 -14 -110q-13 -51 -38 -95q-47 -81 -131 -128q-83 -47 -195 -47q-59 0 -111 14t-95 40q-79 49 -123 134q-45 85 -45 192v620
q0 7 6 13q5 5 13 5h30q7 0 13 -5q5 -6 5 -13v-613q0 -139 82 -230t225 -91q145 0 228 90q82 91 82 229v522q-3 -1 -6 -1q-3 -1 -7 0q-28 3 -40 22q-13 19 -10 42q3 25 22 38q14 11 35 11q4 0 10 -1q30 -4 50 -37q15 -25 15 -69q0 -14 -1 -31z" />
    <glyph glyph-name="" unicode="&#x171;" horiz-adv-x="598" 
d="M296 911q-8 -55 -33 -93t-51 -61q-13 -12 -26 -19l-19 -11q-8 -3 -14 -2h-1q-6 0 -10 6q-3 5 -9 16q-2 3 -2 7q0 2 1 4q2 6 10 11q4 2 23 14q20 12 40 38q11 13 20 31q10 18 15 41q3 15 3 29t-3 26q-6 -3 -11 -4q-6 -1 -12 0q-28 3 -40 23q-13 19 -10 41q4 26 23 39
q14 9 34 9h11q31 -5 51 -40q13 -23 13 -63q0 -19 -3 -42zM488 914q-4 -30 -14 -54q-10 -25 -22 -45q-24 -37 -52 -58q-27 -20 -41 -26q-8 -3 -14 -3h-1q-6 0 -10 6q-3 5 -9 16q-2 4 -2 8v4q3 6 11 10q2 1 9 5t17 11q18 14 40 40t32 68q3 16 3 30t-3 25q-6 -2 -11 -4
q-6 -1 -13 0q-27 4 -39 23q-13 19 -10 42q4 25 22 38q15 10 34 10q6 0 12 -1q31 -4 51 -39q13 -24 13 -64q0 -19 -3 -42zM537 554v-536q0 -7 -5 -13q-6 -6 -13 -6h-18q-8 0 -12 6q-4 5 -5 12q-2 18 -5 56q-8 -10 -32 -31t-64 -37q-21 -9 -47 -14q-26 -6 -55 -6
q-121 0 -175 70q-55 70 -55 191v222v1v1q2 50 21 75t45 28h10q20 1 35 -10q18 -13 22 -39q2 -22 -10 -41q-13 -19 -41 -22q-5 -1 -9 0l-10 2v-217q0 -100 45 -150q44 -51 126 -51q31 0 57 8q27 7 48 19q39 21 61 46q21 24 23 28v408q0 9 5 14t14 5h26q7 0 13 -6q5 -5 5 -13z
" />
    <glyph glyph-name="" unicode="&#x172;" horiz-adv-x="835" 
d="M484 16l43 -6l-27 -19q-28 -20 -53 -56q-13 -20 -22 -45q-9 -24 -9 -53q0 -49 32 -73q33 -23 74 -23q32 0 54 8q23 8 35 13q6 3 12 1q5 -3 6 -12q1 -5 2 -15v-3q0 -6 -2 -10q-3 -5 -10 -10q-13 -7 -41 -16q-29 -8 -63 -8q-61 0 -108 33q-47 32 -47 108q0 31 9 57
q10 26 24 47q26 39 57 60q30 21 34 22zM834 866v-501q0 -58 -14 -110q-13 -51 -38 -95q-47 -81 -131 -128q-83 -47 -195 -47q-110 0 -193 47q-84 48 -130 128q-25 44 -38 96q-13 51 -13 109v233v387q0 7 5 13q6 5 14 5h30q7 0 13 -5q5 -6 5 -13v-613q0 -139 82 -230t225 -91
q145 0 227 90q83 91 83 229v522q-3 -1 -6 -1q-3 -1 -7 0q-28 3 -40 22q-13 19 -10 42q3 25 22 38q14 11 34 11q5 0 11 -1q30 -4 50 -37q15 -25 15 -69q0 -14 -1 -31z" />
    <glyph glyph-name="" unicode="&#x173;" horiz-adv-x="598" 
d="M490 16l43 -6l-28 -19q-28 -20 -53 -56q-13 -20 -22 -45q-9 -24 -9 -53q0 -49 32 -73q33 -23 74 -23q32 0 55 8q22 8 34 13q6 3 12 1q5 -3 6 -12q1 -5 2 -15v-3q0 -6 -2 -10q-3 -5 -10 -10q-12 -7 -41 -16q-29 -8 -63 -8q-61 0 -108 33q-47 32 -47 108q0 31 9 57
q10 26 24 47q26 39 57 60q30 21 35 22zM537 554v-536q0 -7 -5 -13q-6 -6 -13 -6h-18q-8 0 -12 6q-4 5 -5 12q-2 18 -5 56q-8 -10 -32 -31t-64 -37q-21 -9 -47 -14q-26 -6 -55 -6q-121 0 -175 70q-55 70 -55 191v222v1v1q2 50 21 75t45 28h10q20 1 35 -10q18 -13 22 -39
q2 -22 -10 -41q-13 -19 -41 -22q-5 -1 -9 0l-10 2v-217q0 -100 45 -150q44 -51 126 -51q31 0 57 8q27 7 48 19q39 21 61 46q21 24 23 28v408q0 9 5 14t14 5h26q7 0 13 -6q5 -5 5 -13z" />
    <glyph glyph-name="" unicode="&#x174;" 
d="M107 1106l-13 16q-3 3 -3 7q0 2 1 3q3 6 8 10l174 141q3 3 7 5t7 2h4t7 -2t8 -5l173 -141q6 -4 8 -10q1 -1 1 -3q0 -4 -3 -7l-13 -16q-3 -4 -8 -7q-5 -2 -14 4l-162 121l-160 -121q-7 -4 -11 -4h-3q-5 3 -8 7zM854 879v0l-254 -884q-1 -4 -4 -7q-4 -3 -8 -3h-16
q-6 0 -9 3q-3 2 -6 7l-258 874h-3l-258 -874q-2 -5 -6 -7q-3 -3 -8 -3h-16q-4 0 -8 3t-5 7l-284 990q-1 4 -1 7q0 5 3 8q4 4 14 4h34q7 0 11 -5q5 -4 6 -11l241 -840h2h1l253 857q2 7 8 10q7 3 13 3h3q7 0 13 -3q7 -3 9 -10l254 -857h1h1l217 758q-4 0 -8 1t-8 3
q-25 14 -30 36t6 42q12 23 34 28q22 6 46 -7t32 -46q3 -9 3 -20q0 -27 -15 -64z" />
    <glyph glyph-name="" unicode="&#x175;" horiz-adv-x="825" 
d="M219 790q-5 5 -13 16q-3 3 -3 7q0 1 1 3q2 5 7 10l174 140q3 3 7 5t7 2h5t7 -2t7 -5l174 -140q5 -5 7 -10q1 -2 1 -3q0 -4 -3 -7q-4 -6 -13 -16q-3 -5 -8 -7q-5 -3 -13 4l-162 120l-161 -120q-6 -5 -11 -5q-1 0 -2 1q-5 2 -8 7zM790 536l-168 -538q-2 -7 -6 -10t-11 -3
h-5q-6 0 -11 3q-5 4 -7 10l-173 483h-2l-172 -483q-2 -6 -7 -10q-5 -3 -10 -3h-6q-6 0 -10 3q-5 3 -7 10l-172 552q-2 8 -2 13v4q1 6 11 6h31q6 0 11 -2q6 -3 8 -11l135 -451h1l171 466q2 7 6 10t11 3h6q5 0 10 -4q5 -3 7 -9l171 -466h1l114 381l24 85q-6 -1 -11 0
q-5 0 -11 2q-25 11 -32 33q-7 21 1 42q10 24 31 32q9 3 19 3q13 0 27 -6q28 -12 39 -48q3 -11 3 -26q1 -30 -15 -71z" />
    <glyph glyph-name="" unicode="&#x176;" 
d="M166 1104l-13 16q-3 3 -3 7q0 1 1 3q2 5 8 10l173 140q4 3 8 5t7 2h4t7 -2t7 -5l174 -140q5 -5 8 -10q0 -2 1 -3q0 -4 -3 -7l-13 -16q-3 -5 -8 -7q-5 -3 -14 4l-162 120l-161 -120q-6 -5 -10 -5q-2 0 -3 1q-5 2 -8 7zM687 873v-1l-289 -382v-471q0 -8 -6 -13
q-6 -6 -13 -6q-14 0 -31 1q-18 1 -18 18v469l-366 495q-4 6 -4 10q0 3 1 5q4 7 15 7h43q5 0 10 -3q5 -2 9 -6l327 -446l271 363q-4 1 -8 3t-7 5q-21 19 -20 42t16 39q17 19 39 20q23 0 43 -18q20 -19 21 -53q0 -34 -33 -78z" />
    <glyph glyph-name="" unicode="&#x177;" horiz-adv-x="647" 
d="M146 790q-5 5 -13 16q-3 3 -3 7q0 1 1 3q2 5 7 10l174 140q3 3 7 5t7 2h5t7 -2t7 -5l174 -140q5 -5 7 -10q1 -2 1 -3q0 -4 -3 -7q-4 -6 -13 -16q-3 -5 -8 -7q-4 -3 -13 4l-162 120l-161 -120q-6 -5 -10 -5q-2 0 -3 1q-5 2 -8 7zM624 551l-442 -952q-26 -62 -59 -81
q-22 -13 -41 -13q-11 0 -21 4q-25 10 -35 30q-6 10 -6 22q0 10 5 22q8 21 28 32t46 1q6 -3 10 -6l8 -8l188 404l-271 545q-4 9 -2 16q1 7 11 7h31q6 0 11 -3t8 -10l245 -485h3l224 485q3 7 8 10t11 3h31q10 0 12 -7v-4q0 -5 -3 -12z" />
    <glyph glyph-name="Ydieresis" unicode="&#x178;" 
d="M108 1191q0 21 14 36q14 14 34 14q22 0 36 -14q13 -15 13 -36q0 -20 -13 -34q-14 -14 -36 -14q-20 0 -34 14t-14 34zM383 1191q0 21 14 36q13 14 33 14q22 0 36 -14q15 -15 15 -36q0 -20 -15 -34q-14 -14 -36 -14q-20 0 -33 14q-14 14 -14 34zM629 873v-1l-290 -382v-471
q0 -8 -5 -13q-6 -6 -13 -6q-14 0 -32 1q-17 1 -17 18v469l-366 495q-4 6 -4 10q0 3 1 5q4 7 14 7h44q5 0 10 -3q5 -2 8 -6l327 -446l271 363q-4 1 -7 3q-4 2 -8 5q-20 19 -20 42q1 23 16 39q18 19 40 20q22 0 42 -18q21 -19 21 -53t-32 -78z" />
    <glyph glyph-name="" unicode="&#x179;" horiz-adv-x="758" 
d="M274 1122q-1 7 4 11t14 3q5 0 28 1t53 13q16 7 33 17q17 11 33 28q11 12 18 24t10 23q-6 1 -12 3t-11 6q-22 17 -23 40q-1 22 13 40q16 21 38 22h4q20 0 40 -15q25 -19 24 -59q0 -40 -43 -96q-19 -24 -40 -41q-20 -16 -41 -27q-40 -20 -74 -24q-22 -3 -37 -3h-12
q-9 2 -14 5t-5 10v19zM130 65v-2h535q9 0 14 -5q5 -6 5 -14v-25q0 -8 -5 -13q-5 -6 -14 -6h-604q-9 0 -14 5q-6 5 -6 12v26l582 895v3h-519q-7 0 -13 6t-6 16v23q0 7 6 13q6 5 13 5h591q9 0 14 -5q5 -6 5 -13v-23l-275 -422q16 -17 45 -35t72 -22q16 -1 30 1t24 6
q-3 6 -5 11q-2 6 -2 12q0 28 17 43q18 14 40 14q26 0 41 -16q15 -17 15 -44q0 -31 -32 -56q-31 -24 -102 -24q-60 0 -102 22q-43 22 -68 45z" />
    <glyph glyph-name="" unicode="&#x17a;" horiz-adv-x="527" 
d="M166 826q0 7 4 11q5 4 14 4q5 0 28 1q23 0 53 12q17 7 33 18q17 10 33 27q11 12 18 24t10 24q-6 0 -12 2t-11 6q-22 17 -23 40t13 40q16 21 38 23h4q21 0 40 -15q25 -19 24 -60q0 -40 -43 -96q-19 -24 -40 -40q-20 -17 -41 -28q-39 -20 -74 -24q-22 -3 -37 -3q-7 0 -12 1
q-8 1 -14 4q-5 4 -5 11v18zM483 546l-195 -282q6 -2 13 -3t15 -2q16 -1 30 1t25 6q-4 5 -6 11t-2 12q0 28 18 43q17 14 40 14q26 0 41 -16q15 -17 15 -44q0 -31 -32 -56q-32 -24 -103 -24q-24 0 -45 4t-39 11l-114 -164h300q9 0 14 -5t5 -13v-21q0 -7 -5 -13q-5 -5 -14 -5
h-375q-8 0 -13 4q-5 5 -5 12l1 8q0 7 7 18q1 1 20 28l42 61l56 80l27 37q-25 17 -40 34q-16 17 -21 27q-5 8 -5 14q-1 6 5 10q4 4 14 12q5 4 11 3t12 -9q2 -3 15 -19q13 -15 37 -31l156 223v4h-292q-8 0 -13 6q-4 5 -4 13v20q0 8 4 13q5 5 13 5h371q11 0 17 -8q2 -5 2 -9
q0 -5 -3 -10z" />
    <glyph glyph-name="" unicode="&#x17b;" horiz-adv-x="758" 
d="M341 1191q0 21 14 36q14 14 34 14q22 0 36 -14q13 -15 13 -36q0 -20 -13 -34q-14 -14 -36 -14q-20 0 -34 14t-14 34zM130 65v-2h535q9 0 14 -5q5 -6 5 -14v-25q0 -8 -5 -13q-5 -6 -14 -6h-604q-9 0 -14 5q-6 5 -6 12v26l582 895v3h-519q-7 0 -13 6t-6 16v23q0 7 6 13
q6 5 13 5h591q9 0 14 -5q5 -6 5 -13v-23l-275 -422q16 -17 45 -35t72 -22q16 -1 30 1t24 6q-3 6 -5 11q-2 6 -2 12q0 28 17 43q18 14 40 14q26 0 41 -16q15 -17 15 -44q0 -31 -32 -56q-31 -24 -102 -24q-60 0 -102 22q-43 22 -68 45z" />
    <glyph glyph-name="" unicode="&#x17c;" horiz-adv-x="527" 
d="M225 890q0 22 16 38t39 16t39 -16t16 -38t-16 -39q-16 -16 -39 -16t-39 16q-16 17 -16 39zM483 546l-195 -282q6 -2 13 -3t15 -2q16 -1 30 1t25 6q-4 5 -6 11t-2 12q0 28 18 43q17 14 40 14q26 0 41 -16q15 -17 15 -44q0 -31 -32 -56q-32 -24 -103 -24q-24 0 -45 4
t-39 11l-114 -164h300q9 0 14 -5t5 -13v-21q0 -7 -5 -13q-5 -5 -14 -5h-375q-8 0 -13 4q-5 5 -5 12l1 8q0 7 7 18q1 1 20 28l42 61l56 80l27 37q-25 17 -40 34q-16 17 -21 27q-5 8 -5 14q-1 6 5 10q4 4 14 12q5 4 11 3t12 -9q2 -3 15 -19q13 -15 37 -31l156 223v4h-292
q-8 0 -13 6q-4 5 -4 13v20q0 8 4 13q5 5 13 5h371q11 0 17 -8q2 -5 2 -9q0 -5 -3 -10z" />
    <glyph glyph-name="Zcaron" unicode="&#x17d;" 
d="M557 1280l13 -16q3 -3 3 -7q0 -2 -1 -3q-2 -6 -8 -10l-173 -140q-4 -4 -8 -6t-7 -2h-4t-7 2t-7 6l-174 140q-5 4 -8 10q0 1 -1 3q0 4 3 7q5 5 13 16q3 4 8 7h3q4 1 11 -4l162 -121l161 121q8 6 13 4q5 -3 8 -7zM89 65v-2h535q9 0 14 -5q5 -6 5 -14v-25q0 -8 -5 -13
q-5 -6 -14 -6h-604q-9 0 -14 5q-6 5 -6 12v26l582 895v3h-519q-7 0 -13 6t-6 16v23q0 7 6 13q6 5 13 5h591q9 0 14 -5q5 -6 5 -13v-23l-274 -422q15 -17 44 -35t72 -22q16 -1 30 1t24 6q-3 6 -5 11q-2 6 -2 12q0 28 18 43q17 14 39 14q26 0 41 -16q15 -17 15 -44
q0 -31 -31 -56q-32 -24 -103 -24q-60 0 -102 22q-43 22 -68 45z" />
    <glyph glyph-name="zcaron" unicode="&#x17e;" horiz-adv-x="527" 
d="M467 968l13 -16q3 -4 3 -7q0 -2 -1 -4q-2 -5 -7 -9l-174 -141q-3 -3 -7 -5t-7 -2h-5t-7 2t-7 5l-174 141q-5 4 -7 9q-1 2 -1 4q0 3 3 7l13 16q3 4 8 6q1 1 3 1q4 0 10 -5l162 -120l161 120q9 7 13 4q5 -2 8 -6zM483 546l-195 -282q6 -2 13 -3t15 -2q16 -1 30 1t25 6
q-4 5 -6 11t-2 12q0 28 18 43q17 14 40 14q26 0 41 -16q15 -17 15 -44q0 -31 -32 -56q-32 -24 -103 -24q-24 0 -45 4t-39 11l-114 -164h300q9 0 14 -5t5 -13v-21q0 -7 -5 -13q-5 -5 -14 -5h-375q-8 0 -13 4q-5 5 -5 12l1 8q0 7 7 18q1 1 20 28l42 61l56 80l27 37
q-25 17 -40 34q-16 17 -21 27q-5 8 -5 14q-1 6 5 10q4 4 14 12q5 4 11 3t12 -9q2 -3 15 -19q13 -15 37 -31l156 223v4h-292q-8 0 -13 6q-4 5 -4 13v20q0 8 4 13q5 5 13 5h371q11 0 17 -8q2 -5 2 -9q0 -5 -3 -10z" />
    <glyph glyph-name="" unicode="&#x17f;" 
d="M248 768q0 127 62 187q61 61 154 61q55 0 100 -21q46 -21 61 -40q6 -7 6 -13v-1q0 -6 -3 -9q-4 -7 -14 -20q-5 -7 -11 -8q-7 0 -14 6q-16 16 -50 33q-35 17 -75 17q-67 0 -110 -46t-43 -145v-964q0 -127 -62 -188q-62 -60 -155 -60q-55 0 -100 20q-46 21 -61 41
q-5 6 -6 13v1q0 5 3 9l14 20q5 6 11 7q7 1 14 -6q16 -15 50 -32q35 -17 75 -17q67 0 110 46q43 45 43 145v964h1z" />
    <glyph glyph-name="florin" unicode="&#x192;" horiz-adv-x="560" 
d="M177 513h-125q-10 0 -14 6q-5 6 -5 13v19q0 7 6 13q5 5 13 5h125v197q0 127 61 187q62 61 155 61q55 0 101 -21q45 -20 60 -41q5 -6 6 -12v-2q0 -5 -3 -9q-5 -6 -15 -20q-4 -6 -11 -7q-6 -1 -13 6q-16 15 -50 32q-35 17 -75 17q-68 0 -110 -46q-43 -46 -43 -145v-197h212
q9 0 14 -5t5 -12v-22q0 -7 -5 -12q-4 -5 -14 -5h-212v-711q0 -127 -62 -188q-61 -61 -155 -61q-55 0 -100 21t-61 41q-5 7 -5 13v1q0 5 3 9q4 7 14 20q4 7 11 7q7 1 13 -5q16 -15 51 -32q34 -17 74 -17q68 0 111 46t43 145v711z" />
    <glyph glyph-name="" unicode="&#x1a0;" 
d="M294 1018q75 0 145 -20q69 -20 129 -57q110 -68 177 -184q67 -117 67 -257t-67 -255q-67 -116 -177 -183q-59 -37 -129 -57q-69 -20 -145 -20q-140 0 -256 67q-116 66 -184 175q-36 60 -56 129q-21 69 -21 144q0 140 67 256q67 117 177 185q59 37 128 57q70 20 145 20z
M294 49q66 0 126 17q61 18 113 50q97 59 156 161q60 101 60 223q0 66 -18 127t-51 113q-60 97 -162 156t-224 59q-66 0 -126 -18q-61 -17 -113 -50q-97 -60 -156 -162q-58 -102 -58 -225q0 -66 17 -126q18 -61 50 -112q60 -97 162 -155t224 -58zM903 860q-9 -55 -35 -93
t-52 -59q-14 -12 -26 -19t-20 -10q-7 -3 -13 -3h-1q-7 0 -10 6t-9 16q-2 4 -2 7v5q3 6 11 10q2 1 9 5t17 11q19 14 41 39q22 26 33 67q4 16 4 30t-3 25q-5 -2 -11 -3t-12 0q-28 4 -40 24q-12 19 -8 41q4 26 22 38q14 9 33 9q6 0 13 -1q31 -4 50 -40q12 -22 12 -60
q0 -20 -3 -45z" />
    <glyph glyph-name="" unicode="&#x1a1;" 
d="M287 588q78 0 142 -39q65 -40 103 -104q20 -34 32 -74q11 -40 11 -83q0 -81 -37 -149q-38 -68 -99 -108q-33 -22 -72 -33q-38 -12 -80 -12q-79 0 -144 39q-64 39 -102 104q-20 34 -32 75q-11 40 -11 84q0 43 11 83t32 74q37 64 102 104q64 39 144 39zM287 45q94 0 159 70
q66 71 66 173q0 99 -66 170q-65 70 -159 70q-96 0 -162 -70q-65 -71 -65 -170q0 -102 65 -173q66 -70 162 -70zM680 491q-9 -55 -34 -93q-26 -37 -52 -59q-14 -12 -27 -19q-12 -7 -20 -10q-7 -3 -12 -3h-2q-6 1 -10 7q-3 5 -9 16q-2 3 -2 7q0 2 1 4q2 6 10 10q4 3 24 15
t40 37q12 13 21 31q10 17 16 40q3 16 3 30t-2 25q-6 -3 -12 -4t-12 0q-28 5 -40 24q-11 19 -8 42q4 25 23 38q14 9 32 9q6 0 13 -1q31 -5 50 -40q13 -23 13 -60q0 -21 -4 -46z" />
    <glyph glyph-name="" unicode="&#x1af;" 
d="M819 854q-4 -30 -14 -55q-11 -24 -24 -44q-24 -36 -52 -57q-28 -20 -42 -25q-7 -3 -13 -3h-2q-6 0 -9 6t-9 16q-2 4 -3 7q0 3 1 5q2 6 11 10q4 2 23 14q20 12 41 37q11 14 21 31q9 18 15 41q3 15 4 29q0 14 -3 26q-6 -3 -11 -4q-6 -1 -13 0q-27 4 -39 24q-12 19 -9 41
q4 26 23 38q14 9 33 10q6 0 13 -1q30 -5 50 -41q12 -22 12 -60q0 -20 -4 -45zM672 866v-501q0 -58 -14 -110q-13 -51 -38 -95q-47 -81 -131 -128q-83 -47 -195 -47q-59 0 -111 14t-95 40q-79 49 -123 134q-45 85 -45 192v620q0 7 6 13q5 5 13 5h30q7 0 13 -5q5 -6 5 -13
v-613q0 -139 82 -230t225 -91q145 0 228 90q82 91 82 229v522q-3 -1 -6 -1q-3 -1 -7 0q-28 3 -40 22q-13 19 -10 42q3 25 22 38q14 11 35 11q4 0 10 -1q30 -4 50 -37q15 -25 15 -69q0 -14 -1 -31z" />
    <glyph glyph-name="" unicode="&#x1b0;" horiz-adv-x="598" 
d="M677 449q-4 -30 -14 -55q-9 -25 -22 -45q-24 -37 -52 -57q-27 -21 -41 -27q-8 -3 -14 -3h-1q-6 0 -9 6t-10 16q-2 4 -2 8q0 2 1 4q2 6 10 10q4 2 24 15q19 12 39 37q11 14 20 32q10 18 15 40q3 16 3 30t-3 25q-5 -2 -11 -3q-6 -2 -12 -1q-28 4 -40 23t-9 42q3 25 22 38
q14 10 34 10q5 0 11 -1q31 -4 51 -39q13 -24 13 -64q0 -19 -3 -41zM537 554v-536q0 -7 -5 -13q-6 -6 -13 -6h-18q-8 0 -12 6q-4 5 -5 12q-2 18 -5 56q-8 -10 -32 -31t-64 -37q-21 -9 -47 -14q-26 -6 -55 -6q-121 0 -175 70q-55 70 -55 191v222v1v1q2 50 21 75t45 28h10
q20 1 35 -10q18 -13 22 -39q2 -22 -10 -41q-13 -19 -41 -22q-5 -1 -9 0l-10 2v-217q0 -100 45 -150q44 -51 126 -51q31 0 57 8q27 7 48 19q39 21 61 46q21 24 23 28v408q0 9 5 14t14 5h26q7 0 13 -6q5 -5 5 -13z" />
    <glyph glyph-name="" unicode="&#x1f0;" horiz-adv-x="346" 
d="M247 554v-416v-335q0 -127 -58 -188q-57 -60 -152 -60q-30 0 -57 7q-28 7 -49 18h-1v0q-1 1 -2 1q-1 1 -2 1q-53 26 -70 58q-9 19 -9 36q0 11 4 22q10 25 30 35t44 0q21 -8 32 -28q10 -20 0 -46q-2 -6 -6 -11q-4 -4 -9 -8v0v0q19 -11 43 -19q25 -9 52 -9q68 0 108 45
q40 46 40 146v751q0 8 6 13q5 6 13 6h24q8 0 13 -6q6 -5 6 -13zM195 724l-174 140q-6 4 -8 9v4q0 4 3 8q4 5 13 15q3 5 8 7q1 1 3 1q4 0 11 -5l161 -121l160 121q8 6 13 4t9 -7t13 -15q3 -4 3 -7q0 -2 -1 -4q-3 -5 -8 -10l-173 -140q-3 -3 -8 -5q-4 -2 -7 -2h-4t-7 1
q-4 2 -7 6z" />
    <glyph glyph-name="" unicode="&#x1fa;" 
d="M442 1141q0 -65 -45 -108q-45 -44 -109 -44t-108 44q-44 43 -44 108t44 109t108 44t109 -44t45 -109zM394 1141q0 43 -31 75q-32 31 -75 31t-74 -31q-32 -32 -32 -75t32 -75q31 -31 74 -31t75 31q31 32 31 75zM734 -1h-38q-7 0 -12 4q-6 4 -8 8l-116 264h-390q-3 0 -5 -1
q-3 -1 -5 -1q3 -6 4 -12q2 -5 2 -12q-2 -28 -20 -41q-18 -14 -40 -13q-26 1 -40 19q-15 17 -13 44q1 31 33 53q33 23 102 20h348l-246 579h-3l-390 -899q-2 -4 -7 -8t-13 -4h-40q-8 0 -10 4q-2 2 -2 5t2 8l442 998q2 5 7 7q5 3 10 3h4q6 0 11 -1q5 -2 8 -9l438 -998
q1 -4 1 -7t-1 -5q-2 -5 -13 -5zM164 1348q0 7 4 11q5 4 14 4q5 0 28 1t53 13q17 6 34 17t32 27q11 13 18 25t10 23l-12 2q-5 2 -10 6q-23 17 -24 40q0 23 13 41q16 20 39 22h3q21 0 40 -15q25 -19 25 -59q0 -41 -44 -97q-34 -44 -75 -64q-41 -21 -74 -27q-18 -3 -32 -4h-7
q-9 0 -16 1q-8 1 -13 5q-6 3 -6 10v18z" />
    <glyph glyph-name="" unicode="&#x1fb;" horiz-adv-x="548" 
d="M146 915q0 7 5 11q4 4 14 3q4 1 27 1q24 1 54 13q16 7 33 18q17 10 33 27q10 12 17 24t10 23q-6 1 -11 3q-6 2 -11 6q-22 17 -23 40q-1 22 13 40q15 21 38 22q2 1 4 1q20 0 39 -15q25 -19 25 -60q0 -40 -44 -96q-18 -24 -39 -41q-21 -16 -42 -27q-39 -20 -73 -24
q-23 -3 -37 -3q-7 0 -12 1q-9 1 -14 4q-5 4 -6 11v18zM123 705q0 65 44 109q45 45 109 45t108 -45q44 -44 44 -109t-44 -108q-44 -44 -108 -44t-109 44q-44 43 -44 108zM381 705q0 43 -31 75q-32 31 -74 31q-43 0 -75 -31q-32 -32 -32 -75t32 -75q32 -31 75 -31q42 0 74 31
q31 32 31 75zM487 338v-319q0 -7 -6 -13q-5 -5 -13 -5h-17q-7 0 -11 4t-6 11l-6 52q-28 -26 -79 -54t-120 -28q-80 0 -134 51q-54 52 -54 140q0 83 64 138t177 55q49 0 91 -10q42 -11 54 -15q0 94 -21 142q-21 47 -105 47q-41 0 -74 -7t-55 -15q-6 -2 -10 -5q-5 -2 -9 -5
q4 -5 8 -9q3 -5 4 -12q7 -27 -6 -45q-13 -19 -35 -24q-25 -6 -44 6q-19 13 -25 39q-6 24 9 51q15 26 59 45q20 9 67 22t115 13q85 0 123 -30q37 -31 49 -85q7 -28 8 -63q2 -34 2 -72zM427 131v12v146q-14 6 -54 18t-91 12q-82 0 -132 -39q-50 -38 -50 -102q0 -62 38 -99
q39 -37 98 -37q66 0 118 31t73 58v0z" />
    <glyph glyph-name="" unicode="&#x1fc;" 
 />
    <glyph glyph-name="" unicode="&#x1fd;" 
 />
    <glyph glyph-name="" unicode="&#x1fe;" 
d="M-215 65l90 89q-60 69 -95 157q-34 88 -34 189q0 75 20 144t57 129q68 110 183 177q116 67 257 67q103 0 194 -37t160 -103l95 92q4 5 11 5q8 0 13 -5l6 -6q5 -5 5 -13q0 -7 -5 -13l-94 -92q61 -69 97 -157q35 -89 35 -188q0 -141 -67 -256q-67 -116 -177 -183
q-59 -37 -129 -57q-69 -19 -144 -19q-105 0 -196 36t-160 101l-92 -89q-4 -5 -12 -5q-7 0 -12 5l-6 6q-6 5 -6 13q0 7 6 13zM572 832q-61 57 -141 90q-79 32 -168 32q-123 0 -225 -59q-101 -59 -161 -156q-32 -52 -50 -113t-18 -126q0 -88 30 -164q29 -77 82 -136zM263 48
q122 0 224 58q102 59 162 155q33 52 50 112q18 61 18 127q0 86 -30 163q-31 78 -84 138l-650 -633q60 -57 140 -89q79 -31 170 -31zM-2232 513q0 7 4 11q5 4 14 4h11t20 1q23 3 55 15q32 11 61 42q11 13 18 25t10 23q-6 1 -12 3q-5 1 -11 5q-22 17 -23 40t13 41q16 20 38 22
h4q21 0 40 -15q25 -19 25 -59t-44 -97q-34 -44 -75 -64q-41 -21 -74 -27q-18 -3 -32 -4h-7q-9 0 -16 1q-8 1 -14 5q-5 3 -5 10v18zM132 1213q0 6 5 10q5 5 14 4h11q8 0 20 1q23 3 54 15q32 11 62 43q11 12 18 24q6 12 10 23q-7 1 -12 3q-6 2 -11 6q-22 17 -23 39
q-1 23 13 41q16 20 38 22h4q20 0 40 -15q24 -19 24 -59t-43 -96q-19 -24 -40 -41q-21 -16 -41 -27q-40 -20 -74 -25q-22 -2 -37 -2h-12q-9 1 -14 5q-5 3 -5 10q0 6 -1 19z" />
    <glyph glyph-name="" unicode="&#x1ff;" horiz-adv-x="637" 
d="M62 77l26 26q-27 39 -42 85t-15 99q0 42 11 82t31 75q38 64 102 104q65 40 144 40q61 0 111 -23q49 -23 87 -60l33 31q5 6 13 6t13 -6l6 -6q6 -5 6 -12q0 -8 -6 -13l-35 -35q28 -39 44 -86q15 -47 15 -97q0 -45 -11 -85t-31 -75q-38 -64 -102 -103q-65 -39 -143 -39
q-59 0 -111 22q-51 23 -90 61l-24 -24q-6 -5 -13 -5q-8 1 -13 6q-1 2 -4 6q-7 6 -7 13q0 8 5 13zM473 462q-31 31 -70 48q-39 18 -84 18q-96 0 -160 -71q-65 -71 -65 -170q0 -41 10 -76q10 -34 30 -65zM319 44q95 0 160 70t65 173q0 38 -11 74t-32 66l-338 -316
q30 -31 70 -49t86 -18zM-1701 239q-1 7 4 11t14 4q5 0 28 1q23 0 53 12q16 7 33 18t33 27q11 12 18 24q7 13 10 24q-6 0 -12 2t-11 6q-22 17 -23 40t13 41q16 20 38 22h4q20 0 40 -15q25 -19 24 -60q0 -40 -43 -96q-34 -44 -75 -64q-41 -21 -74 -27q-18 -4 -32 -4h-7
q-10 0 -16 1q-9 1 -14 4q-5 4 -5 11v18zM184 751q0 7 5 11t14 4h10q9 0 21 1q22 3 54 15q32 11 62 43q11 12 17 24q7 12 11 23q-7 1 -12 3q-6 2 -11 5q-22 18 -23 40q-1 23 13 41q16 20 38 22h4q20 0 40 -15q24 -19 24 -59t-43 -96q-19 -24 -40 -41t-42 -27q-39 -20 -73 -25
q-23 -2 -37 -2h-12q-9 1 -14 5q-5 3 -5 10q0 6 -1 18z" />
    <glyph glyph-name="" unicode="&#x218;" horiz-adv-x="750" 
d="M402 -150q31 0 56 -32q24 -32 24 -103q0 -55 -19 -97q-20 -41 -43 -66q-12 -14 -23 -23t-18 -13t-14 -5h-1q-5 0 -9 5t-12 14q-3 4 -3 9v3q1 6 9 11q4 3 21 18q18 15 35 43q8 15 15 34q7 18 9 41q1 17 -1 30q-2 14 -6 25q-5 -3 -11 -5q-5 -2 -12 -2q-28 0 -42 17
q-15 18 -15 40q0 26 17 41q16 15 43 15zM709 241q0 -70 -42 -127q-43 -57 -109 -91q-36 -18 -77 -28t-85 -10q-83 0 -147 26t-104 51q-21 14 -34 25q-14 12 -19 16q-6 5 -10 12v4q0 6 6 14q4 6 13 17q7 9 15 11q8 3 16 -5q4 -3 16 -13q12 -11 31 -24q35 -24 92 -49
q56 -24 127 -24q64 0 118 25t86 66q18 23 27 48q10 26 10 53q0 96 -74 148t-205 96q-81 28 -142 61q-62 32 -96 83q-19 27 -29 61q-9 34 -9 77q0 29 8 60q8 30 25 60q33 54 100 94t176 40q75 0 133 -20q58 -21 88 -37q7 -3 13 -7l12 -8h1v-1q1 0 1 -1q1 0 2 -1
q24 -19 32 -40t2 -41q-8 -26 -27 -37q-19 -12 -44 -5q-22 7 -34 26q-13 19 -5 46q2 4 4 7q2 4 4 7q-28 15 -77 33t-106 18q-46 0 -83 -10q-36 -9 -64 -25q-50 -28 -73 -72q-22 -44 -22 -84q0 -92 64 -139q65 -48 174 -84q147 -50 234 -114q87 -63 87 -188z" />
    <glyph glyph-name="" unicode="&#x219;" horiz-adv-x="485" 
d="M251 -150q31 0 56 -32q24 -32 24 -103q0 -30 -6 -56t-16 -47q-19 -40 -43 -64q-25 -24 -38 -32q-7 -4 -14 -5h-1q-5 0 -9 5t-12 14q-3 4 -3 9v3q1 6 9 11q2 2 8 7q7 5 16 13q16 16 34 45t22 71q1 17 -1 30q-2 14 -6 25q-5 -3 -11 -5q-5 -2 -12 -2q-28 0 -42 17
q-15 18 -15 40q0 26 17 41q16 15 43 15zM444 145q0 -65 -59 -112t-145 -47q-73 0 -118 23q-46 23 -70 41q-4 4 -6 9q-3 6 1 11q4 8 14 23q3 6 11 7q7 1 15 -5q11 -9 52 -33q41 -23 101 -23q62 0 100 30t38 72q0 49 -44 75q-45 27 -117 54q-76 27 -126 64q-50 38 -50 105
q0 47 44 98q45 51 144 51q45 0 81 -11q36 -10 59 -22q49 -24 65 -54q16 -29 6 -55q-9 -26 -29 -36q-19 -11 -44 -2q-21 7 -32 27q-12 20 -2 46q2 6 5 11q4 4 9 8q-18 9 -50 21q-32 11 -68 11q-68 0 -96 -31q-28 -32 -28 -61q0 -43 37 -67q36 -25 100 -47q80 -31 141 -67
t61 -114z" />
    </font>
</defs>
</svg>
